<?xml version="1.0" encoding="UTF-8"?>
<svg xmlns="http://www.w3.org/2000/svg" xmlns:xlink="http://www.w3.org/1999/xlink" viewBox="0 0 320 28" version="1.1">
<defs>
<g>
<symbol overflow="visible" id="glyph0-0">
<path style="stroke:none;" d="M 1.015625 0 L 1.015625 -12.449219 L 7.109375 -12.449219 L 7.109375 0 Z M 2.03125 -1.015625 L 6.09375 -1.015625 L 6.09375 -11.433594 L 2.03125 -11.433594 Z M 2.03125 -1.015625 "/>
</symbol>
<symbol overflow="visible" id="glyph0-1">
<path style="stroke:none;" d="M 7.316406 6.761719 C 6.894531 6.75 6.511719 6.691406 6.167969 6.582031 C 5.828125 6.472656 5.523438 6.3125 5.253906 6.09375 C 5 5.894531 4.808594 5.652344 4.675781 5.367188 C 4.546875 5.085938 4.484375 4.769531 4.484375 4.417969 L 4.484375 -1.414062 C 4.484375 -1.945312 4.347656 -2.375 4.074219 -2.695312 C 3.800781 -3.015625 3.359375 -3.207031 2.746094 -3.269531 L 2.746094 -3.878906 C 3.332031 -3.941406 3.769531 -4.117188 4.054688 -4.398438 C 4.339844 -4.683594 4.484375 -5.128906 4.484375 -5.738281 L 4.484375 -11.570312 C 4.484375 -11.917969 4.546875 -12.226562 4.667969 -12.496094 C 4.792969 -12.765625 4.988281 -13.015625 5.253906 -13.242188 C 5.507812 -13.460938 5.804688 -13.621094 6.148438 -13.722656 C 6.492188 -13.824219 6.882812 -13.886719 7.316406 -13.910156 L 7.316406 -13.355469 C 6.933594 -13.332031 6.605469 -13.269531 6.324219 -13.164062 C 6.042969 -13.058594 5.828125 -12.945312 5.671875 -12.820312 C 5.488281 -12.679688 5.34375 -12.503906 5.242188 -12.296875 C 5.136719 -12.089844 5.085938 -11.863281 5.085938 -11.617188 L 5.085938 -5.753906 C 5.085938 -5.160156 4.953125 -4.683594 4.683594 -4.324219 C 4.417969 -3.964844 4.058594 -3.714844 3.609375 -3.578125 C 4.027344 -3.441406 4.378906 -3.203125 4.660156 -2.867188 C 4.945312 -2.53125 5.085938 -2.042969 5.085938 -1.398438 L 5.085938 4.46875 C 5.085938 4.695312 5.132812 4.910156 5.226562 5.117188 C 5.316406 5.324219 5.46875 5.507812 5.671875 5.671875 C 5.867188 5.828125 6.105469 5.949219 6.386719 6.039062 C 6.667969 6.128906 6.976562 6.183594 7.316406 6.203125 Z M 7.316406 6.761719 "/>
</symbol>
<symbol overflow="visible" id="glyph0-2">
<path style="stroke:none;" d="M 8.902344 -4.285156 C 8.902344 -2.925781 8.464844 -1.84375 7.589844 -1.039062 C 6.714844 -0.234375 5.644531 0.183594 4.378906 0.222656 L 3.9375 2.308594 L 3.347656 2.308594 L 3.792969 0.214844 C 2.925781 0.144531 2.222656 -0.167969 1.691406 -0.730469 C 1.15625 -1.289062 0.890625 -2.054688 0.890625 -3.023438 C 0.890625 -4.207031 1.300781 -5.210938 2.128906 -6.035156 C 2.957031 -6.855469 4.050781 -7.300781 5.410156 -7.363281 L 6.015625 -10.21875 L 6.59375 -10.21875 L 5.992188 -7.363281 C 6.816406 -7.304688 7.507812 -7.007812 8.066406 -6.464844 C 8.625 -5.925781 8.902344 -5.199219 8.902344 -4.285156 Z M 5.292969 -6.808594 C 4.144531 -6.75 3.238281 -6.347656 2.574219 -5.601562 C 1.910156 -4.855469 1.578125 -4.003906 1.578125 -3.046875 C 1.578125 -2.238281 1.808594 -1.597656 2.265625 -1.121094 C 2.722656 -0.648438 3.273438 -0.382812 3.910156 -0.324219 Z M 8.203125 -4.164062 C 8.203125 -4.992188 7.984375 -5.621094 7.546875 -6.058594 C 7.105469 -6.496094 6.546875 -6.742188 5.871094 -6.800781 L 4.492188 -0.324219 C 5.628906 -0.382812 6.53125 -0.769531 7.199219 -1.488281 C 7.871094 -2.203125 8.203125 -3.097656 8.203125 -4.164062 Z M 8.203125 -4.164062 "/>
</symbol>
<symbol overflow="visible" id="glyph0-3">
<path style="stroke:none;" d="M 7.179688 3.054688 L 4.484375 3.054688 L 4.484375 -10.109375 L 7.179688 -10.109375 L 7.179688 -9.554688 L 5.085938 -9.554688 L 5.085938 2.5 L 7.179688 2.5 Z M 7.179688 3.054688 "/>
</symbol>
<symbol overflow="visible" id="glyph0-4">
<path style="stroke:none;" d="M 5.269531 3.054688 L 2.570312 3.054688 L 2.570312 2.5 L 4.664062 2.5 L 4.664062 -9.554688 L 2.570312 -9.554688 L 2.570312 -10.109375 L 5.269531 -10.109375 Z M 5.269531 3.054688 "/>
</symbol>
<symbol overflow="visible" id="glyph0-5">
<path style="stroke:none;" d="M 7.007812 -3.269531 C 6.417969 -3.230469 5.984375 -3.046875 5.695312 -2.714844 C 5.410156 -2.378906 5.269531 -1.945312 5.269531 -1.414062 L 5.269531 4.417969 C 5.269531 4.742188 5.199219 5.054688 5.066406 5.355469 C 4.929688 5.65625 4.742188 5.902344 4.5 6.09375 C 4.238281 6.300781 3.933594 6.460938 3.582031 6.582031 C 3.230469 6.699219 2.847656 6.761719 2.4375 6.761719 L 2.4375 6.203125 C 2.816406 6.171875 3.144531 6.105469 3.417969 6.007812 C 3.695312 5.90625 3.910156 5.792969 4.0625 5.671875 C 4.28125 5.5 4.433594 5.320312 4.527344 5.140625 C 4.621094 4.960938 4.664062 4.738281 4.664062 4.46875 L 4.664062 -1.398438 C 4.664062 -1.867188 4.769531 -2.296875 4.984375 -2.6875 C 5.195312 -3.074219 5.582031 -3.371094 6.140625 -3.578125 C 5.636719 -3.753906 5.265625 -4.023438 5.027344 -4.390625 C 4.785156 -4.757812 4.664062 -5.214844 4.664062 -5.753906 L 4.664062 -11.617188 C 4.664062 -11.863281 4.617188 -12.085938 4.523438 -12.277344 C 4.429688 -12.472656 4.273438 -12.652344 4.0625 -12.820312 C 3.84375 -12.996094 3.597656 -13.125 3.316406 -13.203125 C 3.035156 -13.28125 2.742188 -13.332031 2.4375 -13.355469 L 2.4375 -13.910156 C 2.828125 -13.910156 3.210938 -13.84375 3.585938 -13.714844 C 3.960938 -13.585938 4.261719 -13.429688 4.484375 -13.242188 C 4.730469 -13.035156 4.925781 -12.792969 5.0625 -12.511719 C 5.199219 -12.230469 5.269531 -11.917969 5.269531 -11.570312 L 5.269531 -5.738281 C 5.269531 -5.230469 5.398438 -4.808594 5.660156 -4.472656 C 5.921875 -4.136719 6.371094 -3.9375 7.007812 -3.878906 Z M 7.007812 -3.269531 "/>
</symbol>
<symbol overflow="visible" id="glyph1-0">
<path style="stroke:none;" d="M 1.007812 -10.726562 L 8.742188 -10.726562 L 8.742188 0 L 1.007812 0 Z M 4.144531 -5.523438 L 2.0625 -9.296875 L 2.0625 -1.789062 Z M 7.671875 -1.789062 L 7.671875 -9.296875 L 5.605469 -5.523438 Z M 6.9375 -0.941406 L 5.753906 -3.085938 L 4.90625 -4.761719 L 4.84375 -4.761719 L 3.964844 -3.085938 L 2.761719 -0.941406 Z M 4.90625 -6.289062 L 5.703125 -7.816406 L 6.777344 -9.75 L 2.957031 -9.75 L 4.03125 -7.816406 L 4.84375 -6.289062 Z M 4.90625 -6.289062 "/>
</symbol>
<symbol overflow="visible" id="glyph1-1">
<path style="stroke:none;" d="M 6.453125 -4.339844 L 5.949219 -5.964844 C 5.765625 -6.558594 5.585938 -7.152344 5.410156 -7.742188 C 5.238281 -8.332031 5.066406 -8.9375 4.890625 -9.554688 L 4.828125 -9.554688 C 4.652344 -8.9375 4.480469 -8.332031 4.304688 -7.742188 C 4.132812 -7.152344 3.953125 -6.558594 3.769531 -5.964844 L 3.265625 -4.339844 Z M 6.792969 -3.25 L 2.925781 -3.25 L 1.902344 0 L 0.519531 0 L 4.109375 -10.660156 L 5.640625 -10.660156 L 9.230469 0 L 7.800781 0 Z M 6.792969 -3.25 "/>
</symbol>
<symbol overflow="visible" id="glyph1-2">
<path style="stroke:none;" d="M 3.203125 2.617188 C 3.875 2.3125 4.375 1.949219 4.710938 1.519531 C 5.046875 1.089844 5.226562 0.550781 5.25 -0.0976562 C 5.195312 -0.0859375 5.144531 -0.078125 5.09375 -0.0742188 C 5.046875 -0.0664062 4.996094 -0.0664062 4.941406 -0.0664062 C 4.59375 -0.0664062 4.296875 -0.164062 4.046875 -0.367188 C 3.796875 -0.566406 3.671875 -0.871094 3.671875 -1.285156 C 3.671875 -1.683594 3.800781 -1.992188 4.0625 -2.203125 C 4.324219 -2.414062 4.625 -2.519531 4.972656 -2.519531 C 5.460938 -2.519531 5.824219 -2.332031 6.070312 -1.957031 C 6.3125 -1.585938 6.433594 -1.078125 6.433594 -0.4375 C 6.433594 0.515625 6.183594 1.320312 5.679688 1.972656 C 5.175781 2.628906 4.472656 3.125 3.574219 3.460938 Z M 3.203125 2.617188 "/>
</symbol>
<symbol overflow="visible" id="glyph1-3">
<path style="stroke:none;" d="M 2.195312 -10.660156 L 8.710938 -10.660156 L 8.710938 -9.523438 L 3.542969 -9.523438 L 3.542969 -5.914062 L 7.914062 -5.914062 L 7.914062 -4.777344 L 3.542969 -4.777344 L 3.542969 0 L 2.195312 0 Z M 2.195312 -10.660156 "/>
</symbol>
<symbol overflow="visible" id="glyph1-4">
<path style="stroke:none;" d="M 3.347656 -6.808594 L 1.121094 -6.808594 L 1.121094 -7.816406 L 3.394531 -7.898438 L 3.574219 -10.109375 L 4.679688 -10.109375 L 4.679688 -7.898438 L 8.5625 -7.898438 L 8.5625 -6.808594 L 4.679688 -6.808594 L 4.679688 -3.054688 C 4.679688 -2.699219 4.710938 -2.386719 4.777344 -2.121094 C 4.84375 -1.855469 4.949219 -1.628906 5.101562 -1.445312 C 5.253906 -1.261719 5.460938 -1.125 5.71875 -1.03125 C 5.980469 -0.941406 6.300781 -0.894531 6.679688 -0.894531 C 7.058594 -0.894531 7.398438 -0.925781 7.703125 -0.992188 C 8.007812 -1.054688 8.296875 -1.144531 8.578125 -1.25 L 8.871094 -0.277344 C 8.515625 -0.148438 8.121094 -0.0351562 7.6875 0.0585938 C 7.253906 0.148438 6.820312 0.195312 6.386719 0.195312 C 5.8125 0.195312 5.328125 0.117188 4.941406 -0.0390625 C 4.550781 -0.195312 4.238281 -0.417969 4.003906 -0.707031 C 3.773438 -0.992188 3.605469 -1.339844 3.5 -1.738281 C 3.398438 -2.140625 3.347656 -2.582031 3.347656 -3.070312 Z M 3.347656 -6.808594 "/>
</symbol>
<symbol overflow="visible" id="glyph1-5">
<path style="stroke:none;" d="M 1.121094 -3.933594 C 1.121094 -4.582031 1.234375 -5.164062 1.460938 -5.679688 C 1.691406 -6.195312 1.992188 -6.628906 2.363281 -6.988281 C 2.738281 -7.34375 3.167969 -7.617188 3.648438 -7.808594 C 4.128906 -7.996094 4.625 -8.09375 5.136719 -8.09375 C 5.699219 -8.09375 6.203125 -8.003906 6.644531 -7.824219 C 7.089844 -7.644531 7.46875 -7.394531 7.777344 -7.070312 C 8.085938 -6.746094 8.320312 -6.355469 8.484375 -5.898438 C 8.644531 -5.445312 8.726562 -4.941406 8.726562 -4.386719 C 8.726562 -4.246094 8.722656 -4.109375 8.71875 -3.972656 C 8.714844 -3.835938 8.699219 -3.722656 8.675781 -3.625 L 2.503906 -3.625 C 2.515625 -3.203125 2.597656 -2.820312 2.753906 -2.484375 C 2.910156 -2.148438 3.121094 -1.863281 3.386719 -1.625 C 3.652344 -1.386719 3.96875 -1.203125 4.332031 -1.074219 C 4.695312 -0.941406 5.089844 -0.878906 5.523438 -0.878906 C 5.992188 -0.878906 6.417969 -0.941406 6.800781 -1.074219 C 7.183594 -1.203125 7.5625 -1.382812 7.929688 -1.609375 L 8.402344 -0.730469 C 8.011719 -0.480469 7.566406 -0.265625 7.070312 -0.0820312 C 6.570312 0.101562 6 0.195312 5.363281 0.195312 C 4.777344 0.195312 4.226562 0.101562 3.714844 -0.0898438 C 3.199219 -0.277344 2.75 -0.550781 2.363281 -0.902344 C 1.980469 -1.253906 1.675781 -1.683594 1.453125 -2.195312 C 1.230469 -2.703125 1.121094 -3.28125 1.121094 -3.933594 Z M 7.492188 -4.582031 C 7.492188 -5.375 7.285156 -5.980469 6.875 -6.402344 C 6.460938 -6.824219 5.886719 -7.035156 5.152344 -7.035156 C 4.828125 -7.035156 4.515625 -6.980469 4.21875 -6.875 C 3.917969 -6.765625 3.652344 -6.605469 3.414062 -6.394531 C 3.175781 -6.183594 2.972656 -5.925781 2.8125 -5.621094 C 2.648438 -5.320312 2.539062 -4.972656 2.484375 -4.582031 Z M 7.492188 -4.582031 "/>
</symbol>
<symbol overflow="visible" id="glyph1-6">
<path style="stroke:none;" d="M 1.511719 -7.898438 L 2.617188 -7.898438 L 2.730469 -6.546875 L 2.796875 -6.546875 C 3.207031 -6.992188 3.652344 -7.359375 4.128906 -7.652344 C 4.605469 -7.945312 5.152344 -8.09375 5.769531 -8.09375 C 6.710938 -8.09375 7.402344 -7.824219 7.839844 -7.289062 C 8.277344 -6.753906 8.5 -5.957031 8.5 -4.90625 L 8.5 0 L 7.167969 0 L 7.167969 -4.730469 C 7.167969 -5.476562 7.027344 -6.03125 6.742188 -6.394531 C 6.460938 -6.757812 5.996094 -6.9375 5.347656 -6.9375 C 5.109375 -6.9375 4.886719 -6.910156 4.6875 -6.847656 C 4.488281 -6.789062 4.289062 -6.699219 4.09375 -6.582031 C 3.898438 -6.460938 3.699219 -6.3125 3.492188 -6.132812 C 3.289062 -5.957031 3.070312 -5.746094 2.84375 -5.507812 L 2.84375 0 L 1.511719 0 Z M 1.511719 -7.898438 "/>
</symbol>
<symbol overflow="visible" id="glyph1-7">
<path style="stroke:none;" d="M 1.820312 -1.917969 C 2.265625 -1.59375 2.742188 -1.332031 3.25 -1.136719 C 3.757812 -0.941406 4.371094 -0.84375 5.085938 -0.84375 C 5.800781 -0.84375 6.332031 -0.964844 6.679688 -1.203125 C 7.027344 -1.441406 7.199219 -1.734375 7.199219 -2.078125 C 7.199219 -2.382812 7.011719 -2.652344 6.636719 -2.890625 C 6.265625 -3.128906 5.59375 -3.371094 4.632812 -3.609375 C 4.21875 -3.707031 3.832031 -3.824219 3.46875 -3.964844 C 3.105469 -4.105469 2.789062 -4.269531 2.519531 -4.460938 C 2.25 -4.648438 2.03125 -4.859375 1.867188 -5.085938 C 1.707031 -5.3125 1.625 -5.566406 1.625 -5.851562 C 1.625 -6.164062 1.695312 -6.460938 1.835938 -6.734375 C 1.976562 -7.011719 2.1875 -7.25 2.460938 -7.449219 C 2.738281 -7.652344 3.085938 -7.808594 3.5 -7.921875 C 3.917969 -8.035156 4.398438 -8.09375 4.941406 -8.09375 C 5.535156 -8.09375 6.117188 -7.992188 6.679688 -7.792969 C 7.242188 -7.59375 7.71875 -7.355469 8.109375 -7.085938 L 7.457031 -6.222656 C 7.113281 -6.472656 6.726562 -6.671875 6.304688 -6.824219 C 5.882812 -6.976562 5.425781 -7.050781 4.941406 -7.050781 C 4.570312 -7.050781 4.261719 -7.023438 4.015625 -6.964844 C 3.765625 -6.902344 3.5625 -6.824219 3.414062 -6.71875 C 3.261719 -6.617188 3.152344 -6.496094 3.085938 -6.355469 C 3.023438 -6.214844 2.988281 -6.066406 2.988281 -5.914062 C 2.988281 -5.589844 3.210938 -5.320312 3.65625 -5.109375 C 4.101562 -4.898438 4.679688 -4.703125 5.394531 -4.515625 C 6.46875 -4.246094 7.261719 -3.9375 7.777344 -3.589844 C 8.289062 -3.242188 8.546875 -2.769531 8.546875 -2.160156 C 8.546875 -1.835938 8.472656 -1.53125 8.320312 -1.25 C 8.167969 -0.96875 7.945312 -0.71875 7.644531 -0.503906 C 7.347656 -0.289062 6.980469 -0.117188 6.539062 0.0078125 C 6.101562 0.132812 5.601562 0.195312 5.039062 0.195312 C 4.257812 0.195312 3.539062 0.0742188 2.882812 -0.171875 C 2.226562 -0.414062 1.65625 -0.703125 1.171875 -1.039062 Z M 1.820312 -1.917969 "/>
</symbol>
<symbol overflow="visible" id="glyph1-8">
<path style="stroke:none;" d="M 0.976562 -3.933594 C 0.976562 -4.59375 1.082031 -5.179688 1.292969 -5.695312 C 1.503906 -6.210938 1.789062 -6.644531 2.144531 -7.003906 C 2.503906 -7.359375 2.917969 -7.632812 3.386719 -7.816406 C 3.859375 -8 4.355469 -8.09375 4.875 -8.09375 C 5.394531 -8.09375 5.890625 -8 6.363281 -7.816406 C 6.832031 -7.632812 7.246094 -7.359375 7.605469 -7.003906 C 7.960938 -6.644531 8.246094 -6.210938 8.457031 -5.695312 C 8.667969 -5.179688 8.773438 -4.59375 8.773438 -3.933594 C 8.773438 -3.28125 8.667969 -2.699219 8.457031 -2.1875 C 8.246094 -1.671875 7.960938 -1.238281 7.605469 -0.886719 C 7.246094 -0.535156 6.832031 -0.265625 6.363281 -0.0820312 C 5.890625 0.101562 5.394531 0.195312 4.875 0.195312 C 4.355469 0.195312 3.859375 0.101562 3.386719 -0.0820312 C 2.917969 -0.265625 2.503906 -0.535156 2.144531 -0.886719 C 1.789062 -1.238281 1.503906 -1.671875 1.292969 -2.1875 C 1.082031 -2.699219 0.976562 -3.28125 0.976562 -3.933594 Z M 2.355469 -3.933594 C 2.355469 -3.476562 2.414062 -3.066406 2.535156 -2.699219 C 2.652344 -2.328125 2.824219 -2.011719 3.046875 -1.746094 C 3.269531 -1.480469 3.535156 -1.277344 3.84375 -1.128906 C 4.152344 -0.984375 4.496094 -0.910156 4.875 -0.910156 C 5.253906 -0.910156 5.597656 -0.984375 5.90625 -1.128906 C 6.214844 -1.277344 6.480469 -1.480469 6.703125 -1.746094 C 6.925781 -2.011719 7.097656 -2.328125 7.214844 -2.699219 C 7.335938 -3.066406 7.394531 -3.476562 7.394531 -3.933594 C 7.394531 -4.386719 7.335938 -4.800781 7.214844 -5.175781 C 7.097656 -5.550781 6.925781 -5.871094 6.703125 -6.140625 C 6.480469 -6.414062 6.214844 -6.621094 5.90625 -6.769531 C 5.597656 -6.914062 5.253906 -6.988281 4.875 -6.988281 C 4.496094 -6.988281 4.152344 -6.914062 3.84375 -6.769531 C 3.535156 -6.621094 3.269531 -6.414062 3.046875 -6.140625 C 2.824219 -5.871094 2.652344 -5.550781 2.535156 -5.175781 C 2.414062 -4.800781 2.355469 -4.386719 2.355469 -3.933594 Z M 2.355469 -3.933594 "/>
</symbol>
<symbol overflow="visible" id="glyph1-9">
<path style="stroke:none;" d="M 2.371094 -7.898438 L 3.476562 -7.898438 L 3.589844 -6.027344 L 3.640625 -6.027344 C 4.050781 -6.667969 4.558594 -7.171875 5.160156 -7.539062 C 5.761719 -7.90625 6.429688 -8.09375 7.167969 -8.09375 C 7.460938 -8.09375 7.730469 -8.066406 7.980469 -8.019531 C 8.226562 -7.96875 8.476562 -7.886719 8.726562 -7.765625 L 8.417969 -6.613281 C 8.136719 -6.710938 7.898438 -6.78125 7.710938 -6.824219 C 7.519531 -6.867188 7.269531 -6.890625 6.953125 -6.890625 C 6.359375 -6.890625 5.789062 -6.71875 5.242188 -6.378906 C 4.695312 -6.039062 4.183594 -5.453125 3.703125 -4.632812 L 3.703125 0 L 2.371094 0 Z M 2.371094 -7.898438 "/>
</symbol>
<symbol overflow="visible" id="glyph1-10">
<path style="stroke:none;" d="M 1.542969 -1.152344 L 4.191406 -1.152344 L 4.191406 -9.523438 L 1.542969 -9.523438 L 1.542969 -10.660156 L 8.207031 -10.660156 L 8.207031 -9.523438 L 5.558594 -9.523438 L 5.558594 -1.152344 L 8.207031 -1.152344 L 8.207031 0 L 1.542969 0 Z M 1.542969 -1.152344 "/>
</symbol>
<symbol overflow="visible" id="glyph1-11">
<path style="stroke:none;" d="M 0.976562 -3.933594 C 0.976562 -4.570312 1.074219 -5.148438 1.277344 -5.664062 C 1.476562 -6.179688 1.742188 -6.613281 2.070312 -6.972656 C 2.402344 -7.328125 2.785156 -7.605469 3.21875 -7.800781 C 3.652344 -7.996094 4.101562 -8.09375 4.566406 -8.09375 C 5.054688 -8.09375 5.480469 -8 5.851562 -7.816406 C 6.21875 -7.632812 6.585938 -7.382812 6.953125 -7.070312 L 6.90625 -8.53125 L 6.90625 -11.570312 L 8.238281 -11.570312 L 8.238281 0 L 7.132812 0 L 7.019531 -1.039062 L 6.972656 -1.039062 C 6.648438 -0.703125 6.257812 -0.414062 5.808594 -0.171875 C 5.359375 0.0742188 4.890625 0.195312 4.402344 0.195312 C 3.882812 0.195312 3.414062 0.101562 3 -0.0820312 C 2.582031 -0.265625 2.222656 -0.535156 1.917969 -0.886719 C 1.613281 -1.238281 1.382812 -1.667969 1.21875 -2.175781 C 1.054688 -2.6875 0.976562 -3.273438 0.976562 -3.933594 Z M 2.355469 -3.949219 C 2.355469 -2.996094 2.558594 -2.253906 2.964844 -1.722656 C 3.371094 -1.191406 3.941406 -0.925781 4.679688 -0.925781 C 5.460938 -0.925781 6.203125 -1.320312 6.90625 -2.113281 L 6.90625 -6.046875 C 6.546875 -6.382812 6.199219 -6.621094 5.859375 -6.761719 C 5.515625 -6.902344 5.171875 -6.972656 4.828125 -6.972656 C 4.480469 -6.972656 4.15625 -6.898438 3.859375 -6.75 C 3.5625 -6.605469 3.300781 -6.398438 3.078125 -6.132812 C 2.855469 -5.867188 2.679688 -5.550781 2.550781 -5.183594 C 2.421875 -4.816406 2.355469 -4.402344 2.355469 -3.949219 Z M 2.355469 -3.949219 "/>
</symbol>
<symbol overflow="visible" id="glyph1-12">
<path style="stroke:none;" d="M 4.046875 -4.09375 L 1.265625 -7.898438 L 2.746094 -7.898438 L 3.996094 -6.160156 C 4.136719 -5.941406 4.289062 -5.71875 4.445312 -5.492188 C 4.601562 -5.265625 4.761719 -5.042969 4.921875 -4.828125 L 4.988281 -4.828125 C 5.140625 -5.042969 5.292969 -5.269531 5.445312 -5.507812 C 5.597656 -5.746094 5.742188 -5.972656 5.882812 -6.191406 L 7.070312 -7.898438 L 8.484375 -7.898438 L 5.671875 -3.980469 L 8.695312 0 L 7.230469 0 L 5.851562 -1.820312 C 5.6875 -2.046875 5.515625 -2.285156 5.339844 -2.535156 C 5.160156 -2.785156 4.984375 -3.023438 4.808594 -3.25 L 4.746094 -3.25 C 4.582031 -3.011719 4.421875 -2.777344 4.257812 -2.542969 C 4.09375 -2.308594 3.933594 -2.070312 3.769531 -1.820312 L 2.46875 0 L 1.039062 0 Z M 4.046875 -4.09375 "/>
</symbol>
<symbol overflow="visible" id="glyph1-13">
<path style="stroke:none;" d="M 1.671875 -10.660156 L 4.597656 -10.660156 C 5.140625 -10.660156 5.636719 -10.609375 6.085938 -10.515625 C 6.535156 -10.417969 6.917969 -10.265625 7.238281 -10.058594 C 7.558594 -9.851562 7.808594 -9.585938 7.988281 -9.253906 C 8.167969 -8.921875 8.253906 -8.527344 8.253906 -8.058594 C 8.253906 -7.527344 8.101562 -7.050781 7.792969 -6.621094 C 7.484375 -6.195312 7.015625 -5.898438 6.386719 -5.734375 L 6.386719 -5.671875 C 7.167969 -5.550781 7.773438 -5.28125 8.207031 -4.859375 C 8.640625 -4.4375 8.855469 -3.855469 8.855469 -3.121094 C 8.855469 -2.601562 8.757812 -2.144531 8.5625 -1.753906 C 8.367188 -1.363281 8.09375 -1.039062 7.742188 -0.78125 C 7.390625 -0.519531 6.96875 -0.324219 6.476562 -0.195312 C 5.984375 -0.0664062 5.4375 0 4.84375 0 L 1.671875 0 Z M 4.371094 -6.109375 C 5.28125 -6.109375 5.933594 -6.265625 6.328125 -6.582031 C 6.722656 -6.894531 6.921875 -7.351562 6.921875 -7.945312 C 6.921875 -8.53125 6.714844 -8.949219 6.296875 -9.207031 C 5.878906 -9.460938 5.257812 -9.585938 4.4375 -9.585938 L 3.039062 -9.585938 L 3.039062 -6.109375 Z M 4.648438 -1.074219 C 5.570312 -1.074219 6.277344 -1.242188 6.777344 -1.585938 C 7.273438 -1.925781 7.523438 -2.460938 7.523438 -3.183594 C 7.523438 -3.84375 7.28125 -4.332031 6.792969 -4.640625 C 6.304688 -4.949219 5.589844 -5.101562 4.648438 -5.101562 L 3.039062 -5.101562 L 3.039062 -1.074219 Z M 4.648438 -1.074219 "/>
</symbol>
<symbol overflow="visible" id="glyph2-0">
<path style="stroke:none;" d="M 0.753906 -8.042969 L 6.558594 -8.042969 L 6.558594 0 L 0.753906 0 Z M 3.109375 -4.144531 L 1.546875 -6.972656 L 1.546875 -1.339844 Z M 5.753906 -1.339844 L 5.753906 -6.972656 L 4.203125 -4.144531 Z M 5.203125 -0.707031 L 4.3125 -2.316406 L 3.679688 -3.570312 L 3.632812 -3.570312 L 2.972656 -2.316406 L 2.070312 -0.707031 Z M 3.679688 -4.714844 L 4.277344 -5.863281 L 5.082031 -7.3125 L 2.21875 -7.3125 L 3.023438 -5.863281 L 3.632812 -4.714844 Z M 3.679688 -4.714844 "/>
</symbol>
<symbol overflow="visible" id="glyph2-1">
<path style="stroke:none;" d="M 0.988281 -1.535156 C 0.988281 -1.867188 1.066406 -2.160156 1.226562 -2.40625 C 1.382812 -2.65625 1.636719 -2.867188 1.980469 -3.046875 C 2.324219 -3.226562 2.769531 -3.371094 3.316406 -3.484375 C 3.859375 -3.597656 4.511719 -3.6875 5.277344 -3.753906 C 5.269531 -3.957031 5.238281 -4.148438 5.179688 -4.328125 C 5.121094 -4.503906 5.035156 -4.660156 4.910156 -4.796875 C 4.789062 -4.929688 4.628906 -5.039062 4.429688 -5.117188 C 4.230469 -5.199219 3.988281 -5.242188 3.703125 -5.242188 C 3.3125 -5.242188 2.941406 -5.164062 2.582031 -5.015625 C 2.226562 -4.863281 1.910156 -4.703125 1.632812 -4.535156 L 1.242188 -5.214844 C 1.390625 -5.3125 1.5625 -5.414062 1.761719 -5.515625 C 1.960938 -5.617188 2.171875 -5.707031 2.394531 -5.789062 C 2.617188 -5.871094 2.855469 -5.9375 3.109375 -5.988281 C 3.359375 -6.042969 3.617188 -6.070312 3.875 -6.070312 C 4.6875 -6.070312 5.292969 -5.847656 5.683594 -5.40625 C 6.078125 -4.960938 6.277344 -4.371094 6.277344 -3.632812 L 6.277344 0 L 5.460938 0 L 5.375 -0.804688 L 5.339844 -0.804688 C 5.003906 -0.542969 4.636719 -0.320312 4.234375 -0.132812 C 3.832031 0.0546875 3.421875 0.144531 3 0.144531 C 2.722656 0.144531 2.460938 0.109375 2.21875 0.03125 C 1.972656 -0.046875 1.761719 -0.15625 1.578125 -0.296875 C 1.394531 -0.441406 1.25 -0.617188 1.144531 -0.824219 C 1.039062 -1.03125 0.988281 -1.265625 0.988281 -1.535156 Z M 1.960938 -1.609375 C 1.960938 -1.4375 2 -1.292969 2.070312 -1.175781 C 2.144531 -1.058594 2.242188 -0.960938 2.359375 -0.882812 C 2.476562 -0.804688 2.613281 -0.75 2.773438 -0.714844 C 2.929688 -0.675781 3.09375 -0.65625 3.265625 -0.65625 C 3.605469 -0.65625 3.941406 -0.734375 4.273438 -0.882812 C 4.601562 -1.035156 4.9375 -1.25 5.277344 -1.535156 L 5.277344 -3.09375 C 4.644531 -3.046875 4.113281 -2.976562 3.6875 -2.886719 C 3.261719 -2.796875 2.917969 -2.691406 2.664062 -2.566406 C 2.40625 -2.441406 2.226562 -2.296875 2.121094 -2.140625 C 2.015625 -1.980469 1.960938 -1.804688 1.960938 -1.609375 Z M 1.960938 -1.609375 "/>
</symbol>
<symbol overflow="visible" id="glyph2-2">
<path style="stroke:none;" d="M 1.132812 -8.675781 L 2.132812 -8.675781 L 2.132812 -6.3125 L 2.109375 -5.167969 C 2.394531 -5.445312 2.710938 -5.664062 3.066406 -5.824219 C 3.417969 -5.988281 3.769531 -6.070312 4.121094 -6.070312 C 4.519531 -6.070312 4.871094 -6 5.179688 -5.855469 C 5.488281 -5.714844 5.746094 -5.511719 5.953125 -5.246094 C 6.160156 -4.984375 6.316406 -4.664062 6.421875 -4.296875 C 6.527344 -3.925781 6.582031 -3.515625 6.582031 -3.058594 C 6.582031 -2.554688 6.507812 -2.105469 6.363281 -1.707031 C 6.214844 -1.308594 6.019531 -0.972656 5.769531 -0.695312 C 5.523438 -0.417969 5.238281 -0.210938 4.910156 -0.0664062 C 4.585938 0.0742188 4.25 0.144531 3.898438 0.144531 C 3.613281 0.144531 3.308594 0.0742188 2.980469 -0.0664062 C 2.652344 -0.210938 2.34375 -0.40625 2.058594 -0.65625 L 2.023438 -0.65625 L 1.9375 0 L 1.132812 0 Z M 2.132812 -1.390625 C 2.417969 -1.136719 2.703125 -0.957031 2.992188 -0.851562 C 3.28125 -0.746094 3.53125 -0.695312 3.742188 -0.695312 C 4 -0.695312 4.242188 -0.75 4.460938 -0.859375 C 4.679688 -0.96875 4.871094 -1.125 5.035156 -1.324219 C 5.195312 -1.523438 5.320312 -1.765625 5.410156 -2.058594 C 5.5 -2.351562 5.546875 -2.679688 5.546875 -3.046875 C 5.546875 -3.371094 5.511719 -3.667969 5.449219 -3.9375 C 5.382812 -4.203125 5.285156 -4.433594 5.148438 -4.625 C 5.015625 -4.816406 4.84375 -4.964844 4.632812 -5.070312 C 4.421875 -5.175781 4.167969 -5.226562 3.875 -5.226562 C 3.617188 -5.226562 3.335938 -5.15625 3.039062 -5.015625 C 2.742188 -4.875 2.441406 -4.648438 2.132812 -4.339844 Z M 2.132812 -1.390625 "/>
</symbol>
</g>
</defs>
<g id="surface221">
<g style="fill:rgb(0%,0%,0%);fill-opacity:1;">
  <use xlink:href="#glyph0-1" x="0" y="17"/>
</g>
<g style="fill:rgb(0%,0%,0%);fill-opacity:1;">
  <use xlink:href="#glyph1-1" x="14" y="19"/>
</g>
<g style="fill:rgb(0%,0%,0%);fill-opacity:1;">
  <use xlink:href="#glyph2-1" x="25" y="21.6775"/>
</g>
<g style="fill:rgb(0%,0%,0%);fill-opacity:1;">
  <use xlink:href="#glyph1-2" x="36" y="17"/>
</g>
<g style="fill:rgb(0%,0%,0%);fill-opacity:1;">
  <use xlink:href="#glyph1-3" x="56" y="19"/>
</g>
<g style="fill:rgb(0%,0%,0%);fill-opacity:1;">
  <use xlink:href="#glyph2-1" x="67" y="22"/>
</g>
<g style="fill:rgb(0%,0%,0%);fill-opacity:1;">
  <use xlink:href="#glyph2-2" x="74" y="22"/>
</g>
<g style="fill:rgb(0%,0%,0%);fill-opacity:1;">
  <use xlink:href="#glyph1-2" x="85" y="17"/>
</g>
<g style="fill:rgb(0%,0%,0%);fill-opacity:1;">
  <use xlink:href="#glyph0-2" x="101" y="17"/>
</g>
<g style="fill:rgb(0%,0%,0%);fill-opacity:1;">
  <use xlink:href="#glyph1-2" x="111" y="17"/>
</g>
<g style="fill:rgb(0%,0%,0%);fill-opacity:1;">
  <use xlink:href="#glyph1-4" x="127" y="17"/>
  <use xlink:href="#glyph1-5" x="136.75" y="17"/>
  <use xlink:href="#glyph1-6" x="146.5" y="17"/>
  <use xlink:href="#glyph1-7" x="156.25" y="17"/>
  <use xlink:href="#glyph1-8" x="166" y="17"/>
  <use xlink:href="#glyph1-9" x="175.75" y="17"/>
  <use xlink:href="#glyph1-10" x="185.5" y="17"/>
  <use xlink:href="#glyph1-6" x="195.25" y="17"/>
  <use xlink:href="#glyph1-11" x="205" y="17"/>
  <use xlink:href="#glyph1-5" x="214.75" y="17"/>
  <use xlink:href="#glyph1-12" x="224.5" y="17"/>
  <use xlink:href="#glyph1-5" x="234.25" y="17"/>
  <use xlink:href="#glyph1-11" x="244" y="17"/>
</g>
<g style="fill:rgb(0%,0%,0%);fill-opacity:1;">
  <use xlink:href="#glyph0-3" x="254" y="17"/>
</g>
<g style="fill:rgb(0%,0%,0%);fill-opacity:1;">
  <use xlink:href="#glyph1-13" x="264" y="17"/>
</g>
<g style="fill:rgb(0%,0%,0%);fill-opacity:1;">
  <use xlink:href="#glyph1-2" x="274" y="17"/>
</g>
<g style="fill:rgb(0%,0%,0%);fill-opacity:1;">
  <use xlink:href="#glyph1-13" x="290" y="17"/>
</g>
<g style="fill:rgb(0%,0%,0%);fill-opacity:1;">
  <use xlink:href="#glyph0-4" x="300" y="17"/>
</g>
<g style="fill:rgb(0%,0%,0%);fill-opacity:1;">
  <use xlink:href="#glyph0-5" x="310" y="17"/>
</g>
</g>
</svg>
