<?xml version="1.0" encoding="UTF-8"?>
<svg xmlns="http://www.w3.org/2000/svg" xmlns:xlink="http://www.w3.org/1999/xlink" viewBox="0 0 601 92" version="1.1">
<defs>
<g>
<symbol overflow="visible" id="glyph0-0">
<path style="stroke:none;" d="M 1.007812 -10.726562 L 8.742188 -10.726562 L 8.742188 0 L 1.007812 0 Z M 4.144531 -5.523438 L 2.0625 -9.296875 L 2.0625 -1.789062 Z M 7.671875 -1.789062 L 7.671875 -9.296875 L 5.605469 -5.523438 Z M 6.9375 -0.941406 L 5.753906 -3.085938 L 4.90625 -4.761719 L 4.84375 -4.761719 L 3.964844 -3.085938 L 2.761719 -0.941406 Z M 4.90625 -6.289062 L 5.703125 -7.816406 L 6.777344 -9.75 L 2.957031 -9.75 L 4.03125 -7.816406 L 4.84375 -6.289062 Z M 4.90625 -6.289062 "/>
</symbol>
<symbol overflow="visible" id="glyph0-1">
<path style="stroke:none;" d="M 2.195312 -10.660156 L 8.710938 -10.660156 L 8.710938 -9.523438 L 3.542969 -9.523438 L 3.542969 -5.914062 L 7.914062 -5.914062 L 7.914062 -4.777344 L 3.542969 -4.777344 L 3.542969 0 L 2.195312 0 Z M 2.195312 -10.660156 "/>
</symbol>
<symbol overflow="visible" id="glyph0-2">
<path style="stroke:none;" d="M 2.324219 1.316406 C 2.324219 1.726562 2.542969 2.0625 2.980469 2.324219 C 3.421875 2.582031 4.0625 2.714844 4.90625 2.714844 C 5.363281 2.714844 5.773438 2.667969 6.140625 2.574219 C 6.511719 2.484375 6.824219 2.363281 7.085938 2.210938 C 7.34375 2.058594 7.542969 1.886719 7.679688 1.691406 C 7.8125 1.496094 7.882812 1.292969 7.882812 1.089844 C 7.882812 0.710938 7.730469 0.453125 7.433594 0.324219 C 7.136719 0.195312 6.683594 0.128906 6.078125 0.128906 L 4.535156 0.128906 C 4.308594 0.128906 4.09375 0.121094 3.890625 0.105469 C 3.691406 0.0898438 3.503906 0.0546875 3.332031 0 C 2.953125 0.207031 2.6875 0.417969 2.542969 0.640625 C 2.398438 0.863281 2.324219 1.089844 2.324219 1.316406 Z M 1.171875 1.445312 C 1.171875 1.132812 1.28125 0.824219 1.503906 0.519531 C 1.726562 0.214844 2.046875 -0.0585938 2.46875 -0.308594 L 2.46875 -0.375 C 2.253906 -0.492188 2.0625 -0.65625 1.902344 -0.859375 C 1.738281 -1.066406 1.65625 -1.339844 1.65625 -1.671875 C 1.65625 -1.921875 1.738281 -2.179688 1.902344 -2.445312 C 2.0625 -2.710938 2.296875 -2.945312 2.601562 -3.152344 L 2.601562 -3.21875 C 2.328125 -3.421875 2.097656 -3.695312 1.910156 -4.039062 C 1.71875 -4.378906 1.625 -4.789062 1.625 -5.265625 C 1.625 -5.699219 1.707031 -6.089844 1.875 -6.433594 C 2.042969 -6.78125 2.269531 -7.078125 2.550781 -7.320312 C 2.832031 -7.5625 3.160156 -7.753906 3.535156 -7.890625 C 3.910156 -8.023438 4.304688 -8.09375 4.730469 -8.09375 C 5.164062 -8.09375 5.550781 -8.027344 5.898438 -7.898438 L 9.164062 -7.898438 L 9.164062 -6.875 L 7.050781 -6.875 C 7.234375 -6.679688 7.40625 -6.441406 7.554688 -6.160156 C 7.707031 -5.878906 7.785156 -5.5625 7.785156 -5.214844 C 7.785156 -4.792969 7.707031 -4.414062 7.546875 -4.078125 C 7.390625 -3.742188 7.175781 -3.457031 6.898438 -3.226562 C 6.621094 -2.992188 6.296875 -2.8125 5.921875 -2.6875 C 5.550781 -2.5625 5.152344 -2.503906 4.730469 -2.503906 C 4.523438 -2.503906 4.304688 -2.527344 4.070312 -2.574219 C 3.835938 -2.625 3.613281 -2.699219 3.394531 -2.796875 C 2.984375 -2.535156 2.777344 -2.230469 2.777344 -1.886719 C 2.777344 -1.570312 2.921875 -1.339844 3.210938 -1.195312 C 3.496094 -1.046875 3.898438 -0.976562 4.421875 -0.976562 L 6.191406 -0.976562 C 7.210938 -0.976562 7.964844 -0.835938 8.457031 -0.550781 C 8.949219 -0.269531 9.199219 0.207031 9.199219 0.878906 C 9.199219 1.246094 9.09375 1.597656 8.890625 1.933594 C 8.683594 2.269531 8.390625 2.5625 8.011719 2.8125 C 7.632812 3.0625 7.171875 3.261719 6.628906 3.414062 C 6.089844 3.566406 5.480469 3.640625 4.808594 3.640625 C 3.648438 3.640625 2.753906 3.449219 2.121094 3.070312 C 1.488281 2.691406 1.171875 2.152344 1.171875 1.445312 Z M 4.730469 -3.394531 C 5.238281 -3.394531 5.667969 -3.5625 6.019531 -3.898438 C 6.371094 -4.234375 6.546875 -4.691406 6.546875 -5.265625 C 6.546875 -5.535156 6.5 -5.785156 6.402344 -6.011719 C 6.304688 -6.238281 6.175781 -6.433594 6.011719 -6.597656 C 5.851562 -6.761719 5.65625 -6.886719 5.4375 -6.980469 C 5.214844 -7.070312 4.976562 -7.117188 4.730469 -7.117188 C 4.480469 -7.117188 4.242188 -7.070312 4.023438 -6.980469 C 3.800781 -6.886719 3.609375 -6.761719 3.445312 -6.597656 C 3.28125 -6.433594 3.152344 -6.238281 3.054688 -6.011719 C 2.957031 -5.785156 2.910156 -5.535156 2.910156 -5.265625 C 2.910156 -4.691406 3.085938 -4.234375 3.445312 -3.898438 C 3.800781 -3.5625 4.230469 -3.394531 4.730469 -3.394531 Z M 4.730469 -3.394531 "/>
</symbol>
<symbol overflow="visible" id="glyph0-3">
<path style="stroke:none;" d="M 5.980469 -3.933594 L 5.980469 -7.148438 C 5.992188 -7.429688 6 -7.738281 6.011719 -8.066406 C 6.023438 -8.398438 6.039062 -8.703125 6.0625 -8.984375 L 5.980469 -8.984375 C 5.816406 -8.738281 5.644531 -8.484375 5.460938 -8.230469 C 5.277344 -7.976562 5.097656 -7.722656 4.921875 -7.476562 L 2.113281 -3.933594 Z M 8.855469 -2.859375 L 7.246094 -2.859375 L 7.246094 0 L 5.980469 0 L 5.980469 -2.859375 L 0.632812 -2.859375 L 0.632812 -3.753906 L 5.816406 -10.367188 L 7.246094 -10.367188 L 7.246094 -3.933594 L 8.855469 -3.933594 Z M 8.855469 -2.859375 "/>
</symbol>
<symbol overflow="visible" id="glyph0-4">
<path style="stroke:none;" d="M 0.976562 -3.933594 C 0.976562 -4.570312 1.074219 -5.148438 1.277344 -5.664062 C 1.476562 -6.179688 1.742188 -6.613281 2.070312 -6.972656 C 2.402344 -7.328125 2.785156 -7.605469 3.21875 -7.800781 C 3.652344 -7.996094 4.101562 -8.09375 4.566406 -8.09375 C 5.054688 -8.09375 5.480469 -8 5.851562 -7.816406 C 6.21875 -7.632812 6.585938 -7.382812 6.953125 -7.070312 L 6.90625 -8.53125 L 6.90625 -11.570312 L 8.238281 -11.570312 L 8.238281 0 L 7.132812 0 L 7.019531 -1.039062 L 6.972656 -1.039062 C 6.648438 -0.703125 6.257812 -0.414062 5.808594 -0.171875 C 5.359375 0.0742188 4.890625 0.195312 4.402344 0.195312 C 3.882812 0.195312 3.414062 0.101562 3 -0.0820312 C 2.582031 -0.265625 2.222656 -0.535156 1.917969 -0.886719 C 1.613281 -1.238281 1.382812 -1.667969 1.21875 -2.175781 C 1.054688 -2.6875 0.976562 -3.273438 0.976562 -3.933594 Z M 2.355469 -3.949219 C 2.355469 -2.996094 2.558594 -2.253906 2.964844 -1.722656 C 3.371094 -1.191406 3.941406 -0.925781 4.679688 -0.925781 C 5.460938 -0.925781 6.203125 -1.320312 6.90625 -2.113281 L 6.90625 -6.046875 C 6.546875 -6.382812 6.199219 -6.621094 5.859375 -6.761719 C 5.515625 -6.902344 5.171875 -6.972656 4.828125 -6.972656 C 4.480469 -6.972656 4.15625 -6.898438 3.859375 -6.75 C 3.5625 -6.605469 3.300781 -6.398438 3.078125 -6.132812 C 2.855469 -5.867188 2.679688 -5.550781 2.550781 -5.183594 C 2.421875 -4.816406 2.355469 -4.402344 2.355469 -3.949219 Z M 2.355469 -3.949219 "/>
</symbol>
<symbol overflow="visible" id="glyph0-5">
<path style="stroke:none;" d="M 1.300781 -3.933594 C 1.300781 -4.59375 1.417969 -5.179688 1.648438 -5.695312 C 1.882812 -6.210938 2.199219 -6.644531 2.601562 -7.003906 C 3 -7.359375 3.46875 -7.632812 4.003906 -7.816406 C 4.542969 -8 5.109375 -8.09375 5.703125 -8.09375 C 6.355469 -8.09375 6.914062 -7.980469 7.386719 -7.75 C 7.855469 -7.523438 8.253906 -7.253906 8.578125 -6.9375 L 7.914062 -6.078125 C 7.589844 -6.359375 7.25 -6.582031 6.898438 -6.742188 C 6.546875 -6.90625 6.164062 -6.988281 5.753906 -6.988281 C 5.296875 -6.988281 4.878906 -6.914062 4.5 -6.769531 C 4.121094 -6.621094 3.800781 -6.414062 3.535156 -6.140625 C 3.269531 -5.871094 3.058594 -5.550781 2.910156 -5.175781 C 2.757812 -4.800781 2.679688 -4.386719 2.679688 -3.933594 C 2.679688 -3.476562 2.753906 -3.066406 2.902344 -2.699219 C 3.046875 -2.328125 3.253906 -2.011719 3.519531 -1.746094 C 3.785156 -1.480469 4.101562 -1.277344 4.476562 -1.128906 C 4.851562 -0.984375 5.265625 -0.910156 5.71875 -0.910156 C 6.207031 -0.910156 6.65625 -1.003906 7.0625 -1.195312 C 7.46875 -1.382812 7.839844 -1.621094 8.171875 -1.902344 L 8.757812 -1.039062 C 8.324219 -0.648438 7.839844 -0.347656 7.304688 -0.128906 C 6.769531 0.0859375 6.207031 0.195312 5.621094 0.195312 C 5.003906 0.195312 4.433594 0.101562 3.90625 -0.0820312 C 3.382812 -0.265625 2.925781 -0.535156 2.535156 -0.886719 C 2.144531 -1.238281 1.839844 -1.671875 1.625 -2.1875 C 1.410156 -2.699219 1.300781 -3.28125 1.300781 -3.933594 Z M 1.300781 -3.933594 "/>
</symbol>
<symbol overflow="visible" id="glyph0-6">
<path style="stroke:none;" d="M 1.1875 -0.796875 C 2.0625 -1.578125 2.839844 -2.28125 3.519531 -2.910156 C 4.195312 -3.539062 4.765625 -4.113281 5.222656 -4.640625 C 5.683594 -5.164062 6.035156 -5.65625 6.273438 -6.109375 C 6.511719 -6.566406 6.628906 -7.007812 6.628906 -7.441406 C 6.628906 -8.039062 6.445312 -8.527344 6.078125 -8.90625 C 5.710938 -9.285156 5.140625 -9.472656 4.371094 -9.472656 C 3.882812 -9.472656 3.429688 -9.351562 3.015625 -9.109375 C 2.597656 -8.863281 2.222656 -8.570312 1.886719 -8.222656 L 1.121094 -8.984375 C 1.585938 -9.460938 2.089844 -9.84375 2.625 -10.132812 C 3.160156 -10.417969 3.796875 -10.5625 4.535156 -10.5625 C 5.054688 -10.5625 5.523438 -10.488281 5.9375 -10.34375 C 6.355469 -10.195312 6.710938 -9.992188 7.003906 -9.726562 C 7.296875 -9.460938 7.519531 -9.136719 7.679688 -8.757812 C 7.835938 -8.378906 7.914062 -7.960938 7.914062 -7.507812 C 7.914062 -7.019531 7.796875 -6.53125 7.5625 -6.035156 C 7.332031 -5.542969 7.003906 -5.035156 6.582031 -4.507812 C 6.160156 -3.984375 5.65625 -3.4375 5.070312 -2.867188 C 4.484375 -2.300781 3.839844 -1.695312 3.136719 -1.054688 C 3.449219 -1.078125 3.773438 -1.097656 4.101562 -1.121094 C 4.433594 -1.144531 4.753906 -1.152344 5.070312 -1.152344 L 8.484375 -1.152344 L 8.484375 0 L 1.1875 0 Z M 1.1875 -0.796875 "/>
</symbol>
<symbol overflow="visible" id="glyph0-7">
<path style="stroke:none;" d="M 2.972656 -5.605469 L 4.746094 -5.605469 C 5.578125 -5.605469 6.214844 -5.777344 6.65625 -6.117188 C 7.09375 -6.460938 7.3125 -6.976562 7.3125 -7.671875 C 7.3125 -8.375 7.09375 -8.867188 6.65625 -9.148438 C 6.214844 -9.429688 5.578125 -9.570312 4.746094 -9.570312 L 2.972656 -9.570312 Z M 7.441406 0 L 4.875 -4.5 L 2.972656 -4.5 L 2.972656 0 L 1.625 0 L 1.625 -10.660156 L 4.941406 -10.660156 C 5.480469 -10.660156 5.980469 -10.609375 6.433594 -10.503906 C 6.890625 -10.402344 7.28125 -10.230469 7.613281 -9.992188 C 7.945312 -9.753906 8.199219 -9.445312 8.386719 -9.066406 C 8.570312 -8.6875 8.660156 -8.222656 8.660156 -7.671875 C 8.660156 -6.835938 8.445312 -6.167969 8.011719 -5.671875 C 7.578125 -5.171875 7 -4.832031 6.273438 -4.648438 L 8.984375 0 Z M 7.441406 0 "/>
</symbol>
<symbol overflow="visible" id="glyph0-8">
<path style="stroke:none;" d="M 8.578125 -1.105469 L 8.578125 0 L 1.59375 0 L 1.59375 -1.105469 L 4.535156 -1.105469 L 4.535156 -8.742188 L 2.324219 -8.742188 L 2.324219 -9.605469 C 2.875 -9.691406 3.359375 -9.796875 3.769531 -9.921875 C 4.179688 -10.046875 4.550781 -10.195312 4.875 -10.367188 L 5.867188 -10.367188 L 5.867188 -1.105469 Z M 8.578125 -1.105469 "/>
</symbol>
<symbol overflow="visible" id="glyph1-0">
<path style="stroke:none;" d="M 0.753906 -8.042969 L 6.558594 -8.042969 L 6.558594 0 L 0.753906 0 Z M 3.109375 -4.144531 L 1.546875 -6.972656 L 1.546875 -1.339844 Z M 5.753906 -1.339844 L 5.753906 -6.972656 L 4.203125 -4.144531 Z M 5.203125 -0.707031 L 4.3125 -2.316406 L 3.679688 -3.570312 L 3.632812 -3.570312 L 2.972656 -2.316406 L 2.070312 -0.707031 Z M 3.679688 -4.714844 L 4.277344 -5.863281 L 5.082031 -7.3125 L 2.21875 -7.3125 L 3.023438 -5.863281 L 3.632812 -4.714844 Z M 3.679688 -4.714844 "/>
</symbol>
<symbol overflow="visible" id="glyph1-1">
<path style="stroke:none;" d="M 0.976562 -2.949219 C 0.976562 -3.445312 1.0625 -3.886719 1.238281 -4.273438 C 1.414062 -4.660156 1.648438 -4.984375 1.949219 -5.253906 C 2.25 -5.519531 2.601562 -5.722656 3.003906 -5.863281 C 3.40625 -6 3.832031 -6.070312 4.277344 -6.070312 C 4.765625 -6.070312 5.1875 -5.984375 5.539062 -5.8125 C 5.894531 -5.640625 6.191406 -5.441406 6.433594 -5.203125 L 5.933594 -4.558594 C 5.691406 -4.769531 5.4375 -4.9375 5.171875 -5.058594 C 4.910156 -5.179688 4.625 -5.242188 4.3125 -5.242188 C 3.972656 -5.242188 3.660156 -5.1875 3.375 -5.074219 C 3.089844 -4.964844 2.851562 -4.808594 2.652344 -4.605469 C 2.453125 -4.402344 2.296875 -4.160156 2.179688 -3.882812 C 2.066406 -3.601562 2.011719 -3.289062 2.011719 -2.949219 C 2.011719 -2.609375 2.066406 -2.300781 2.175781 -2.023438 C 2.285156 -1.746094 2.441406 -1.507812 2.636719 -1.308594 C 2.835938 -1.109375 3.078125 -0.957031 3.359375 -0.847656 C 3.636719 -0.738281 3.949219 -0.683594 4.289062 -0.683594 C 4.65625 -0.683594 4.992188 -0.753906 5.296875 -0.894531 C 5.601562 -1.039062 5.878906 -1.214844 6.128906 -1.425781 L 6.570312 -0.78125 C 6.246094 -0.488281 5.878906 -0.261719 5.476562 -0.0976562 C 5.074219 0.0664062 4.65625 0.144531 4.21875 0.144531 C 3.753906 0.144531 3.324219 0.078125 2.929688 -0.0625 C 2.535156 -0.199219 2.195312 -0.398438 1.902344 -0.664062 C 1.609375 -0.929688 1.382812 -1.253906 1.21875 -1.640625 C 1.054688 -2.027344 0.976562 -2.460938 0.976562 -2.949219 Z M 0.976562 -2.949219 "/>
</symbol>
<symbol overflow="visible" id="glyph1-2">
<path style="stroke:none;" d="M 0.988281 -1.535156 C 0.988281 -1.867188 1.066406 -2.160156 1.226562 -2.40625 C 1.382812 -2.65625 1.636719 -2.867188 1.980469 -3.046875 C 2.324219 -3.226562 2.769531 -3.371094 3.316406 -3.484375 C 3.859375 -3.597656 4.511719 -3.6875 5.277344 -3.753906 C 5.269531 -3.957031 5.238281 -4.148438 5.179688 -4.328125 C 5.121094 -4.503906 5.035156 -4.660156 4.910156 -4.796875 C 4.789062 -4.929688 4.628906 -5.039062 4.429688 -5.117188 C 4.230469 -5.199219 3.988281 -5.242188 3.703125 -5.242188 C 3.3125 -5.242188 2.941406 -5.164062 2.582031 -5.015625 C 2.226562 -4.863281 1.910156 -4.703125 1.632812 -4.535156 L 1.242188 -5.214844 C 1.390625 -5.3125 1.5625 -5.414062 1.761719 -5.515625 C 1.960938 -5.617188 2.171875 -5.707031 2.394531 -5.789062 C 2.617188 -5.871094 2.855469 -5.9375 3.109375 -5.988281 C 3.359375 -6.042969 3.617188 -6.070312 3.875 -6.070312 C 4.6875 -6.070312 5.292969 -5.847656 5.683594 -5.40625 C 6.078125 -4.960938 6.277344 -4.371094 6.277344 -3.632812 L 6.277344 0 L 5.460938 0 L 5.375 -0.804688 L 5.339844 -0.804688 C 5.003906 -0.542969 4.636719 -0.320312 4.234375 -0.132812 C 3.832031 0.0546875 3.421875 0.144531 3 0.144531 C 2.722656 0.144531 2.460938 0.109375 2.21875 0.03125 C 1.972656 -0.046875 1.761719 -0.15625 1.578125 -0.296875 C 1.394531 -0.441406 1.25 -0.617188 1.144531 -0.824219 C 1.039062 -1.03125 0.988281 -1.265625 0.988281 -1.535156 Z M 1.960938 -1.609375 C 1.960938 -1.4375 2 -1.292969 2.070312 -1.175781 C 2.144531 -1.058594 2.242188 -0.960938 2.359375 -0.882812 C 2.476562 -0.804688 2.613281 -0.75 2.773438 -0.714844 C 2.929688 -0.675781 3.09375 -0.65625 3.265625 -0.65625 C 3.605469 -0.65625 3.941406 -0.734375 4.273438 -0.882812 C 4.601562 -1.035156 4.9375 -1.25 5.277344 -1.535156 L 5.277344 -3.09375 C 4.644531 -3.046875 4.113281 -2.976562 3.6875 -2.886719 C 3.261719 -2.796875 2.917969 -2.691406 2.664062 -2.566406 C 2.40625 -2.441406 2.226562 -2.296875 2.121094 -2.140625 C 2.015625 -1.980469 1.960938 -1.804688 1.960938 -1.609375 Z M 1.960938 -1.609375 "/>
</symbol>
<symbol overflow="visible" id="glyph1-3">
<path style="stroke:none;" d="M 1.132812 -8.675781 L 2.132812 -8.675781 L 2.132812 -6.3125 L 2.109375 -5.167969 C 2.394531 -5.445312 2.710938 -5.664062 3.066406 -5.824219 C 3.417969 -5.988281 3.769531 -6.070312 4.121094 -6.070312 C 4.519531 -6.070312 4.871094 -6 5.179688 -5.855469 C 5.488281 -5.714844 5.746094 -5.511719 5.953125 -5.246094 C 6.160156 -4.984375 6.316406 -4.664062 6.421875 -4.296875 C 6.527344 -3.925781 6.582031 -3.515625 6.582031 -3.058594 C 6.582031 -2.554688 6.507812 -2.105469 6.363281 -1.707031 C 6.214844 -1.308594 6.019531 -0.972656 5.769531 -0.695312 C 5.523438 -0.417969 5.238281 -0.210938 4.910156 -0.0664062 C 4.585938 0.0742188 4.25 0.144531 3.898438 0.144531 C 3.613281 0.144531 3.308594 0.0742188 2.980469 -0.0664062 C 2.652344 -0.210938 2.34375 -0.40625 2.058594 -0.65625 L 2.023438 -0.65625 L 1.9375 0 L 1.132812 0 Z M 2.132812 -1.390625 C 2.417969 -1.136719 2.703125 -0.957031 2.992188 -0.851562 C 3.28125 -0.746094 3.53125 -0.695312 3.742188 -0.695312 C 4 -0.695312 4.242188 -0.75 4.460938 -0.859375 C 4.679688 -0.96875 4.871094 -1.125 5.035156 -1.324219 C 5.195312 -1.523438 5.320312 -1.765625 5.410156 -2.058594 C 5.5 -2.351562 5.546875 -2.679688 5.546875 -3.046875 C 5.546875 -3.371094 5.511719 -3.667969 5.449219 -3.9375 C 5.382812 -4.203125 5.285156 -4.433594 5.148438 -4.625 C 5.015625 -4.816406 4.84375 -4.964844 4.632812 -5.070312 C 4.421875 -5.175781 4.167969 -5.226562 3.875 -5.226562 C 3.617188 -5.226562 3.335938 -5.15625 3.039062 -5.015625 C 2.742188 -4.875 2.441406 -4.648438 2.132812 -4.339844 Z M 2.132812 -1.390625 "/>
</symbol>
<symbol overflow="visible" id="glyph1-4">
<path style="stroke:none;" d="M 0.730469 -2.949219 C 0.730469 -3.429688 0.804688 -3.863281 0.957031 -4.246094 C 1.105469 -4.632812 1.304688 -4.960938 1.554688 -5.226562 C 1.800781 -5.496094 2.089844 -5.703125 2.414062 -5.851562 C 2.738281 -5.996094 3.074219 -6.070312 3.425781 -6.070312 C 3.789062 -6.070312 4.109375 -6 4.386719 -5.863281 C 4.664062 -5.722656 4.941406 -5.539062 5.214844 -5.300781 L 5.179688 -6.398438 L 5.179688 -8.675781 L 6.179688 -8.675781 L 6.179688 0 L 5.351562 0 L 5.265625 -0.78125 L 5.226562 -0.78125 C 4.984375 -0.527344 4.695312 -0.3125 4.355469 -0.128906 C 4.019531 0.0546875 3.667969 0.144531 3.304688 0.144531 C 2.914062 0.144531 2.5625 0.078125 2.25 -0.0625 C 1.9375 -0.199219 1.664062 -0.398438 1.4375 -0.664062 C 1.210938 -0.929688 1.035156 -1.25 0.914062 -1.632812 C 0.792969 -2.015625 0.730469 -2.453125 0.730469 -2.949219 Z M 1.765625 -2.960938 C 1.765625 -2.246094 1.917969 -1.691406 2.222656 -1.292969 C 2.527344 -0.894531 2.957031 -0.695312 3.511719 -0.695312 C 4.09375 -0.695312 4.652344 -0.992188 5.179688 -1.585938 L 5.179688 -4.535156 C 4.910156 -4.785156 4.648438 -4.964844 4.394531 -5.070312 C 4.136719 -5.175781 3.878906 -5.226562 3.621094 -5.226562 C 3.359375 -5.226562 3.117188 -5.171875 2.894531 -5.0625 C 2.671875 -4.953125 2.476562 -4.800781 2.308594 -4.601562 C 2.144531 -4.402344 2.011719 -4.164062 1.914062 -3.886719 C 1.816406 -3.609375 1.765625 -3.304688 1.765625 -2.960938 Z M 1.765625 -2.960938 "/>
</symbol>
<symbol overflow="visible" id="glyph2-0">
<path style="stroke:none;" d="M 1.015625 0 L 1.015625 -12.449219 L 7.109375 -12.449219 L 7.109375 0 Z M 2.03125 -1.015625 L 6.09375 -1.015625 L 6.09375 -11.433594 L 2.03125 -11.433594 Z M 2.03125 -1.015625 "/>
</symbol>
<symbol overflow="visible" id="glyph2-1">
<path style="stroke:none;" d="M 8.125 -3.285156 L 1.625 -3.285156 L 1.625 -3.878906 L 8.125 -3.878906 Z M 8.125 -3.285156 "/>
</symbol>
<symbol overflow="visible" id="glyph2-2">
<path style="stroke:none;" d="M 7.425781 -10.15625 C 6.972656 -9.300781 6.492188 -8.238281 5.988281 -6.976562 C 5.480469 -5.714844 5.230469 -4.582031 5.230469 -3.578125 C 5.230469 -2.414062 5.445312 -1.277344 5.878906 -0.171875 C 6.3125 0.9375 6.796875 1.996094 7.332031 3.007812 L 6.808594 3.007812 C 6.1875 2.054688 5.65625 1.011719 5.203125 -0.125 C 4.753906 -1.261719 4.53125 -2.414062 4.53125 -3.578125 C 4.53125 -4.777344 4.765625 -5.929688 5.242188 -7.03125 C 5.714844 -8.128906 6.269531 -9.171875 6.902344 -10.15625 Z M 7.425781 -10.15625 "/>
</symbol>
<symbol overflow="visible" id="glyph2-3">
<path style="stroke:none;" d="M 8.125 -3.285156 L 5.164062 -3.285156 L 5.164062 -0.324219 L 4.5625 -0.324219 L 4.5625 -3.285156 L 1.625 -3.285156 L 1.625 -3.878906 L 4.5625 -3.878906 L 4.5625 -6.824219 L 5.164062 -6.824219 L 5.164062 -3.878906 L 8.125 -3.878906 Z M 8.125 -3.285156 "/>
</symbol>
<symbol overflow="visible" id="glyph2-4">
<path style="stroke:none;" d="M 5.230469 -3.578125 C 5.230469 -2.402344 5 -1.242188 4.539062 -0.09375 C 4.078125 1.054688 3.550781 2.085938 2.960938 3.007812 L 2.4375 3.007812 C 3.003906 1.914062 3.492188 0.851562 3.90625 -0.171875 C 4.324219 -1.195312 4.53125 -2.332031 4.53125 -3.578125 C 4.53125 -4.777344 4.296875 -5.929688 3.824219 -7.03125 C 3.355469 -8.128906 2.859375 -9.171875 2.339844 -10.15625 L 2.855469 -10.15625 C 3.496094 -9.183594 4.050781 -8.140625 4.523438 -7.03125 C 4.992188 -5.917969 5.230469 -4.769531 5.230469 -3.578125 Z M 5.230469 -3.578125 "/>
</symbol>
<symbol overflow="visible" id="glyph2-5">
<path style="stroke:none;" d="M 7.492188 6.695312 L 6.972656 6.695312 C 6.152344 4.902344 5.539062 3.128906 5.128906 1.375 C 4.71875 -0.378906 4.515625 -2.023438 4.515625 -3.5625 C 4.515625 -5.34375 4.722656 -7.042969 5.136719 -8.652344 C 5.550781 -10.261719 6.164062 -11.988281 6.972656 -13.828125 L 7.492188 -13.828125 C 6.867188 -12.371094 6.332031 -10.746094 5.882812 -8.957031 C 5.4375 -7.167969 5.214844 -5.378906 5.214844 -3.578125 C 5.214844 -2.023438 5.367188 -0.46875 5.675781 1.089844 C 5.984375 2.648438 6.589844 4.515625 7.492188 6.695312 Z M 7.492188 6.695312 "/>
</symbol>
<symbol overflow="visible" id="glyph2-6">
<path style="stroke:none;" d="M 8.902344 -4.285156 C 8.902344 -2.925781 8.464844 -1.84375 7.589844 -1.039062 C 6.714844 -0.234375 5.644531 0.183594 4.378906 0.222656 L 3.9375 2.308594 L 3.347656 2.308594 L 3.792969 0.214844 C 2.925781 0.144531 2.222656 -0.167969 1.691406 -0.730469 C 1.15625 -1.289062 0.890625 -2.054688 0.890625 -3.023438 C 0.890625 -4.207031 1.300781 -5.210938 2.128906 -6.035156 C 2.957031 -6.855469 4.050781 -7.300781 5.410156 -7.363281 L 6.015625 -10.21875 L 6.59375 -10.21875 L 5.992188 -7.363281 C 6.816406 -7.304688 7.507812 -7.007812 8.066406 -6.464844 C 8.625 -5.925781 8.902344 -5.199219 8.902344 -4.285156 Z M 5.292969 -6.808594 C 4.144531 -6.75 3.238281 -6.347656 2.574219 -5.601562 C 1.910156 -4.855469 1.578125 -4.003906 1.578125 -3.046875 C 1.578125 -2.238281 1.808594 -1.597656 2.265625 -1.121094 C 2.722656 -0.648438 3.273438 -0.382812 3.910156 -0.324219 Z M 8.203125 -4.164062 C 8.203125 -4.992188 7.984375 -5.621094 7.546875 -6.058594 C 7.105469 -6.496094 6.546875 -6.742188 5.871094 -6.800781 L 4.492188 -0.324219 C 5.628906 -0.382812 6.53125 -0.769531 7.199219 -1.488281 C 7.871094 -2.203125 8.203125 -3.097656 8.203125 -4.164062 Z M 8.203125 -4.164062 "/>
</symbol>
<symbol overflow="visible" id="glyph2-7">
<path style="stroke:none;" d="M 9.101562 -8.933594 L 4.871094 0.246094 L 0.652344 -8.933594 Z M 8.203125 -8.386719 L 1.546875 -8.386719 L 4.871094 -1.132812 Z M 8.203125 -8.386719 "/>
</symbol>
<symbol overflow="visible" id="glyph2-8">
<path style="stroke:none;" d="M 5.230469 -3.5625 C 5.230469 -1.9375 5 -0.214844 4.546875 1.605469 C 4.089844 3.429688 3.5 5.125 2.777344 6.695312 L 2.261719 6.695312 C 3.003906 4.882812 3.566406 3.132812 3.953125 1.449219 C 4.339844 -0.234375 4.53125 -1.914062 4.53125 -3.578125 C 4.53125 -5.101562 4.363281 -6.675781 4.03125 -8.304688 C 3.699219 -9.929688 3.109375 -11.773438 2.261719 -13.828125 L 2.777344 -13.828125 C 3.574219 -12.035156 4.183594 -10.300781 4.601562 -8.617188 C 5.019531 -6.933594 5.230469 -5.25 5.230469 -3.5625 Z M 5.230469 -3.5625 "/>
</symbol>
<symbol overflow="visible" id="glyph3-0">
<path style="stroke:none;" d="M 0.714844 -7.613281 L 6.207031 -7.613281 L 6.207031 0 L 0.714844 0 Z M 2.941406 -3.921875 L 1.464844 -6.597656 L 1.464844 -1.269531 Z M 5.445312 -1.269531 L 5.445312 -6.597656 L 3.980469 -3.921875 Z M 4.925781 -0.667969 L 4.085938 -2.191406 L 3.484375 -3.378906 L 3.4375 -3.378906 L 2.816406 -2.191406 L 1.960938 -0.667969 Z M 3.484375 -4.464844 L 4.050781 -5.550781 L 4.8125 -6.921875 L 2.101562 -6.921875 L 2.859375 -5.550781 L 3.4375 -4.464844 Z M 3.484375 -4.464844 "/>
</symbol>
<symbol overflow="visible" id="glyph3-1">
<path style="stroke:none;" d="M 6.09375 -0.785156 L 6.09375 0 L 1.128906 0 L 1.128906 -0.785156 L 3.21875 -0.785156 L 3.21875 -6.207031 L 1.648438 -6.207031 L 1.648438 -6.820312 C 2.042969 -6.878906 2.382812 -6.957031 2.675781 -7.042969 C 2.96875 -7.132812 3.230469 -7.238281 3.460938 -7.359375 L 4.164062 -7.359375 L 4.164062 -0.785156 Z M 6.09375 -0.785156 "/>
</symbol>
<symbol overflow="visible" id="glyph3-2">
<path style="stroke:none;" d="M 4.246094 -2.792969 L 4.246094 -5.078125 C 4.253906 -5.277344 4.261719 -5.492188 4.269531 -5.726562 C 4.277344 -5.960938 4.289062 -6.179688 4.304688 -6.378906 L 4.246094 -6.378906 C 4.128906 -6.203125 4.007812 -6.023438 3.875 -5.84375 C 3.746094 -5.664062 3.617188 -5.484375 3.496094 -5.308594 L 1.5 -2.792969 Z M 6.289062 -2.03125 L 5.144531 -2.03125 L 5.144531 0 L 4.246094 0 L 4.246094 -2.03125 L 0.449219 -2.03125 L 0.449219 -2.664062 L 4.128906 -7.359375 L 5.144531 -7.359375 L 5.144531 -2.792969 L 6.289062 -2.792969 Z M 6.289062 -2.03125 "/>
</symbol>
<symbol overflow="visible" id="glyph3-3">
<path style="stroke:none;" d="M 0.84375 -0.566406 C 1.464844 -1.121094 2.015625 -1.617188 2.496094 -2.066406 C 2.976562 -2.511719 3.382812 -2.921875 3.710938 -3.292969 C 4.035156 -3.667969 4.285156 -4.015625 4.453125 -4.339844 C 4.621094 -4.660156 4.707031 -4.976562 4.707031 -5.285156 C 4.707031 -5.707031 4.578125 -6.054688 4.316406 -6.324219 C 4.054688 -6.59375 3.648438 -6.726562 3.105469 -6.726562 C 2.757812 -6.726562 2.4375 -6.640625 2.140625 -6.464844 C 1.84375 -6.292969 1.578125 -6.085938 1.339844 -5.839844 L 0.796875 -6.378906 C 1.128906 -6.71875 1.484375 -6.988281 1.863281 -7.195312 C 2.242188 -7.398438 2.695312 -7.5 3.21875 -7.5 C 3.589844 -7.5 3.921875 -7.449219 4.21875 -7.34375 C 4.515625 -7.238281 4.765625 -7.09375 4.972656 -6.90625 C 5.179688 -6.71875 5.339844 -6.488281 5.453125 -6.21875 C 5.5625 -5.949219 5.617188 -5.652344 5.617188 -5.332031 C 5.617188 -4.984375 5.535156 -4.636719 5.371094 -4.285156 C 5.207031 -3.9375 4.972656 -3.574219 4.671875 -3.203125 C 4.371094 -2.828125 4.015625 -2.441406 3.601562 -2.035156 C 3.183594 -1.632812 2.726562 -1.203125 2.226562 -0.75 C 2.449219 -0.765625 2.679688 -0.78125 2.914062 -0.796875 C 3.148438 -0.8125 3.375 -0.820312 3.601562 -0.820312 L 6.023438 -0.820312 L 6.023438 0 L 0.84375 0 Z M 0.84375 -0.566406 "/>
</symbol>
<symbol overflow="visible" id="glyph3-4">
<path style="stroke:none;" d="M 0.933594 -1.453125 C 0.933594 -1.769531 1.007812 -2.042969 1.160156 -2.277344 C 1.308594 -2.511719 1.546875 -2.714844 1.875 -2.882812 C 2.203125 -3.054688 2.621094 -3.191406 3.136719 -3.300781 C 3.652344 -3.40625 4.273438 -3.492188 4.996094 -3.554688 C 4.988281 -3.746094 4.957031 -3.925781 4.902344 -4.097656 C 4.847656 -4.265625 4.765625 -4.414062 4.648438 -4.539062 C 4.535156 -4.667969 4.382812 -4.769531 4.195312 -4.847656 C 4.007812 -4.921875 3.777344 -4.960938 3.507812 -4.960938 C 3.136719 -4.960938 2.785156 -4.890625 2.445312 -4.746094 C 2.105469 -4.605469 1.808594 -4.453125 1.546875 -4.292969 L 1.175781 -4.9375 C 1.316406 -5.03125 1.480469 -5.125 1.667969 -5.222656 C 1.855469 -5.316406 2.054688 -5.402344 2.265625 -5.480469 C 2.476562 -5.558594 2.703125 -5.621094 2.941406 -5.671875 C 3.179688 -5.722656 3.421875 -5.746094 3.667969 -5.746094 C 4.4375 -5.746094 5.007812 -5.535156 5.382812 -5.117188 C 5.753906 -4.699219 5.941406 -4.136719 5.941406 -3.4375 L 5.941406 0 L 5.167969 0 L 5.089844 -0.761719 L 5.054688 -0.761719 C 4.738281 -0.515625 4.390625 -0.304688 4.007812 -0.125 C 3.628906 0.0507812 3.238281 0.136719 2.839844 0.136719 C 2.578125 0.136719 2.332031 0.101562 2.101562 0.0273438 C 1.871094 -0.0429688 1.667969 -0.148438 1.492188 -0.28125 C 1.320312 -0.417969 1.183594 -0.582031 1.085938 -0.777344 C 0.984375 -0.972656 0.933594 -1.199219 0.933594 -1.453125 Z M 1.859375 -1.523438 C 1.859375 -1.363281 1.890625 -1.226562 1.960938 -1.113281 C 2.03125 -1 2.121094 -0.910156 2.234375 -0.835938 C 2.34375 -0.761719 2.476562 -0.710938 2.625 -0.675781 C 2.773438 -0.640625 2.929688 -0.621094 3.09375 -0.621094 C 3.414062 -0.621094 3.730469 -0.695312 4.042969 -0.835938 C 4.355469 -0.980469 4.671875 -1.183594 4.996094 -1.453125 L 4.996094 -2.929688 C 4.394531 -2.882812 3.894531 -2.820312 3.488281 -2.734375 C 3.085938 -2.648438 2.761719 -2.546875 2.519531 -2.429688 C 2.277344 -2.308594 2.109375 -2.175781 2.007812 -2.023438 C 1.90625 -1.875 1.859375 -1.707031 1.859375 -1.523438 Z M 1.859375 -1.523438 "/>
</symbol>
</g>
</defs>
<g id="surface201">
<g style="fill:rgb(0%,0%,0%);fill-opacity:1;">
  <use xlink:href="#glyph0-1" x="4" y="20"/>
</g>
<g style="fill:rgb(0%,0%,0%);fill-opacity:1;">
  <use xlink:href="#glyph1-1" x="22" y="10.6775"/>
</g>
<g style="fill:rgb(0%,0%,0%);fill-opacity:1;">
  <use xlink:href="#glyph1-2" x="15" y="22.6775"/>
</g>
<g style="fill:rgb(0%,0%,0%);fill-opacity:1;">
  <use xlink:href="#glyph0-1" x="41" y="20"/>
</g>
<g style="fill:rgb(0%,0%,0%);fill-opacity:1;">
  <use xlink:href="#glyph1-3" x="52" y="23"/>
</g>
<g style="fill:rgb(0%,0%,0%);fill-opacity:1;">
  <use xlink:href="#glyph1-1" x="59" y="23"/>
</g>
<g style="fill:rgb(0%,0%,0%);fill-opacity:1;">
  <use xlink:href="#glyph2-1" x="70" y="18"/>
</g>
<path style="fill:none;stroke-width:0.595093;stroke-linecap:square;stroke-linejoin:miter;stroke:rgb(0%,0%,0%);stroke-opacity:1;stroke-miterlimit:10;" d="M 86.796875 13.917969 L 93.203125 13.917969 "/>
<g style="fill:rgb(0%,0%,0%);fill-opacity:1;">
  <use xlink:href="#glyph3-1" x="87" y="11"/>
</g>
<g style="fill:rgb(0%,0%,0%);fill-opacity:1;">
  <use xlink:href="#glyph3-2" x="87" y="27"/>
</g>
<g style="fill:rgb(0%,0%,0%);fill-opacity:1;">
  <use xlink:href="#glyph0-1" x="105" y="20"/>
</g>
<g style="fill:rgb(0%,0%,0%);fill-opacity:1;">
  <use xlink:href="#glyph1-1" x="116" y="23"/>
</g>
<g style="fill:rgb(0%,0%,0%);fill-opacity:1;">
  <use xlink:href="#glyph1-4" x="123" y="23"/>
</g>
<g style="fill:rgb(0%,0%,0%);fill-opacity:1;">
  <use xlink:href="#glyph0-1" x="142" y="20"/>
</g>
<g style="fill:rgb(0%,0%,0%);fill-opacity:1;">
  <use xlink:href="#glyph1-1" x="153" y="11"/>
</g>
<g style="fill:rgb(0%,0%,0%);fill-opacity:1;">
  <use xlink:href="#glyph1-4" x="160" y="11"/>
</g>
<g style="fill:rgb(0%,0%,0%);fill-opacity:1;">
  <use xlink:href="#glyph0-2" x="179" y="16.5"/>
</g>
<g style="fill:rgb(0%,0%,0%);fill-opacity:1;">
  <use xlink:href="#glyph1-2" x="190" y="23"/>
</g>
<g style="fill:rgb(0%,0%,0%);fill-opacity:1;">
  <use xlink:href="#glyph1-3" x="197" y="23"/>
</g>
<g style="fill:rgb(0%,0%,0%);fill-opacity:1;">
  <use xlink:href="#glyph2-1" x="0" y="51"/>
</g>
<path style="fill:none;stroke-width:0.595093;stroke-linecap:square;stroke-linejoin:miter;stroke:rgb(0%,0%,0%);stroke-opacity:1;stroke-miterlimit:10;" d="M 13.796875 46.917969 L 20.203125 46.917969 "/>
<g style="fill:rgb(0%,0%,0%);fill-opacity:1;">
  <use xlink:href="#glyph3-1" x="14" y="44"/>
</g>
<g style="fill:rgb(0%,0%,0%);fill-opacity:1;">
  <use xlink:href="#glyph3-2" x="14" y="60"/>
</g>
<g style="fill:rgb(0%,0%,0%);fill-opacity:1;">
  <use xlink:href="#glyph2-2" x="28" y="51"/>
</g>
<g style="fill:rgb(0%,0%,0%);fill-opacity:1;">
  <use xlink:href="#glyph2-1" x="38" y="51"/>
</g>
<g style="fill:rgb(0%,0%,0%);fill-opacity:1;">
  <use xlink:href="#glyph0-3" x="49" y="51"/>
</g>
<g style="fill:rgb(0%,0%,0%);fill-opacity:1;">
  <use xlink:href="#glyph2-3" x="63" y="51"/>
</g>
<g style="fill:rgb(0%,0%,0%);fill-opacity:1;">
  <use xlink:href="#glyph0-4" x="77" y="51"/>
</g>
<g style="fill:rgb(0%,0%,0%);fill-opacity:1;">
  <use xlink:href="#glyph2-4" x="87" y="51"/>
</g>
<g style="fill:rgb(0%,0%,0%);fill-opacity:1;">
  <use xlink:href="#glyph0-1" x="105" y="53"/>
</g>
<g style="fill:rgb(0%,0%,0%);fill-opacity:1;">
  <use xlink:href="#glyph1-2" x="116" y="56"/>
</g>
<g style="fill:rgb(0%,0%,0%);fill-opacity:1;">
  <use xlink:href="#glyph1-3" x="123" y="56"/>
</g>
<g style="fill:rgb(0%,0%,0%);fill-opacity:1;">
  <use xlink:href="#glyph0-1" x="142" y="53"/>
</g>
<g style="fill:rgb(0%,0%,0%);fill-opacity:1;">
  <use xlink:href="#glyph1-2" x="153" y="44"/>
</g>
<g style="fill:rgb(0%,0%,0%);fill-opacity:1;">
  <use xlink:href="#glyph1-3" x="160" y="44"/>
</g>
<path style="fill:none;stroke-width:0.595093;stroke-linecap:square;stroke-linejoin:miter;stroke:rgb(0%,0%,0%);stroke-opacity:1;stroke-miterlimit:10;" d="M 2.796875 77.917969 L 9.203125 77.917969 "/>
<g style="fill:rgb(0%,0%,0%);fill-opacity:1;">
  <use xlink:href="#glyph3-1" x="3" y="75"/>
</g>
<g style="fill:rgb(0%,0%,0%);fill-opacity:1;">
  <use xlink:href="#glyph3-3" x="3" y="91"/>
</g>
<g style="fill:rgb(0%,0%,0%);fill-opacity:1;">
  <use xlink:href="#glyph2-5" x="17" y="82"/>
</g>
<g style="fill:rgb(0%,0%,0%);fill-opacity:1;">
  <use xlink:href="#glyph2-1" x="27" y="82"/>
</g>
<g style="fill:rgb(0%,0%,0%);fill-opacity:1;">
  <use xlink:href="#glyph0-5" x="38" y="82"/>
</g>
<g style="fill:rgb(0%,0%,0%);fill-opacity:1;">
  <use xlink:href="#glyph2-2" x="52" y="82"/>
</g>
<g style="fill:rgb(0%,0%,0%);fill-opacity:1;">
  <use xlink:href="#glyph2-1" x="62" y="82"/>
</g>
<g style="fill:rgb(0%,0%,0%);fill-opacity:1;">
  <use xlink:href="#glyph0-6" x="73" y="82"/>
</g>
<g style="fill:rgb(0%,0%,0%);fill-opacity:1;">
  <use xlink:href="#glyph2-3" x="87" y="82"/>
</g>
<g style="fill:rgb(0%,0%,0%);fill-opacity:1;">
  <use xlink:href="#glyph0-4" x="101" y="82"/>
</g>
<g style="fill:rgb(0%,0%,0%);fill-opacity:1;">
  <use xlink:href="#glyph2-4" x="111" y="82"/>
</g>
<g style="fill:rgb(0%,0%,0%);fill-opacity:1;">
  <use xlink:href="#glyph2-6" x="125" y="82"/>
</g>
<g style="fill:rgb(0%,0%,0%);fill-opacity:1;">
  <use xlink:href="#glyph3-3" x="135" y="75.682"/>
</g>
<g style="fill:rgb(0%,0%,0%);fill-opacity:1;">
  <use xlink:href="#glyph0-7" x="147" y="82"/>
</g>
<g style="fill:rgb(0%,0%,0%);fill-opacity:1;">
  <use xlink:href="#glyph2-3" x="161" y="82"/>
</g>
<g style="fill:rgb(0%,0%,0%);fill-opacity:1;">
  <use xlink:href="#glyph0-3" x="175" y="82"/>
</g>
<g style="fill:rgb(0%,0%,0%);fill-opacity:1;">
  <use xlink:href="#glyph0-5" x="189" y="82"/>
</g>
<g style="fill:rgb(0%,0%,0%);fill-opacity:1;">
  <use xlink:href="#glyph2-2" x="203" y="82"/>
</g>
<g style="fill:rgb(0%,0%,0%);fill-opacity:1;">
  <use xlink:href="#glyph2-1" x="213" y="82"/>
</g>
<g style="fill:rgb(0%,0%,0%);fill-opacity:1;">
  <use xlink:href="#glyph0-8" x="224" y="82"/>
</g>
<g style="fill:rgb(0%,0%,0%);fill-opacity:1;">
  <use xlink:href="#glyph2-3" x="238" y="82"/>
</g>
<g style="fill:rgb(0%,0%,0%);fill-opacity:1;">
  <use xlink:href="#glyph0-4" x="252" y="82"/>
</g>
<g style="fill:rgb(0%,0%,0%);fill-opacity:1;">
  <use xlink:href="#glyph2-4" x="262" y="82"/>
</g>
<g style="fill:rgb(0%,0%,0%);fill-opacity:1;">
  <use xlink:href="#glyph2-6" x="276" y="82"/>
</g>
<g style="fill:rgb(0%,0%,0%);fill-opacity:1;">
  <use xlink:href="#glyph2-7" x="290" y="82"/>
</g>
<g style="fill:rgb(0%,0%,0%);fill-opacity:1;">
  <use xlink:href="#glyph3-4" x="300" y="84.803612"/>
</g>
<g style="fill:rgb(0%,0%,0%);fill-opacity:1;">
  <use xlink:href="#glyph2-7" x="308" y="82"/>
</g>
<g style="fill:rgb(0%,0%,0%);fill-opacity:1;">
  <use xlink:href="#glyph3-4" x="318" y="75.682"/>
</g>
<g style="fill:rgb(0%,0%,0%);fill-opacity:1;">
  <use xlink:href="#glyph2-6" x="326" y="82"/>
</g>
<g style="fill:rgb(0%,0%,0%);fill-opacity:1;">
  <use xlink:href="#glyph2-3" x="340" y="82"/>
</g>
<g style="fill:rgb(0%,0%,0%);fill-opacity:1;">
  <use xlink:href="#glyph2-2" x="354" y="82"/>
</g>
<g style="fill:rgb(0%,0%,0%);fill-opacity:1;">
  <use xlink:href="#glyph0-6" x="364" y="82"/>
</g>
<g style="fill:rgb(0%,0%,0%);fill-opacity:1;">
  <use xlink:href="#glyph2-3" x="378" y="82"/>
</g>
<g style="fill:rgb(0%,0%,0%);fill-opacity:1;">
  <use xlink:href="#glyph0-3" x="392" y="82"/>
</g>
<g style="fill:rgb(0%,0%,0%);fill-opacity:1;">
  <use xlink:href="#glyph0-5" x="406" y="82"/>
</g>
<g style="fill:rgb(0%,0%,0%);fill-opacity:1;">
  <use xlink:href="#glyph2-2" x="420" y="82"/>
</g>
<g style="fill:rgb(0%,0%,0%);fill-opacity:1;">
  <use xlink:href="#glyph2-1" x="430" y="82"/>
</g>
<g style="fill:rgb(0%,0%,0%);fill-opacity:1;">
  <use xlink:href="#glyph0-8" x="441" y="82"/>
</g>
<g style="fill:rgb(0%,0%,0%);fill-opacity:1;">
  <use xlink:href="#glyph2-3" x="455" y="82"/>
</g>
<g style="fill:rgb(0%,0%,0%);fill-opacity:1;">
  <use xlink:href="#glyph0-4" x="469" y="82"/>
</g>
<g style="fill:rgb(0%,0%,0%);fill-opacity:1;">
  <use xlink:href="#glyph2-4" x="479" y="82"/>
</g>
<g style="fill:rgb(0%,0%,0%);fill-opacity:1;">
  <use xlink:href="#glyph2-1" x="493" y="82"/>
</g>
<g style="fill:rgb(0%,0%,0%);fill-opacity:1;">
  <use xlink:href="#glyph0-4" x="507" y="82"/>
</g>
<g style="fill:rgb(0%,0%,0%);fill-opacity:1;">
  <use xlink:href="#glyph2-4" x="517" y="82"/>
</g>
<g style="fill:rgb(0%,0%,0%);fill-opacity:1;">
  <use xlink:href="#glyph2-7" x="531" y="82"/>
</g>
<g style="fill:rgb(0%,0%,0%);fill-opacity:1;">
  <use xlink:href="#glyph3-4" x="541" y="84.803612"/>
</g>
<g style="fill:rgb(0%,0%,0%);fill-opacity:1;">
  <use xlink:href="#glyph2-6" x="549" y="82"/>
</g>
<g style="fill:rgb(0%,0%,0%);fill-opacity:1;">
  <use xlink:href="#glyph2-7" x="563" y="82"/>
</g>
<g style="fill:rgb(0%,0%,0%);fill-opacity:1;">
  <use xlink:href="#glyph3-4" x="573" y="75.682"/>
</g>
<g style="fill:rgb(0%,0%,0%);fill-opacity:1;">
  <use xlink:href="#glyph2-6" x="581" y="82"/>
</g>
<g style="fill:rgb(0%,0%,0%);fill-opacity:1;">
  <use xlink:href="#glyph2-8" x="591" y="82"/>
</g>
</g>
</svg>
