<?xml version="1.0" encoding="UTF-8"?>
<svg xmlns="http://www.w3.org/2000/svg" xmlns:xlink="http://www.w3.org/1999/xlink" viewBox="0 0 450 450" version="1.1">
<defs>
<g>
<symbol overflow="visible" id="glyph0-0">
<path style="stroke:none;" d="M 1.390625 -14.816406 L 12.078125 -14.816406 L 12.078125 0 L 1.390625 0 Z M 5.726562 -7.632812 L 2.851562 -12.839844 L 2.851562 -2.46875 Z M 10.597656 -2.46875 L 10.597656 -12.839844 L 7.746094 -7.632812 Z M 9.585938 -1.300781 L 7.949219 -4.265625 L 6.78125 -6.578125 L 6.691406 -6.578125 L 5.476562 -4.265625 L 3.816406 -1.300781 Z M 6.78125 -8.6875 L 7.878906 -10.796875 L 9.363281 -13.46875 L 4.085938 -13.46875 L 5.566406 -10.796875 L 6.691406 -8.6875 Z M 6.78125 -8.6875 "/>
</symbol>
<symbol overflow="visible" id="glyph0-1">
<path style="stroke:none;" d="M 3.03125 -14.726562 L 12.03125 -14.726562 L 12.03125 -13.15625 L 4.894531 -13.15625 L 4.894531 -8.171875 L 10.933594 -8.171875 L 10.933594 -6.601562 L 4.894531 -6.601562 L 4.894531 0 L 3.03125 0 Z M 3.03125 -14.726562 "/>
</symbol>
<symbol overflow="visible" id="glyph0-2">
<path style="stroke:none;" d="M 11.335938 0 L 9.832031 0 L 9.675781 -1.910156 L 9.585938 -1.910156 C 9.03125 -1.265625 8.429688 -0.742188 7.777344 -0.335938 C 7.128906 0.0664062 6.375 0.269531 5.523438 0.269531 C 4.207031 0.269531 3.242188 -0.101562 2.636719 -0.84375 C 2.03125 -1.582031 1.730469 -2.679688 1.730469 -4.128906 L 1.730469 -10.910156 L 3.59375 -10.910156 L 3.59375 -4.378906 C 3.59375 -3.34375 3.78125 -2.578125 4.164062 -2.078125 C 4.546875 -1.574219 5.195312 -1.324219 6.105469 -1.324219 C 6.734375 -1.324219 7.304688 -1.484375 7.8125 -1.808594 C 8.320312 -2.128906 8.882812 -2.640625 9.496094 -3.34375 L 9.496094 -10.910156 L 11.335938 -10.910156 Z M 11.335938 0 "/>
</symbol>
<symbol overflow="visible" id="glyph0-3">
<path style="stroke:none;" d="M 2.085938 -10.910156 L 3.613281 -10.910156 L 3.773438 -9.046875 L 3.863281 -9.046875 C 4.429688 -9.660156 5.042969 -10.167969 5.703125 -10.574219 C 6.359375 -10.976562 7.117188 -11.179688 7.96875 -11.179688 C 9.273438 -11.179688 10.226562 -10.808594 10.832031 -10.070312 C 11.4375 -9.328125 11.742188 -8.230469 11.742188 -6.78125 L 11.742188 0 L 9.902344 0 L 9.902344 -6.53125 C 9.902344 -7.566406 9.707031 -8.332031 9.316406 -8.835938 C 8.925781 -9.335938 8.285156 -9.585938 7.386719 -9.585938 C 7.058594 -9.585938 6.753906 -9.546875 6.476562 -9.460938 C 6.199219 -9.378906 5.925781 -9.257812 5.65625 -9.09375 C 5.386719 -8.929688 5.109375 -8.722656 4.828125 -8.476562 C 4.542969 -8.226562 4.242188 -7.941406 3.929688 -7.609375 L 3.929688 0 L 2.085938 0 Z M 2.085938 -10.910156 "/>
</symbol>
<symbol overflow="visible" id="glyph0-4">
<path style="stroke:none;" d="M 1.796875 -5.433594 C 1.796875 -6.347656 1.957031 -7.15625 2.277344 -7.867188 C 2.601562 -8.578125 3.039062 -9.183594 3.59375 -9.675781 C 4.144531 -10.167969 4.792969 -10.542969 5.535156 -10.796875 C 6.273438 -11.050781 7.058594 -11.179688 7.878906 -11.179688 C 8.777344 -11.179688 9.550781 -11.023438 10.203125 -10.707031 C 10.855469 -10.394531 11.40625 -10.019531 11.855469 -9.585938 L 10.933594 -8.394531 C 10.484375 -8.785156 10.015625 -9.09375 9.53125 -9.316406 C 9.042969 -9.542969 8.515625 -9.652344 7.949219 -9.652344 C 7.320312 -9.652344 6.742188 -9.550781 6.21875 -9.351562 C 5.695312 -9.148438 5.25 -8.859375 4.882812 -8.484375 C 4.515625 -8.113281 4.226562 -7.667969 4.019531 -7.148438 C 3.808594 -6.632812 3.703125 -6.0625 3.703125 -5.433594 C 3.703125 -4.804688 3.804688 -4.234375 4.007812 -3.726562 C 4.210938 -3.21875 4.492188 -2.78125 4.859375 -2.414062 C 5.226562 -2.046875 5.667969 -1.761719 6.183594 -1.558594 C 6.699219 -1.359375 7.273438 -1.257812 7.902344 -1.257812 C 8.574219 -1.257812 9.191406 -1.386719 9.753906 -1.648438 C 10.316406 -1.910156 10.828125 -2.238281 11.292969 -2.625 L 12.101562 -1.4375 C 11.503906 -0.898438 10.832031 -0.480469 10.089844 -0.179688 C 9.351562 0.121094 8.574219 0.269531 7.769531 0.269531 C 6.914062 0.269531 6.125 0.140625 5.398438 -0.113281 C 4.671875 -0.367188 4.039062 -0.738281 3.503906 -1.222656 C 2.964844 -1.710938 2.542969 -2.308594 2.246094 -3.019531 C 1.945312 -3.730469 1.796875 -4.535156 1.796875 -5.433594 Z M 1.796875 -5.433594 "/>
</symbol>
<symbol overflow="visible" id="glyph0-5">
<path style="stroke:none;" d="M 4.625 -9.40625 L 1.550781 -9.40625 L 1.550781 -10.796875 L 4.691406 -10.910156 L 4.9375 -13.964844 L 6.464844 -13.964844 L 6.464844 -10.910156 L 11.832031 -10.910156 L 11.832031 -9.40625 L 6.464844 -9.40625 L 6.464844 -4.21875 C 6.464844 -3.726562 6.511719 -3.296875 6.601562 -2.929688 C 6.691406 -2.5625 6.839844 -2.253906 7.050781 -2 C 7.257812 -1.746094 7.542969 -1.554688 7.902344 -1.425781 C 8.261719 -1.296875 8.703125 -1.234375 9.226562 -1.234375 C 9.75 -1.234375 10.222656 -1.28125 10.640625 -1.371094 C 11.058594 -1.460938 11.464844 -1.578125 11.855469 -1.730469 L 12.257812 -0.382812 C 11.765625 -0.203125 11.21875 -0.046875 10.617188 0.078125 C 10.019531 0.207031 9.421875 0.269531 8.824219 0.269531 C 8.03125 0.269531 7.363281 0.160156 6.824219 -0.0546875 C 6.285156 -0.273438 5.855469 -0.578125 5.535156 -0.976562 C 5.210938 -1.375 4.980469 -1.847656 4.839844 -2.402344 C 4.695312 -2.957031 4.625 -3.570312 4.625 -4.242188 Z M 4.625 -9.40625 "/>
</symbol>
<symbol overflow="visible" id="glyph0-6">
<path style="stroke:none;" d="M 2.019531 -10.910156 L 8.933594 -10.910156 L 8.933594 0 L 7.09375 0 L 7.09375 -9.40625 L 2.019531 -9.40625 Z M 7.8125 -13.15625 C 7.378906 -13.15625 7.023438 -13.28125 6.746094 -13.539062 C 6.46875 -13.792969 6.332031 -14.136719 6.332031 -14.570312 C 6.332031 -15.003906 6.46875 -15.351562 6.746094 -15.613281 C 7.023438 -15.875 7.378906 -16.007812 7.8125 -16.007812 C 8.230469 -16.007812 8.582031 -15.875 8.867188 -15.613281 C 9.152344 -15.351562 9.292969 -15.003906 9.292969 -14.570312 C 9.292969 -14.136719 9.152344 -13.792969 8.867188 -13.539062 C 8.582031 -13.285156 8.230469 -13.15625 7.8125 -13.15625 Z M 7.8125 -13.15625 "/>
</symbol>
<symbol overflow="visible" id="glyph0-7">
<path style="stroke:none;" d="M 1.347656 -5.433594 C 1.347656 -6.347656 1.492188 -7.15625 1.785156 -7.867188 C 2.078125 -8.578125 2.46875 -9.183594 2.964844 -9.675781 C 3.457031 -10.167969 4.03125 -10.542969 4.679688 -10.796875 C 5.332031 -11.050781 6.015625 -11.179688 6.734375 -11.179688 C 7.453125 -11.179688 8.136719 -11.054688 8.789062 -10.796875 C 9.441406 -10.542969 10.011719 -10.167969 10.507812 -9.675781 C 11 -9.183594 11.394531 -8.578125 11.683594 -7.867188 C 11.976562 -7.15625 12.121094 -6.347656 12.121094 -5.433594 C 12.121094 -4.535156 11.976562 -3.730469 11.683594 -3.019531 C 11.394531 -2.308594 11 -1.710938 10.507812 -1.222656 C 10.011719 -0.738281 9.441406 -0.367188 8.789062 -0.113281 C 8.136719 0.140625 7.453125 0.269531 6.734375 0.269531 C 6.015625 0.269531 5.332031 0.140625 4.679688 -0.113281 C 4.03125 -0.367188 3.457031 -0.738281 2.964844 -1.222656 C 2.46875 -1.710938 2.078125 -2.308594 1.785156 -3.019531 C 1.492188 -3.730469 1.347656 -4.535156 1.347656 -5.433594 Z M 3.253906 -5.433594 C 3.253906 -4.804688 3.335938 -4.234375 3.503906 -3.726562 C 3.667969 -3.21875 3.902344 -2.78125 4.210938 -2.414062 C 4.515625 -2.046875 4.882812 -1.761719 5.308594 -1.558594 C 5.734375 -1.359375 6.210938 -1.257812 6.734375 -1.257812 C 7.257812 -1.257812 7.734375 -1.359375 8.160156 -1.558594 C 8.585938 -1.761719 8.953125 -2.046875 9.261719 -2.414062 C 9.566406 -2.78125 9.804688 -3.21875 9.96875 -3.726562 C 10.132812 -4.234375 10.214844 -4.804688 10.214844 -5.433594 C 10.214844 -6.0625 10.132812 -6.632812 9.96875 -7.148438 C 9.804688 -7.667969 9.566406 -8.113281 9.261719 -8.484375 C 8.953125 -8.859375 8.585938 -9.148438 8.160156 -9.351562 C 7.734375 -9.554688 7.257812 -9.652344 6.734375 -9.652344 C 6.210938 -9.652344 5.734375 -9.550781 5.308594 -9.351562 C 4.882812 -9.148438 4.515625 -8.859375 4.210938 -8.484375 C 3.902344 -8.113281 3.667969 -7.667969 3.503906 -7.148438 C 3.339844 -6.632812 3.253906 -6.0625 3.253906 -5.433594 Z M 3.253906 -5.433594 "/>
</symbol>
<symbol overflow="visible" id="glyph0-8">
<path style="stroke:none;" d="M 5.792969 -13.15625 L 0.941406 -13.15625 L 0.941406 -14.726562 L 12.527344 -14.726562 L 12.527344 -13.15625 L 7.679688 -13.15625 L 7.679688 0 L 5.792969 0 Z M 5.792969 -13.15625 "/>
</symbol>
<symbol overflow="visible" id="glyph0-9">
<path style="stroke:none;" d="M 1.347656 -10.910156 L 2.785156 -10.910156 L 2.941406 -9.472656 L 3.007812 -9.472656 C 3.277344 -9.980469 3.597656 -10.394531 3.960938 -10.707031 C 4.328125 -11.023438 4.828125 -11.179688 5.457031 -11.179688 C 6.5625 -11.179688 7.25 -10.550781 7.519531 -9.292969 C 7.851562 -9.863281 8.210938 -10.320312 8.597656 -10.664062 C 8.988281 -11.007812 9.488281 -11.179688 10.101562 -11.179688 C 10.867188 -11.179688 11.453125 -10.890625 11.863281 -10.316406 C 12.277344 -9.738281 12.480469 -8.90625 12.480469 -7.8125 L 12.480469 0 L 10.707031 0 L 10.707031 -7.65625 C 10.707031 -8.941406 10.3125 -9.585938 9.519531 -9.585938 C 9.128906 -9.585938 8.792969 -9.449219 8.507812 -9.171875 C 8.222656 -8.894531 7.941406 -8.472656 7.65625 -7.902344 L 7.65625 0 L 6.171875 0 L 6.171875 -7.65625 C 6.171875 -8.941406 5.761719 -9.585938 4.9375 -9.585938 C 4.550781 -9.585938 4.21875 -9.449219 3.953125 -9.171875 C 3.683594 -8.894531 3.40625 -8.472656 3.121094 -7.902344 L 3.121094 0 L 1.347656 0 Z M 1.347656 -10.910156 "/>
</symbol>
<symbol overflow="visible" id="glyph0-10">
<path style="stroke:none;" d="M 1.550781 -5.433594 C 1.550781 -6.332031 1.707031 -7.136719 2.019531 -7.847656 C 2.335938 -8.558594 2.75 -9.160156 3.265625 -9.652344 C 3.78125 -10.148438 4.375 -10.523438 5.039062 -10.789062 C 5.707031 -11.050781 6.390625 -11.179688 7.09375 -11.179688 C 7.871094 -11.179688 8.570312 -11.054688 9.183594 -10.808594 C 9.796875 -10.5625 10.316406 -10.214844 10.742188 -9.765625 C 11.167969 -9.316406 11.496094 -8.777344 11.71875 -8.148438 C 11.941406 -7.519531 12.054688 -6.824219 12.054688 -6.0625 C 12.054688 -5.867188 12.050781 -5.675781 12.042969 -5.488281 C 12.035156 -5.300781 12.019531 -5.140625 11.988281 -5.007812 L 3.457031 -5.007812 C 3.472656 -4.421875 3.589844 -3.898438 3.804688 -3.433594 C 4.023438 -2.96875 4.3125 -2.574219 4.679688 -2.246094 C 5.046875 -1.917969 5.480469 -1.660156 5.984375 -1.480469 C 6.484375 -1.300781 7.035156 -1.210938 7.632812 -1.210938 C 8.277344 -1.210938 8.863281 -1.300781 9.394531 -1.480469 C 9.925781 -1.660156 10.445312 -1.910156 10.957031 -2.222656 L 11.605469 -1.011719 C 11.066406 -0.667969 10.453125 -0.367188 9.765625 -0.113281 C 9.078125 0.140625 8.292969 0.269531 7.410156 0.269531 C 6.601562 0.269531 5.839844 0.136719 5.128906 -0.125 C 4.417969 -0.386719 3.796875 -0.757812 3.265625 -1.246094 C 2.734375 -1.734375 2.316406 -2.328125 2.007812 -3.03125 C 1.703125 -3.734375 1.550781 -4.535156 1.550781 -5.433594 Z M 10.347656 -6.332031 C 10.347656 -7.425781 10.066406 -8.261719 9.496094 -8.84375 C 8.925781 -9.429688 8.132812 -9.722656 7.117188 -9.722656 C 6.667969 -9.722656 6.238281 -9.644531 5.824219 -9.496094 C 5.414062 -9.347656 5.042969 -9.125 4.714844 -8.835938 C 4.386719 -8.542969 4.109375 -8.1875 3.882812 -7.769531 C 3.660156 -7.347656 3.507812 -6.871094 3.433594 -6.332031 Z M 10.347656 -6.332031 "/>
</symbol>
<symbol overflow="visible" id="glyph0-11">
<path style="stroke:none;" d="M 2.515625 -2.648438 C 3.128906 -2.199219 3.785156 -1.839844 4.488281 -1.570312 C 5.191406 -1.300781 6.039062 -1.167969 7.027344 -1.167969 C 8.015625 -1.167969 8.746094 -1.332031 9.226562 -1.660156 C 9.707031 -1.988281 9.945312 -2.394531 9.945312 -2.875 C 9.945312 -3.292969 9.6875 -3.667969 9.171875 -3.996094 C 8.65625 -4.324219 7.730469 -4.65625 6.398438 -4.984375 C 5.828125 -5.117188 5.292969 -5.285156 4.792969 -5.476562 C 4.292969 -5.671875 3.855469 -5.902344 3.480469 -6.164062 C 3.105469 -6.425781 2.804688 -6.710938 2.582031 -7.027344 C 2.355469 -7.339844 2.246094 -7.691406 2.246094 -8.082031 C 2.246094 -8.515625 2.34375 -8.925781 2.535156 -9.304688 C 2.730469 -9.6875 3.019531 -10.015625 3.402344 -10.292969 C 3.785156 -10.570312 4.261719 -10.789062 4.839844 -10.945312 C 5.414062 -11.101562 6.078125 -11.179688 6.824219 -11.179688 C 7.648438 -11.179688 8.449219 -11.042969 9.226562 -10.765625 C 10.003906 -10.488281 10.664062 -10.164062 11.203125 -9.789062 L 10.304688 -8.597656 C 9.824219 -8.941406 9.292969 -9.21875 8.710938 -9.429688 C 8.128906 -9.640625 7.5 -9.742188 6.824219 -9.742188 C 6.316406 -9.742188 5.890625 -9.703125 5.546875 -9.621094 C 5.203125 -9.539062 4.925781 -9.425781 4.714844 -9.28125 C 4.503906 -9.140625 4.355469 -8.972656 4.265625 -8.777344 C 4.175781 -8.582031 4.128906 -8.382812 4.128906 -8.171875 C 4.128906 -7.722656 4.4375 -7.351562 5.050781 -7.058594 C 5.664062 -6.769531 6.464844 -6.496094 7.453125 -6.242188 C 8.933594 -5.867188 10.03125 -5.441406 10.742188 -4.960938 C 11.453125 -4.480469 11.808594 -3.824219 11.808594 -2.984375 C 11.808594 -2.535156 11.703125 -2.117188 11.496094 -1.730469 C 11.285156 -1.339844 10.972656 -0.996094 10.5625 -0.695312 C 10.152344 -0.394531 9.640625 -0.160156 9.035156 0.0117188 C 8.429688 0.183594 7.738281 0.269531 6.960938 0.269531 C 5.882812 0.269531 4.890625 0.101562 3.984375 -0.234375 C 3.078125 -0.570312 2.289062 -0.972656 1.617188 -1.4375 Z M 2.515625 -2.648438 "/>
</symbol>
<symbol overflow="visible" id="glyph0-12">
<path style="stroke:none;" d="M 2.289062 -14.726562 L 6.800781 -14.726562 C 7.609375 -14.726562 8.351562 -14.652344 9.023438 -14.503906 C 9.699219 -14.351562 10.269531 -14.109375 10.742188 -13.773438 C 11.214844 -13.4375 11.582031 -12.992188 11.84375 -12.4375 C 12.105469 -11.882812 12.234375 -11.203125 12.234375 -10.394531 C 12.234375 -9.617188 12.105469 -8.941406 11.84375 -8.375 C 11.582031 -7.804688 11.210938 -7.332031 10.730469 -6.960938 C 10.253906 -6.585938 9.679688 -6.304688 9.015625 -6.117188 C 8.347656 -5.929688 7.609375 -5.835938 6.800781 -5.835938 L 4.152344 -5.835938 L 4.152344 0 L 2.289062 0 Z M 6.554688 -7.363281 C 7.855469 -7.363281 8.820312 -7.605469 9.441406 -8.09375 C 10.0625 -8.578125 10.371094 -9.347656 10.371094 -10.394531 C 10.371094 -11.457031 10.054688 -12.195312 9.417969 -12.605469 C 8.78125 -13.015625 7.828125 -13.222656 6.554688 -13.222656 L 4.152344 -13.222656 L 4.152344 -7.363281 Z M 6.554688 -7.363281 "/>
</symbol>
<symbol overflow="visible" id="glyph0-13">
<path style="stroke:none;" d="M 0.179688 -10.910156 L 2.066406 -10.910156 L 3.390625 -4.601562 C 3.496094 -4.078125 3.59375 -3.570312 3.683594 -3.074219 C 3.773438 -2.582031 3.855469 -2.082031 3.929688 -1.570312 L 4.019531 -1.570312 C 4.125 -2.078125 4.226562 -2.585938 4.332031 -3.085938 C 4.4375 -3.589844 4.550781 -4.09375 4.667969 -4.601562 L 5.996094 -10.257812 L 7.566406 -10.257812 L 8.914062 -4.601562 C 9.03125 -4.078125 9.144531 -3.570312 9.25 -3.074219 C 9.355469 -2.582031 9.464844 -2.082031 9.585938 -1.570312 L 9.675781 -1.570312 C 9.78125 -2.078125 9.875 -2.582031 9.957031 -3.074219 C 10.039062 -3.570312 10.125 -4.078125 10.214844 -4.601562 L 11.539062 -10.910156 L 13.289062 -10.910156 L 10.910156 0 L 8.6875 0 L 7.386719 -5.523438 C 7.28125 -6.046875 7.183594 -6.566406 7.09375 -7.082031 C 7.003906 -7.597656 6.898438 -8.132812 6.78125 -8.6875 L 6.691406 -8.6875 C 6.601562 -8.210938 6.511719 -7.714844 6.421875 -7.207031 C 6.332031 -6.699219 6.21875 -6.128906 6.082031 -5.5 L 4.828125 0 L 2.625 0 Z M 0.179688 -10.910156 "/>
</symbol>
<symbol overflow="visible" id="glyph0-14">
<path style="stroke:none;" d="M 3.277344 -10.910156 L 4.804688 -10.910156 L 4.960938 -8.328125 L 5.027344 -8.328125 C 5.597656 -9.210938 6.296875 -9.90625 7.128906 -10.417969 C 7.957031 -10.925781 8.882812 -11.179688 9.902344 -11.179688 C 10.304688 -11.179688 10.679688 -11.144531 11.023438 -11.078125 C 11.367188 -11.011719 11.710938 -10.894531 12.054688 -10.730469 L 11.628906 -9.136719 C 11.238281 -9.273438 10.914062 -9.367188 10.652344 -9.429688 C 10.390625 -9.488281 10.042969 -9.519531 9.609375 -9.519531 C 8.785156 -9.519531 7.996094 -9.28125 7.238281 -8.8125 C 6.484375 -8.339844 5.777344 -7.535156 5.117188 -6.398438 L 5.117188 0 L 3.277344 0 Z M 3.277344 -10.910156 "/>
</symbol>
<symbol overflow="visible" id="glyph0-15">
<path style="stroke:none;" d="M 5.589844 -5.65625 L 1.75 -10.910156 L 3.792969 -10.910156 L 5.523438 -8.507812 C 5.71875 -8.207031 5.921875 -7.902344 6.140625 -7.589844 C 6.355469 -7.273438 6.578125 -6.96875 6.800781 -6.667969 L 6.890625 -6.667969 C 7.101562 -6.96875 7.3125 -7.28125 7.519531 -7.609375 C 7.730469 -7.9375 7.933594 -8.253906 8.125 -8.554688 L 9.765625 -10.910156 L 11.71875 -10.910156 L 7.835938 -5.5 L 12.011719 0 L 9.992188 0 L 8.082031 -2.515625 C 7.859375 -2.828125 7.621094 -3.15625 7.375 -3.503906 C 7.128906 -3.847656 6.882812 -4.175781 6.644531 -4.488281 L 6.554688 -4.488281 C 6.332031 -4.160156 6.105469 -3.835938 5.882812 -3.511719 C 5.65625 -3.191406 5.433594 -2.859375 5.207031 -2.515625 L 3.414062 0 L 1.4375 0 Z M 5.589844 -5.65625 "/>
</symbol>
<symbol overflow="visible" id="glyph0-16">
<path style="stroke:none;" d="M 1.820312 -15.984375 L 7.386719 -15.984375 L 7.386719 -3.523438 C 7.386719 -2.714844 7.578125 -2.136719 7.957031 -1.785156 C 8.339844 -1.433594 8.859375 -1.257812 9.519531 -1.257812 C 10.117188 -1.257812 10.804688 -1.429688 11.585938 -1.773438 L 12.054688 -0.382812 C 11.5625 -0.203125 11.097656 -0.046875 10.664062 0.078125 C 10.230469 0.207031 9.714844 0.269531 9.113281 0.269531 C 7.945312 0.269531 7.058594 -0.0585938 6.453125 -0.71875 C 5.847656 -1.378906 5.546875 -2.355469 5.546875 -3.660156 L 5.546875 -14.480469 L 1.820312 -14.480469 Z M 1.820312 -15.984375 "/>
</symbol>
<symbol overflow="visible" id="glyph0-17">
<path style="stroke:none;" d="M 11.855469 -1.527344 L 11.855469 0 L 2.199219 0 L 2.199219 -1.527344 L 6.261719 -1.527344 L 6.261719 -12.078125 L 3.210938 -12.078125 L 3.210938 -13.269531 C 3.972656 -13.386719 4.640625 -13.535156 5.207031 -13.707031 C 5.777344 -13.878906 6.285156 -14.082031 6.734375 -14.324219 L 8.105469 -14.324219 L 8.105469 -1.527344 Z M 11.855469 -1.527344 "/>
</symbol>
<symbol overflow="visible" id="glyph0-18">
<path style="stroke:none;" d="M 1.910156 -14.726562 L 5.5 -14.726562 C 7.730469 -14.726562 9.425781 -14.097656 10.585938 -12.839844 C 11.746094 -11.582031 12.324219 -9.78125 12.324219 -7.429688 C 12.324219 -6.261719 12.179688 -5.21875 11.886719 -4.300781 C 11.59375 -3.378906 11.164062 -2.601562 10.597656 -1.964844 C 10.027344 -1.328125 9.324219 -0.84375 8.484375 -0.503906 C 7.648438 -0.167969 6.683594 0 5.589844 0 L 1.910156 0 Z M 5.386719 -1.527344 C 7.0625 -1.527344 8.316406 -2.042969 9.148438 -3.074219 C 9.980469 -4.109375 10.394531 -5.558594 10.394531 -7.429688 C 10.394531 -9.300781 9.980469 -10.730469 9.148438 -11.71875 C 8.316406 -12.707031 7.0625 -13.199219 5.386719 -13.199219 L 3.773438 -13.199219 L 3.773438 -1.527344 Z M 5.386719 -1.527344 "/>
</symbol>
<symbol overflow="visible" id="glyph0-19">
<path style="stroke:none;" d="M 2.625 -3.210938 C 3.179688 -2.65625 3.824219 -2.210938 4.558594 -1.875 C 5.292969 -1.539062 6.0625 -1.371094 6.871094 -1.371094 C 7.917969 -1.371094 8.726562 -1.589844 9.292969 -2.03125 C 9.863281 -2.472656 10.148438 -3.054688 10.148438 -3.773438 C 10.148438 -4.144531 10.078125 -4.464844 9.945312 -4.726562 C 9.8125 -4.988281 9.625 -5.210938 9.382812 -5.398438 C 9.144531 -5.585938 8.863281 -5.753906 8.542969 -5.90625 C 8.21875 -6.054688 7.871094 -6.210938 7.5 -6.375 L 5.386719 -7.296875 C 5.011719 -7.445312 4.640625 -7.625 4.265625 -7.835938 C 3.890625 -8.042969 3.550781 -8.300781 3.242188 -8.597656 C 2.9375 -8.898438 2.6875 -9.253906 2.492188 -9.664062 C 2.296875 -10.074219 2.199219 -10.550781 2.199219 -11.089844 C 2.199219 -11.644531 2.320312 -12.160156 2.558594 -12.640625 C 2.796875 -13.117188 3.132812 -13.535156 3.558594 -13.886719 C 3.984375 -14.238281 4.492188 -14.511719 5.085938 -14.703125 C 5.675781 -14.898438 6.324219 -14.996094 7.027344 -14.996094 C 7.953125 -14.996094 8.808594 -14.828125 9.585938 -14.492188 C 10.363281 -14.15625 11.023438 -13.71875 11.5625 -13.179688 L 10.574219 -11.964844 C 10.09375 -12.398438 9.566406 -12.742188 8.992188 -12.988281 C 8.414062 -13.234375 7.761719 -13.359375 7.027344 -13.359375 C 6.128906 -13.359375 5.417969 -13.167969 4.894531 -12.785156 C 4.371094 -12.402344 4.109375 -11.875 4.109375 -11.203125 C 4.109375 -10.84375 4.1875 -10.539062 4.34375 -10.292969 C 4.5 -10.046875 4.703125 -9.828125 4.949219 -9.640625 C 5.195312 -9.453125 5.476562 -9.292969 5.792969 -9.160156 C 6.105469 -9.023438 6.421875 -8.890625 6.734375 -8.753906 L 8.800781 -7.859375 C 9.25 -7.679688 9.671875 -7.472656 10.070312 -7.238281 C 10.464844 -7.007812 10.808594 -6.738281 11.101562 -6.433594 C 11.394531 -6.125 11.625 -5.765625 11.796875 -5.355469 C 11.96875 -4.941406 12.054688 -4.46875 12.054688 -3.929688 C 12.054688 -3.34375 11.9375 -2.796875 11.695312 -2.289062 C 11.457031 -1.78125 11.113281 -1.335938 10.664062 -0.953125 C 10.214844 -0.570312 9.667969 -0.273438 9.023438 -0.0546875 C 8.378906 0.160156 7.65625 0.269531 6.847656 0.269531 C 5.769531 0.269531 4.777344 0.0742188 3.871094 -0.3125 C 2.964844 -0.703125 2.175781 -1.234375 1.503906 -1.910156 Z M 2.625 -3.210938 "/>
</symbol>
</g>
<clipPath id="clip1">
  <path d="M 163.5 23 L 285 23 L 285 66 L 163.5 66 Z M 163.5 23 "/>
</clipPath>
<clipPath id="clip2">
  <path d="M 113.5 292 L 181 292 L 181 336 L 113.5 336 Z M 113.5 292 "/>
</clipPath>
<clipPath id="clip3">
  <path d="M 390.5 292 L 417 292 L 417 336 L 390.5 336 Z M 390.5 292 "/>
</clipPath>
</defs>
<g id="surface1196">
<path style="fill:none;stroke-width:1.25;stroke-linecap:square;stroke-linejoin:miter;stroke:rgb(54.998779%,44.999695%,44.999695%);stroke-opacity:1;stroke-miterlimit:3.25;" d="M 224.5 44.898438 L 224.5 134.699219 "/>
<path style="fill:none;stroke-width:1.25;stroke-linecap:square;stroke-linejoin:miter;stroke:rgb(54.998779%,44.999695%,44.999695%);stroke-opacity:1;stroke-miterlimit:3.25;" d="M 224.5 134.699219 L 96.214844 224.5 "/>
<path style="fill:none;stroke-width:1.25;stroke-linecap:square;stroke-linejoin:miter;stroke:rgb(54.998779%,44.999695%,44.999695%);stroke-opacity:1;stroke-miterlimit:3.25;" d="M 224.5 134.699219 L 352.785156 224.5 "/>
<path style="fill:none;stroke-width:1.25;stroke-linecap:square;stroke-linejoin:miter;stroke:rgb(54.998779%,44.999695%,44.999695%);stroke-opacity:1;stroke-miterlimit:3.25;" d="M 96.214844 224.5 L 44.898438 314.300781 "/>
<path style="fill:none;stroke-width:1.25;stroke-linecap:square;stroke-linejoin:miter;stroke:rgb(54.998779%,44.999695%,44.999695%);stroke-opacity:1;stroke-miterlimit:3.25;" d="M 96.214844 224.5 L 147.527344 314.300781 "/>
<path style="fill:none;stroke-width:1.25;stroke-linecap:square;stroke-linejoin:miter;stroke:rgb(54.998779%,44.999695%,44.999695%);stroke-opacity:1;stroke-miterlimit:3.25;" d="M 147.527344 314.300781 L 96.214844 404.101562 "/>
<path style="fill:none;stroke-width:1.25;stroke-linecap:square;stroke-linejoin:miter;stroke:rgb(54.998779%,44.999695%,44.999695%);stroke-opacity:1;stroke-miterlimit:3.25;" d="M 147.527344 314.300781 L 198.84375 404.101562 "/>
<path style="fill:none;stroke-width:1.25;stroke-linecap:square;stroke-linejoin:miter;stroke:rgb(54.998779%,44.999695%,44.999695%);stroke-opacity:1;stroke-miterlimit:3.25;" d="M 352.785156 224.5 L 301.472656 314.300781 "/>
<path style="fill:none;stroke-width:1.25;stroke-linecap:square;stroke-linejoin:miter;stroke:rgb(54.998779%,44.999695%,44.999695%);stroke-opacity:1;stroke-miterlimit:3.25;" d="M 352.785156 224.5 L 404.101562 314.300781 "/>
<path style="fill:none;stroke-width:1.25;stroke-linecap:square;stroke-linejoin:miter;stroke:rgb(54.998779%,44.999695%,44.999695%);stroke-opacity:1;stroke-miterlimit:3.25;" d="M 301.472656 314.300781 L 301.472656 404.101562 "/>
<path style=" stroke:none;fill-rule:nonzero;fill:rgb(99.998474%,99.998474%,87.098694%);fill-opacity:1;" d="M 164.5 65.898438 L 284.5 65.898438 L 284.5 23.898438 L 164.5 23.898438 Z M 164.5 65.898438 "/>
<g style="fill:rgb(0%,0%,0%);fill-opacity:1;">
  <use xlink:href="#glyph0-1" x="170.5" y="52.9"/>
  <use xlink:href="#glyph0-2" x="183.97" y="52.9"/>
  <use xlink:href="#glyph0-3" x="197.44" y="52.9"/>
  <use xlink:href="#glyph0-4" x="210.91" y="52.9"/>
  <use xlink:href="#glyph0-5" x="224.38" y="52.9"/>
  <use xlink:href="#glyph0-6" x="237.85" y="52.9"/>
  <use xlink:href="#glyph0-7" x="251.32" y="52.9"/>
  <use xlink:href="#glyph0-3" x="264.79" y="52.9"/>
</g>
<g clip-path="url(#clip1)" clip-rule="nonzero">
<path style="fill:none;stroke-width:1;stroke-linecap:square;stroke-linejoin:miter;stroke:rgb(50%,50%,50%);stroke-opacity:1;stroke-miterlimit:10;" d="M -0.000000000000028422 41.998438 L 119 41.998438 L 119 0.998438 L -0.000000000000028422 0.998438 Z M -0.000000000000028422 41.998438 " transform="matrix(1,0,0,1,164.5,22.9)"/>
</g>
<path style=" stroke:none;fill-rule:nonzero;fill:rgb(99.998474%,99.998474%,87.098694%);fill-opacity:1;" d="M 185 155.699219 L 264 155.699219 L 264 113.699219 L 185 113.699219 Z M 185 155.699219 "/>
<g style="fill:rgb(0%,0%,0%);fill-opacity:1;">
  <use xlink:href="#glyph0-8" x="191" y="142.7"/>
  <use xlink:href="#glyph0-6" x="204.47" y="142.7"/>
  <use xlink:href="#glyph0-9" x="217.94" y="142.7"/>
  <use xlink:href="#glyph0-10" x="231.41" y="142.7"/>
  <use xlink:href="#glyph0-11" x="244.88" y="142.7"/>
</g>
<path style="fill:none;stroke-width:1;stroke-linecap:square;stroke-linejoin:miter;stroke:rgb(50%,50%,50%);stroke-opacity:1;stroke-miterlimit:10;" d="M -0.000000000000028422 41.999219 L 78 41.999219 L 78 0.999219 L -0.000000000000028422 0.999219 Z M -0.000000000000028422 41.999219 " transform="matrix(1,0,0,1,185,112.7)"/>
<path style=" stroke:none;fill-rule:nonzero;fill:rgb(99.998474%,99.998474%,87.098694%);fill-opacity:1;" d="M 56.714844 245.5 L 135.714844 245.5 L 135.714844 203.5 L 56.714844 203.5 Z M 56.714844 245.5 "/>
<g style="fill:rgb(0%,0%,0%);fill-opacity:1;">
  <use xlink:href="#glyph0-12" x="62.714286" y="232.5"/>
  <use xlink:href="#glyph0-7" x="76.184286" y="232.5"/>
  <use xlink:href="#glyph0-13" x="89.654286" y="232.5"/>
  <use xlink:href="#glyph0-10" x="103.124286" y="232.5"/>
  <use xlink:href="#glyph0-14" x="116.594286" y="232.5"/>
</g>
<path style="fill:none;stroke-width:1;stroke-linecap:square;stroke-linejoin:miter;stroke:rgb(50%,50%,50%);stroke-opacity:1;stroke-miterlimit:10;" d="M 0.000558036 42 L 78.000558 42 L 78.000558 1 L 0.000558036 1 Z M 0.000558036 42 " transform="matrix(1,0,0,1,56.714286,202.5)"/>
<path style=" stroke:none;fill-rule:nonzero;fill:rgb(99.998474%,99.998474%,87.098694%);fill-opacity:1;" d="M 32.398438 335.300781 L 57.398438 335.300781 L 57.398438 293.300781 L 32.398438 293.300781 Z M 32.398438 335.300781 "/>
<g style="fill:rgb(0%,0%,0%);fill-opacity:1;">
  <use xlink:href="#glyph0-15" x="38.4" y="322.3"/>
</g>
<path style="fill:none;stroke-width:1;stroke-linecap:square;stroke-linejoin:miter;stroke:rgb(50%,50%,50%);stroke-opacity:1;stroke-miterlimit:10;" d="M -0.0015625 42.000781 L 23.998438 42.000781 L 23.998438 1.000781 L -0.0015625 1.000781 Z M -0.0015625 42.000781 " transform="matrix(1,0,0,1,32.4,292.3)"/>
<path style=" stroke:none;fill-rule:nonzero;fill:rgb(99.998474%,99.998474%,87.098694%);fill-opacity:1;" d="M 114.527344 335.300781 L 180.527344 335.300781 L 180.527344 293.300781 L 114.527344 293.300781 Z M 114.527344 335.300781 "/>
<g style="fill:rgb(0%,0%,0%);fill-opacity:1;">
  <use xlink:href="#glyph0-12" x="120.528571" y="322.3"/>
  <use xlink:href="#glyph0-16" x="133.998571" y="322.3"/>
  <use xlink:href="#glyph0-2" x="147.468571" y="322.3"/>
  <use xlink:href="#glyph0-11" x="160.938571" y="322.3"/>
</g>
<g clip-path="url(#clip2)" clip-rule="nonzero">
<path style="fill:none;stroke-width:1;stroke-linecap:square;stroke-linejoin:miter;stroke:rgb(50%,50%,50%);stroke-opacity:1;stroke-miterlimit:10;" d="M -0.00122768 42.000781 L 64.998772 42.000781 L 64.998772 1.000781 L -0.00122768 1.000781 Z M -0.00122768 42.000781 " transform="matrix(1,0,0,1,114.528571,292.3)"/>
</g>
<path style=" stroke:none;fill-rule:nonzero;fill:rgb(99.998474%,99.998474%,87.098694%);fill-opacity:1;" d="M 83.714844 425.101562 L 108.714844 425.101562 L 108.714844 383.101562 L 83.714844 383.101562 Z M 83.714844 425.101562 "/>
<g style="fill:rgb(0%,0%,0%);fill-opacity:1;">
  <use xlink:href="#glyph0-3" x="89.714286" y="412.1"/>
</g>
<path style="fill:none;stroke-width:1;stroke-linecap:square;stroke-linejoin:miter;stroke:rgb(50%,50%,50%);stroke-opacity:1;stroke-miterlimit:10;" d="M 0.000558036 42.001562 L 24.000558 42.001562 L 24.000558 1.001562 L 0.000558036 1.001562 Z M 0.000558036 42.001562 " transform="matrix(1,0,0,1,83.714286,382.1)"/>
<path style=" stroke:none;fill-rule:nonzero;fill:rgb(99.998474%,99.998474%,87.098694%);fill-opacity:1;" d="M 186.34375 425.101562 L 211.34375 425.101562 L 211.34375 383.101562 L 186.34375 383.101562 Z M 186.34375 425.101562 "/>
<g style="fill:rgb(0%,0%,0%);fill-opacity:1;">
  <use xlink:href="#glyph0-17" x="192.342857" y="412.1"/>
</g>
<path style="fill:none;stroke-width:1;stroke-linecap:square;stroke-linejoin:miter;stroke:rgb(50%,50%,50%);stroke-opacity:1;stroke-miterlimit:10;" d="M 0.000892857 42.001562 L 24.000893 42.001562 L 24.000893 1.001562 L 0.000892857 1.001562 Z M 0.000892857 42.001562 " transform="matrix(1,0,0,1,186.342857,382.1)"/>
<path style=" stroke:none;fill-rule:nonzero;fill:rgb(99.998474%,99.998474%,87.098694%);fill-opacity:1;" d="M 340.285156 245.5 L 365.285156 245.5 L 365.285156 203.5 L 340.285156 203.5 Z M 340.285156 245.5 "/>
<g style="fill:rgb(0%,0%,0%);fill-opacity:1;">
  <use xlink:href="#glyph0-18" x="346.285714" y="232.5"/>
</g>
<path style="fill:none;stroke-width:1;stroke-linecap:square;stroke-linejoin:miter;stroke:rgb(50%,50%,50%);stroke-opacity:1;stroke-miterlimit:10;" d="M -0.000558036 42 L 23.999442 42 L 23.999442 1 L -0.000558036 1 Z M -0.000558036 42 " transform="matrix(1,0,0,1,340.285714,202.5)"/>
<path style=" stroke:none;fill-rule:nonzero;fill:rgb(99.998474%,99.998474%,87.098694%);fill-opacity:1;" d="M 268.472656 335.300781 L 334.472656 335.300781 L 334.472656 293.300781 L 268.472656 293.300781 Z M 268.472656 335.300781 "/>
<g style="fill:rgb(0%,0%,0%);fill-opacity:1;">
  <use xlink:href="#glyph0-19" x="274.471429" y="322.3"/>
  <use xlink:href="#glyph0-16" x="287.941429" y="322.3"/>
  <use xlink:href="#glyph0-7" x="301.411429" y="322.3"/>
  <use xlink:href="#glyph0-5" x="314.881429" y="322.3"/>
</g>
<path style="fill:none;stroke-width:1;stroke-linecap:square;stroke-linejoin:miter;stroke:rgb(50%,50%,50%);stroke-opacity:1;stroke-miterlimit:10;" d="M 0.00122768 42.000781 L 65.001228 42.000781 L 65.001228 1.000781 L 0.00122768 1.000781 Z M 0.00122768 42.000781 " transform="matrix(1,0,0,1,268.471429,292.3)"/>
<path style=" stroke:none;fill-rule:nonzero;fill:rgb(99.998474%,99.998474%,87.098694%);fill-opacity:1;" d="M 288.972656 425.101562 L 313.972656 425.101562 L 313.972656 383.101562 L 288.972656 383.101562 Z M 288.972656 425.101562 "/>
<g style="fill:rgb(0%,0%,0%);fill-opacity:1;">
  <use xlink:href="#glyph0-17" x="294.971429" y="412.1"/>
</g>
<path style="fill:none;stroke-width:1;stroke-linecap:square;stroke-linejoin:miter;stroke:rgb(50%,50%,50%);stroke-opacity:1;stroke-miterlimit:10;" d="M 0.00122768 42.001562 L 24.001228 42.001562 L 24.001228 1.001562 L 0.00122768 1.001562 Z M 0.00122768 42.001562 " transform="matrix(1,0,0,1,288.971429,382.1)"/>
<path style=" stroke:none;fill-rule:nonzero;fill:rgb(99.998474%,99.998474%,87.098694%);fill-opacity:1;" d="M 391.601562 335.300781 L 416.601562 335.300781 L 416.601562 293.300781 L 391.601562 293.300781 Z M 391.601562 335.300781 "/>
<g style="fill:rgb(0%,0%,0%);fill-opacity:1;">
  <use xlink:href="#glyph0-15" x="397.6" y="322.3"/>
</g>
<g clip-path="url(#clip3)" clip-rule="nonzero">
<path style="fill:none;stroke-width:1;stroke-linecap:square;stroke-linejoin:miter;stroke:rgb(50%,50%,50%);stroke-opacity:1;stroke-miterlimit:10;" d="M 0.0015625 42.000781 L 24.001562 42.000781 L 24.001562 1.000781 L 0.0015625 1.000781 Z M 0.0015625 42.000781 " transform="matrix(1,0,0,1,391.6,292.3)"/>
</g>
</g>
</svg>
