<?xml version="1.0" encoding="UTF-8" standalone="no"?>
<svg
   xmlns:dc="http://purl.org/dc/elements/1.1/"
   xmlns:cc="http://web.resource.org/cc/"
   xmlns:rdf="http://www.w3.org/1999/02/22-rdf-syntax-ns#"
   xmlns:svg="http://www.w3.org/2000/svg"
   xmlns="http://www.w3.org/2000/svg"
   xmlns:sodipodi="http://sodipodi.sourceforge.net/DTD/sodipodi-0.dtd"
   xmlns:inkscape="http://www.inkscape.org/namespaces/inkscape"
   preserveAspectRatio="xMinYMin meet"
   width="5400"
   height="891"
   viewBox="0 0 5400 891"
   version="1.0"
   id="svg2"
   sodipodi:version="0.32"
   inkscape:version="0.45.1"
   sodipodi:docname="Partition_of_unity_illustration.svg"
   inkscape:output_extension="org.inkscape.output.svg.inkscape"
   sodipodi:docbase="/home/aoleg/diverse/wiki">
  <metadata
     id="metadata66">
    <rdf:RDF>
      <cc:Work
         rdf:about="">
        <dc:format>image/svg+xml</dc:format>
        <dc:type
           rdf:resource="http://purl.org/dc/dcmitype/StillImage" />
      </cc:Work>
    </rdf:RDF>
  </metadata>
  <defs
     id="defs64" />
  <sodipodi:namedview
     inkscape:window-height="737"
     inkscape:window-width="1017"
     inkscape:pageshadow="2"
     inkscape:pageopacity="0.0"
     guidetolerance="10.0"
     gridtolerance="10.0"
     objecttolerance="10.0"
     borderopacity="1.0"
     bordercolor="#666666"
     pagecolor="#ffffff"
     id="base"
     showgrid="true"
     height="891px"
     width="5400px"
     inkscape:zoom="0.072902604"
     inkscape:cx="5170.2557"
     inkscape:cy="162.20073"
     inkscape:window-x="4"
     inkscape:window-y="9"
     inkscape:current-layer="g8" />
  <desc
     id="desc4">Matlab Figure Converted by PLOT2SVG written by Juerg Schwizer</desc>
  <g
     id="g8"
     transform="translate(-800,-2075.0977)">
    <clipPath
       id="ID000000">
      <rect
         x="1026.837"
         y="388.875"
         width="5100.2451"
         height="4225.7749"
         id="rect11" />
    </clipPath>
    <g
       id="g13">
      <g
         clip-path="url(#ID000000)"
         id="g15"
         transform="translate(41.150794,27.433862)">
        <polyline
           points="1026.837,2568.148 1091.397,2523.384 1155.958,2477.939 1220.518,2433.646 1285.078,2392.271 1349.638,2355.292 1414.198,2323.751 1478.758,2298.221 1543.318,2278.864 1607.878,2265.543 1672.438,2257.944 1736.998,2255.680 1801.558,2258.361 1866.118,2265.626 1930.678,2277.151 1995.238,2292.629 2059.798,2311.753 2124.359,2334.184 2188.919,2359.534 2253.479,2387.354 2318.039,2417.138 2382.599,2448.340 2447.159,2480.399 2511.719,2512.769 2576.279,2544.947 2640.839,2576.497 2705.399,2607.057 2769.959,2636.340 2834.519,2664.112 2899.079,2690.165 2963.639,2714.283 3028.199,2736.224 3092.760,2755.722 3157.320,2772.527 3221.880,2786.482 3286.440,2797.590 3351.000,2806.047 3415.560,2812.211 3480.120,2816.526 3544.680,2819.443 3609.240,2821.358 3673.800,2822.585 3738.360,2823.357 3802.920,2823.834 3867.480,2824.127 3932.040,2824.304 3996.600,2824.410 4061.160,2824.474 4125.721,2824.511 4190.281,2824.533 4254.841,2824.546 4319.401,2824.553 4383.961,2824.558 4448.521,2824.560 4513.081,2824.561 4577.641,2824.562 4642.201,2824.562 4706.761,2824.563 4771.321,2824.563 4835.881,2824.563 4900.441,2824.350 4965.001,2824.199 5029.561,2823.951 5094.122,2823.556 5158.682,2822.938 5223.242,2821.990 5287.802,2820.570 5352.362,2818.491 5416.922,2815.517 5481.482,2811.356 5546.042,2805.660 5610.602,2798.025 5675.162,2787.985 5739.722,2775.032 5804.282,2758.622 5868.842,2738.224 5933.402,2713.376 5997.962,2683.776 6062.523,2649.392 6127.083,2610.578 "
           id="polyline17"
           style="fill:none;stroke:#dd0f23;stroke-width:30;stroke-miterlimit:4;stroke-dasharray:none" />
      </g>
      <g
         clip-path="url(#ID000000)"
         id="g21"
         transform="translate(41.150794,27.433862)">
        <polyline
           points="1026.837,2823.564 1091.397,2822.999 1155.958,2822.167 1220.518,2820.977 1285.078,2819.317 1349.638,2817.056 1414.198,2814.041 1478.758,2810.100 1543.318,2805.037 1607.878,2798.635 1672.438,2790.662 1736.998,2780.876 1801.558,2769.037 1866.118,2754.927 1930.678,2738.366 1995.238,2719.237 2059.798,2697.510 2124.359,2673.256 2188.919,2646.661 2253.479,2618.026 2318.039,2587.755 2382.599,2556.335 2447.159,2524.305 2511.719,2492.233 2576.279,2460.685 2640.839,2430.219 2705.399,2401.383 2769.959,2374.734 2834.519,2350.869 2899.079,2330.444 2963.639,2314.177 3028.199,2302.792 3092.760,2296.898 3157.320,2296.814 3221.880,2302.409 3286.440,2313.049 3351.000,2327.702 3415.560,2345.170 3480.120,2364.335 3544.680,2384.323 3609.240,2404.562 3673.800,2424.753 3738.360,2444.797 3802.920,2464.725 3867.480,2484.641 3932.040,2504.675 3996.600,2524.962 4061.160,2545.619 4125.721,2566.727 4190.281,2588.317 4254.841,2610.348 4319.401,2632.691 4383.961,2655.119 4448.521,2677.301 4513.081,2698.825 4577.641,2719.237 4642.201,2738.096 4706.761,2755.036 4771.321,2769.813 4835.881,2782.335 4900.441,2792.659 4965.001,2800.933 5029.561,2807.402 5094.122,2812.343 5158.682,2816.031 5223.242,2818.723 5287.802,2820.647 5352.362,2821.990 5416.922,2822.907 5481.482,2823.518 5546.042,2823.916 5610.602,2824.166 5675.162,2824.319 5739.722,2824.404 5804.282,2824.442 5868.842,2824.443 5933.402,2824.406 5997.962,2824.323 6062.523,2824.176 6127.083,2823.937 "
           id="polyline23"
           style="fill:none;stroke:#0080cc;stroke-width:30;stroke-miterlimit:4;stroke-dasharray:none" />
        <g
           id="g25" />
      </g>
      <g
         clip-path="url(#ID000000)"
         id="g27"
         transform="translate(41.150794,27.433862)">
        <polyline
           points="1026.837,2807.046 1091.397,2812.451 1155.958,2816.379 1220.518,2819.159 1285.078,2821.075 1349.638,2822.361 1414.198,2823.202 1478.758,2823.737 1543.318,2824.071 1607.878,2824.274 1672.438,2824.396 1736.998,2824.467 1801.558,2824.507 1866.118,2824.529 1930.678,2824.538 1995.238,2824.538 2059.798,2824.530 2124.359,2824.510 2188.919,2824.473 2253.479,2824.409 2318.039,2824.302 2382.599,2824.124 2447.159,2823.833 2511.719,2823.367 2576.279,2822.629 2640.839,2821.478 2705.399,2819.712 2769.959,2817.051 2834.519,2813.129 2899.079,2807.492 2963.639,2799.635 3028.199,2789.075 3092.760,2775.470 3157.320,2758.748 3221.880,2739.198 3286.440,2717.450 3351.000,2694.340 3415.560,2670.708 3480.120,2647.229 3544.680,2624.325 3609.240,2602.173 3673.800,2580.760 3738.360,2559.952 3802.920,2539.558 3867.480,2519.373 3932.040,2499.198 3996.600,2478.866 4061.160,2458.249 4125.721,2437.271 4190.281,2415.932 4254.841,2394.324 4319.401,2372.658 4383.961,2351.284 4448.521,2330.700 4513.081,2311.541 4577.641,2294.546 4642.201,2280.504 4706.761,2270.185 4771.321,2264.289 4835.881,2263.396 4900.441,2268.141 4965.001,2278.588 5029.561,2295.017 5094.122,2317.426 5158.682,2345.585 5223.242,2378.984 5287.802,2416.788 5352.362,2457.838 5416.922,2500.716 5481.482,2543.876 5546.042,2585.811 5610.602,2625.217 5675.162,2661.115 5739.722,2692.902 5804.282,2720.332 5868.842,2743.461 5933.402,2762.551 5997.962,2777.997 6062.523,2790.253 6127.083,2799.786 "
           id="polyline29"
           style="fill:none;stroke:#00c745;stroke-width:30;stroke-miterlimit:4;stroke-dasharray:none" />
        <g
           id="g31" />
      </g>
      <g
         clip-path="url(#ID000000)"
         id="g33"
         transform="translate(41.150794,27.433862)">
        <polyline
           points="1026.837,2453.893 1091.397,2493.817 1155.958,2536.166 1220.518,2578.868 1285.078,2619.987 1349.638,2657.941 1414.198,2691.657 1478.758,2720.592 1543.318,2744.679 1607.878,2764.198 1672.438,2779.649 1736.998,2791.628 1801.558,2800.745 1866.118,2807.568 1930.678,2812.596 1995.238,2816.246 2059.798,2818.858 2124.359,2820.701 2188.919,2821.983 2253.479,2822.862 2318.039,2823.456 2382.599,2823.852 2447.159,2824.113 2511.719,2824.281 2576.279,2824.389 2640.839,2824.457 2705.399,2824.499 2769.959,2824.525 2834.519,2824.541 2899.079,2824.550 2963.639,2824.556 3028.199,2824.559 3092.760,2824.561 3157.320,2824.562 3221.880,2824.562 3286.440,2824.562 3351.000,2824.562 3415.560,2824.562 3480.120,2824.561 3544.680,2824.560 3609.240,2824.557 3673.800,2824.553 3738.360,2824.545 3802.920,2824.532 3867.480,2824.511 3932.040,2824.474 3996.600,2824.412 4061.160,2824.309 4125.721,2824.141 4190.281,2823.868 4254.841,2823.433 4319.401,2822.748 4383.961,2821.690 4448.521,2820.090 4513.081,2817.723 4577.641,2814.305 4642.201,2809.488 4706.761,2802.867 4771.321,2793.986 4835.881,2782.357 4900.441,2767.500 4965.001,2748.931 5029.561,2726.279 5094.122,2699.326 5158.682,2668.098 5223.242,2632.954 5287.802,2594.646 5352.362,2554.332 5416.922,2513.511 5481.482,2473.900 5546.042,2437.263 5610.602,2405.242 5675.162,2379.231 5739.722,2360.313 5804.282,2349.254 5868.842,2346.523 5933.402,2352.318 5997.962,2366.555 6062.523,2388.829 6127.083,2418.350 "
           id="polyline35"
           style="fill:none;stroke:#fdc100;stroke-width:30;stroke-miterlimit:4;stroke-dasharray:none" />
        <g
           id="g37" />
      </g>
      <g
         clip-path="url(#ID000000)"
         id="g39"
         transform="matrix(1,0,0,44.89418,0,-124036.74)">
        <g
           id="g43" />
      </g>
      <g
         clip-path="url(#ID000000)"
         id="g45"
         transform="translate(41.150794,27.433862)">
        <polyline
           points="1026.837,2178.962 1091.397,2178.962 1155.958,2178.962 1220.518,2178.962 1285.078,2178.962 1349.638,2178.962 1414.198,2178.962 1478.758,2178.962 1543.318,2178.962 1607.878,2178.962 1672.438,2178.962 1736.998,2178.962 1801.558,2178.962 1866.118,2178.962 1930.678,2178.962 1995.238,2178.962 2059.798,2178.962 2124.359,2178.962 2188.919,2178.962 2253.479,2178.962 2318.039,2178.962 2382.599,2178.962 2447.159,2178.962 2511.719,2178.962 2576.279,2178.962 2640.839,2178.962 2705.399,2178.962 2769.959,2178.962 2834.519,2178.962 2899.079,2178.962 2963.639,2178.962 3028.199,2178.962 3092.760,2178.962 3157.320,2178.962 3221.880,2178.962 3286.440,2178.962 3351.000,2178.962 3415.560,2178.962 3480.120,2178.962 3544.680,2178.962 3609.240,2178.962 3673.800,2178.962 3738.360,2178.962 3802.920,2178.962 3867.480,2178.962 3932.040,2178.962 3996.600,2178.962 4061.160,2178.962 4125.721,2178.962 4190.281,2178.962 4254.841,2178.962 4319.401,2178.962 4383.961,2178.962 4448.521,2178.962 4513.081,2178.962 4577.641,2178.962 4642.201,2178.962 4706.761,2178.962 4771.321,2178.962 4835.881,2178.962 4900.441,2178.962 4965.001,2178.962 5029.561,2178.962 5094.122,2178.962 5158.682,2178.962 5223.242,2178.962 5287.802,2178.962 5352.362,2178.962 5416.922,2178.962 5481.482,2178.962 5546.042,2178.962 5610.602,2178.962 5675.162,2178.962 5739.722,2178.962 5804.282,2178.962 5868.842,2178.962 5933.402,2178.962 5997.962,2178.962 6062.523,2178.962 6127.083,2178.962 "
           id="polyline47"
           style="fill:none;stroke:#000000;stroke-width:20;stroke-miterlimit:4;stroke-dasharray:120, 120;stroke-dashoffset:0" />
        <g
           id="g49" />
      </g>
      <g
         transform="translate(874.3078,2857.9969)"
         id="g51">
        <g
           id="g53">
          <text
             x="-34.504192"
             y="80.562782"
             font-size="20.0pt"
             id="text55"
             style="font-size:252.54774475px;font-style:oblique;font-variant:normal;font-weight:normal;font-stretch:normal;text-align:start;line-height:125%;writing-mode:lr-tb;text-anchor:start;fill:#000000;font-family:Bitstream Vera Sans"
             sodipodi:linespacing="125%">0</text>
        </g>
      </g>
      <g
         transform="translate(845.8271,2219.794)"
         id="g3190">
        <g
           id="g3192"
           transform="translate(17.49646,-13.716931)">
          <text
             x="-34.504192"
             y="80.562782"
             font-size="20.0pt"
             id="text3194"
             style="font-size:252.54774475px;font-style:oblique;font-variant:normal;font-weight:normal;font-stretch:normal;text-align:start;line-height:125%;writing-mode:lr-tb;text-anchor:start;fill:#000000;font-family:Bitstream Vera Sans"
             sodipodi:linespacing="125%">1</text>
        </g>
      </g>
    </g>
    <path
       style="fill:none;fill-opacity:0.75;fill-rule:evenodd;stroke:#000000;stroke-width:35;stroke-linecap:butt;stroke-linejoin:miter;stroke-miterlimit:4;stroke-dasharray:none;stroke-opacity:1"
       d="M 5368.5731,774.58274 L 267.85795,773.18754"
       id="path3202"
       transform="translate(800,2075.0977)"
       sodipodi:nodetypes="cc" />
  </g>
</svg>
