<?xml version="1.0" encoding="UTF-8"?>
<svg xmlns="http://www.w3.org/2000/svg" xmlns:xlink="http://www.w3.org/1999/xlink" width="526pt" height="61pt" viewBox="0 0 526 61" version="1.1">
<defs>
<g>
<symbol overflow="visible" id="glyph0-0">
<path style="stroke:none;" d="M 0.363281 0 L 0.363281 -8.070312 L 6.765625 -8.070312 L 6.765625 0 Z M 5.757812 -1.011719 L 5.757812 -7.058594 L 1.375 -7.058594 L 1.375 -1.011719 Z M 5.757812 -1.011719 "/>
</symbol>
<symbol overflow="visible" id="glyph0-1">
<path style="stroke:none;" d="M 8.96875 -6.914062 C 9.355469 -6.203125 9.429688 -5.289062 9.191406 -4.175781 C 8.933594 -2.96875 8.414062 -1.96875 7.636719 -1.171875 C 6.714844 -0.234375 5.59375 0.234375 4.261719 0.234375 C 3.019531 0.234375 2.132812 -0.175781 1.597656 -0.996094 C 1.132812 -1.785156 1.027344 -2.785156 1.285156 -3.992188 C 1.515625 -5.085938 1.984375 -6.019531 2.691406 -6.796875 C 3.601562 -7.792969 4.734375 -8.289062 6.097656 -8.289062 C 7.523438 -8.289062 8.480469 -7.832031 8.96875 -6.914062 Z M 8.0625 -4.160156 C 8.265625 -5.109375 8.179688 -5.871094 7.808594 -6.449219 C 7.4375 -7.027344 6.820312 -7.316406 5.960938 -7.316406 C 5.125 -7.316406 4.382812 -7.03125 3.734375 -6.457031 C 3.082031 -5.882812 2.636719 -5.039062 2.402344 -3.921875 C 2.210938 -3.027344 2.277344 -2.273438 2.597656 -1.660156 C 2.921875 -1.046875 3.589844 -0.742188 4.601562 -0.742188 C 5.566406 -0.742188 6.335938 -1.085938 6.914062 -1.777344 C 7.492188 -2.46875 7.875 -3.261719 8.0625 -4.160156 Z M 8.0625 -4.160156 "/>
</symbol>
<symbol overflow="visible" id="glyph0-2">
<path style="stroke:none;" d="M 2.960938 -5.882812 L 2.132812 -1.976562 C 2.070312 -1.675781 2.066406 -1.433594 2.121094 -1.242188 C 2.21875 -0.890625 2.507812 -0.714844 2.988281 -0.714844 C 3.675781 -0.714844 4.210938 -1.023438 4.59375 -1.636719 C 4.796875 -1.964844 4.960938 -2.417969 5.082031 -2.992188 L 5.695312 -5.882812 L 6.683594 -5.882812 L 5.4375 0 L 4.503906 0 L 4.695312 -0.867188 C 4.519531 -0.644531 4.320312 -0.457031 4.097656 -0.300781 C 3.65625 0.0078125 3.164062 0.160156 2.625 0.160156 C 1.785156 0.160156 1.277344 -0.121094 1.09375 -0.679688 C 0.992188 -0.980469 0.992188 -1.382812 1.097656 -1.882812 L 1.949219 -5.882812 Z M 2.960938 -5.882812 "/>
</symbol>
<symbol overflow="visible" id="glyph0-3">
<path style="stroke:none;" d="M 2.519531 -7.527344 L 3.519531 -7.527344 L 3.167969 -5.882812 L 4.109375 -5.882812 L 3.9375 -5.074219 L 3 -5.074219 L 2.179688 -1.234375 C 2.136719 -1.03125 2.175781 -0.894531 2.300781 -0.824219 C 2.371094 -0.785156 2.496094 -0.761719 2.675781 -0.761719 C 2.722656 -0.761719 2.773438 -0.765625 2.828125 -0.765625 C 2.882812 -0.769531 2.949219 -0.773438 3.027344 -0.78125 L 2.863281 0 C 2.742188 0.03125 2.617188 0.0585938 2.492188 0.0703125 C 2.363281 0.0859375 2.230469 0.09375 2.085938 0.09375 C 1.625 0.09375 1.335938 -0.0234375 1.222656 -0.261719 C 1.105469 -0.496094 1.089844 -0.804688 1.171875 -1.179688 L 2 -5.074219 L 1.203125 -5.074219 L 1.375 -5.882812 L 2.167969 -5.882812 Z M 2.519531 -7.527344 "/>
</symbol>
<symbol overflow="visible" id="glyph0-4">
<path style="stroke:none;" d="M 2.429688 -8.125 L 4.539062 -8.125 L 4.367188 -7.316406 L 3.191406 -7.316406 L 1.335938 1.40625 L 2.511719 1.40625 L 2.339844 2.214844 L 0.230469 2.214844 Z M 2.429688 -8.125 "/>
</symbol>
<symbol overflow="visible" id="glyph0-5">
<path style="stroke:none;" d="M -0.0390625 1.40625 L 1.125 1.40625 L 2.984375 -7.316406 L 1.8125 -7.316406 L 1.984375 -8.125 L 4.09375 -8.125 L 1.894531 2.214844 L -0.207031 2.214844 Z M -0.0390625 1.40625 "/>
</symbol>
<symbol overflow="visible" id="glyph0-6">
<path style="stroke:none;" d="M 7.191406 -4.515625 L 7 -3.59375 L 1.269531 -3.59375 L 1.460938 -4.515625 Z M 6.691406 -2.160156 L 6.492188 -1.21875 L 0.761719 -1.21875 L 0.960938 -2.160156 Z M 6.691406 -2.160156 "/>
</symbol>
<symbol overflow="visible" id="glyph1-0">
<path style="stroke:none;" d="M 0.703125 0 L 0.703125 -8.996094 L 4.921875 -8.996094 L 4.921875 0 Z M 1.40625 -0.703125 L 4.21875 -0.703125 L 4.21875 -8.292969 L 1.40625 -8.292969 Z M 1.40625 -0.703125 "/>
</symbol>
<symbol overflow="visible" id="glyph1-1">
<path style="stroke:none;" d="M 5.601562 -3.1875 C 5.601562 -2.875 5.546875 -2.582031 5.429688 -2.3125 C 5.316406 -2.042969 5.15625 -1.804688 4.953125 -1.605469 C 4.753906 -1.40625 4.515625 -1.25 4.246094 -1.136719 C 3.976562 -1.023438 3.683594 -0.96875 3.371094 -0.96875 C 3.054688 -0.96875 2.757812 -1.023438 2.488281 -1.132812 C 2.21875 -1.246094 1.984375 -1.402344 1.785156 -1.597656 C 1.585938 -1.796875 1.433594 -2.03125 1.320312 -2.300781 C 1.207031 -2.574219 1.148438 -2.867188 1.148438 -3.1875 C 1.148438 -3.503906 1.203125 -3.800781 1.320312 -4.070312 C 1.433594 -4.339844 1.585938 -4.574219 1.785156 -4.773438 C 1.984375 -4.972656 2.21875 -5.125 2.488281 -5.242188 C 2.757812 -5.355469 3.054688 -5.410156 3.371094 -5.410156 C 3.683594 -5.410156 3.976562 -5.351562 4.246094 -5.238281 C 4.515625 -5.121094 4.753906 -4.964844 4.953125 -4.761719 C 5.15625 -4.5625 5.316406 -4.324219 5.429688 -4.058594 C 5.546875 -3.789062 5.601562 -3.496094 5.601562 -3.1875 Z M 5.601562 -3.1875 "/>
</symbol>
<symbol overflow="visible" id="glyph2-0">
<path style="stroke:none;" d="M 1.007812 -10.726562 L 8.742188 -10.726562 L 8.742188 0 L 1.007812 0 Z M 4.144531 -5.523438 L 2.0625 -9.296875 L 2.0625 -1.789062 Z M 7.671875 -1.789062 L 7.671875 -9.296875 L 5.605469 -5.523438 Z M 6.9375 -0.941406 L 5.753906 -3.085938 L 4.90625 -4.761719 L 4.84375 -4.761719 L 3.964844 -3.085938 L 2.761719 -0.941406 Z M 4.90625 -6.289062 L 5.703125 -7.816406 L 6.777344 -9.75 L 2.957031 -9.75 L 4.03125 -7.816406 L 4.84375 -6.289062 Z M 4.90625 -6.289062 "/>
</symbol>
<symbol overflow="visible" id="glyph2-1">
<path style="stroke:none;" d="M 8.578125 -1.105469 L 8.578125 0 L 1.59375 0 L 1.59375 -1.105469 L 4.535156 -1.105469 L 4.535156 -8.742188 L 2.324219 -8.742188 L 2.324219 -9.605469 C 2.875 -9.691406 3.359375 -9.796875 3.769531 -9.921875 C 4.179688 -10.046875 4.550781 -10.195312 4.875 -10.367188 L 5.867188 -10.367188 L 5.867188 -1.105469 Z M 8.578125 -1.105469 "/>
</symbol>
<symbol overflow="visible" id="glyph2-2">
<path style="stroke:none;" d="M 5.980469 -3.933594 L 5.980469 -7.148438 C 5.992188 -7.429688 6 -7.738281 6.011719 -8.066406 C 6.023438 -8.398438 6.039062 -8.703125 6.0625 -8.984375 L 5.980469 -8.984375 C 5.816406 -8.738281 5.644531 -8.484375 5.460938 -8.230469 C 5.277344 -7.976562 5.097656 -7.722656 4.921875 -7.476562 L 2.113281 -3.933594 Z M 8.855469 -2.859375 L 7.246094 -2.859375 L 7.246094 0 L 5.980469 0 L 5.980469 -2.859375 L 0.632812 -2.859375 L 0.632812 -3.753906 L 5.816406 -10.367188 L 7.246094 -10.367188 L 7.246094 -3.933594 L 8.855469 -3.933594 Z M 8.855469 -2.859375 "/>
</symbol>
<symbol overflow="visible" id="glyph2-3">
<path style="stroke:none;" d="M 2.195312 -10.660156 L 8.710938 -10.660156 L 8.710938 -9.523438 L 3.542969 -9.523438 L 3.542969 -5.914062 L 7.914062 -5.914062 L 7.914062 -4.777344 L 3.542969 -4.777344 L 3.542969 0 L 2.195312 0 Z M 2.195312 -10.660156 "/>
</symbol>
<symbol overflow="visible" id="glyph2-4">
<path style="stroke:none;" d="M 2.324219 1.316406 C 2.324219 1.726562 2.542969 2.0625 2.980469 2.324219 C 3.421875 2.582031 4.0625 2.714844 4.90625 2.714844 C 5.363281 2.714844 5.773438 2.667969 6.140625 2.574219 C 6.511719 2.484375 6.824219 2.363281 7.085938 2.210938 C 7.34375 2.058594 7.542969 1.886719 7.679688 1.691406 C 7.8125 1.496094 7.882812 1.292969 7.882812 1.089844 C 7.882812 0.710938 7.730469 0.453125 7.433594 0.324219 C 7.136719 0.195312 6.683594 0.128906 6.078125 0.128906 L 4.535156 0.128906 C 4.308594 0.128906 4.09375 0.121094 3.890625 0.105469 C 3.691406 0.0898438 3.503906 0.0546875 3.332031 0 C 2.953125 0.207031 2.6875 0.417969 2.542969 0.640625 C 2.398438 0.863281 2.324219 1.089844 2.324219 1.316406 Z M 1.171875 1.445312 C 1.171875 1.132812 1.28125 0.824219 1.503906 0.519531 C 1.726562 0.214844 2.046875 -0.0585938 2.46875 -0.308594 L 2.46875 -0.375 C 2.253906 -0.492188 2.0625 -0.65625 1.902344 -0.859375 C 1.738281 -1.066406 1.65625 -1.339844 1.65625 -1.671875 C 1.65625 -1.921875 1.738281 -2.179688 1.902344 -2.445312 C 2.0625 -2.710938 2.296875 -2.945312 2.601562 -3.152344 L 2.601562 -3.21875 C 2.328125 -3.421875 2.097656 -3.695312 1.910156 -4.039062 C 1.71875 -4.378906 1.625 -4.789062 1.625 -5.265625 C 1.625 -5.699219 1.707031 -6.089844 1.875 -6.433594 C 2.042969 -6.78125 2.269531 -7.078125 2.550781 -7.320312 C 2.832031 -7.5625 3.160156 -7.753906 3.535156 -7.890625 C 3.910156 -8.023438 4.304688 -8.09375 4.730469 -8.09375 C 5.164062 -8.09375 5.550781 -8.027344 5.898438 -7.898438 L 9.164062 -7.898438 L 9.164062 -6.875 L 7.050781 -6.875 C 7.234375 -6.679688 7.40625 -6.441406 7.554688 -6.160156 C 7.707031 -5.878906 7.785156 -5.5625 7.785156 -5.214844 C 7.785156 -4.792969 7.707031 -4.414062 7.546875 -4.078125 C 7.390625 -3.742188 7.175781 -3.457031 6.898438 -3.226562 C 6.621094 -2.992188 6.296875 -2.8125 5.921875 -2.6875 C 5.550781 -2.5625 5.152344 -2.503906 4.730469 -2.503906 C 4.523438 -2.503906 4.304688 -2.527344 4.070312 -2.574219 C 3.835938 -2.625 3.613281 -2.699219 3.394531 -2.796875 C 2.984375 -2.535156 2.777344 -2.230469 2.777344 -1.886719 C 2.777344 -1.570312 2.921875 -1.339844 3.210938 -1.195312 C 3.496094 -1.046875 3.898438 -0.976562 4.421875 -0.976562 L 6.191406 -0.976562 C 7.210938 -0.976562 7.964844 -0.835938 8.457031 -0.550781 C 8.949219 -0.269531 9.199219 0.207031 9.199219 0.878906 C 9.199219 1.246094 9.09375 1.597656 8.890625 1.933594 C 8.683594 2.269531 8.390625 2.5625 8.011719 2.8125 C 7.632812 3.0625 7.171875 3.261719 6.628906 3.414062 C 6.089844 3.566406 5.480469 3.640625 4.808594 3.640625 C 3.648438 3.640625 2.753906 3.449219 2.121094 3.070312 C 1.488281 2.691406 1.171875 2.152344 1.171875 1.445312 Z M 4.730469 -3.394531 C 5.238281 -3.394531 5.667969 -3.5625 6.019531 -3.898438 C 6.371094 -4.234375 6.546875 -4.691406 6.546875 -5.265625 C 6.546875 -5.535156 6.5 -5.785156 6.402344 -6.011719 C 6.304688 -6.238281 6.175781 -6.433594 6.011719 -6.597656 C 5.851562 -6.761719 5.65625 -6.886719 5.4375 -6.980469 C 5.214844 -7.070312 4.976562 -7.117188 4.730469 -7.117188 C 4.480469 -7.117188 4.242188 -7.070312 4.023438 -6.980469 C 3.800781 -6.886719 3.609375 -6.761719 3.445312 -6.597656 C 3.28125 -6.433594 3.152344 -6.238281 3.054688 -6.011719 C 2.957031 -5.785156 2.910156 -5.535156 2.910156 -5.265625 C 2.910156 -4.691406 3.085938 -4.234375 3.445312 -3.898438 C 3.800781 -3.5625 4.230469 -3.394531 4.730469 -3.394531 Z M 4.730469 -3.394531 "/>
</symbol>
<symbol overflow="visible" id="glyph2-5">
<path style="stroke:none;" d="M 1.1875 -0.796875 C 2.0625 -1.578125 2.839844 -2.28125 3.519531 -2.910156 C 4.195312 -3.539062 4.765625 -4.113281 5.222656 -4.640625 C 5.683594 -5.164062 6.035156 -5.65625 6.273438 -6.109375 C 6.511719 -6.566406 6.628906 -7.007812 6.628906 -7.441406 C 6.628906 -8.039062 6.445312 -8.527344 6.078125 -8.90625 C 5.710938 -9.285156 5.140625 -9.472656 4.371094 -9.472656 C 3.882812 -9.472656 3.429688 -9.351562 3.015625 -9.109375 C 2.597656 -8.863281 2.222656 -8.570312 1.886719 -8.222656 L 1.121094 -8.984375 C 1.585938 -9.460938 2.089844 -9.84375 2.625 -10.132812 C 3.160156 -10.417969 3.796875 -10.5625 4.535156 -10.5625 C 5.054688 -10.5625 5.523438 -10.488281 5.9375 -10.34375 C 6.355469 -10.195312 6.710938 -9.992188 7.003906 -9.726562 C 7.296875 -9.460938 7.519531 -9.136719 7.679688 -8.757812 C 7.835938 -8.378906 7.914062 -7.960938 7.914062 -7.507812 C 7.914062 -7.019531 7.796875 -6.53125 7.5625 -6.035156 C 7.332031 -5.542969 7.003906 -5.035156 6.582031 -4.507812 C 6.160156 -3.984375 5.65625 -3.4375 5.070312 -2.867188 C 4.484375 -2.300781 3.839844 -1.695312 3.136719 -1.054688 C 3.449219 -1.078125 3.773438 -1.097656 4.101562 -1.121094 C 4.433594 -1.144531 4.753906 -1.152344 5.070312 -1.152344 L 8.484375 -1.152344 L 8.484375 0 L 1.1875 0 Z M 1.1875 -0.796875 "/>
</symbol>
<symbol overflow="visible" id="glyph3-0">
<path style="stroke:none;" d="M 1.015625 0 L 1.015625 -12.449219 L 7.109375 -12.449219 L 7.109375 0 Z M 2.03125 -1.015625 L 6.09375 -1.015625 L 6.09375 -11.433594 L 2.03125 -11.433594 Z M 2.03125 -1.015625 "/>
</symbol>
<symbol overflow="visible" id="glyph3-1">
<path style="stroke:none;" d="M 8.125 -3.285156 L 1.625 -3.285156 L 1.625 -3.878906 L 8.125 -3.878906 Z M 8.125 -3.285156 "/>
</symbol>
<symbol overflow="visible" id="glyph3-2">
<path style="stroke:none;" d="M 9.347656 0 L 0.40625 0 L 4.871094 -8.902344 Z M 8.449219 -0.554688 L 4.871094 -7.671875 L 1.300781 -0.554688 Z M 8.449219 -0.554688 "/>
</symbol>
<symbol overflow="visible" id="glyph3-3">
<path style="stroke:none;" d="M 7.179688 3.054688 L 4.484375 3.054688 L 4.484375 -10.109375 L 7.179688 -10.109375 L 7.179688 -9.554688 L 5.085938 -9.554688 L 5.085938 2.5 L 7.179688 2.5 Z M 7.179688 3.054688 "/>
</symbol>
<symbol overflow="visible" id="glyph3-4">
<path style="stroke:none;" d="M 7.878906 -2.730469 C 7.761719 -2.285156 7.570312 -1.925781 7.308594 -1.648438 C 7.042969 -1.375 6.664062 -1.238281 6.171875 -1.238281 C 5.902344 -1.238281 5.65625 -1.289062 5.433594 -1.386719 C 5.210938 -1.488281 4.992188 -1.621094 4.777344 -1.785156 C 4.523438 -1.976562 4.316406 -2.117188 4.15625 -2.214844 C 4 -2.308594 3.804688 -2.355469 3.578125 -2.355469 C 3.21875 -2.355469 2.953125 -2.261719 2.777344 -2.070312 C 2.601562 -1.878906 2.476562 -1.613281 2.402344 -1.269531 L 1.871094 -1.429688 C 1.96875 -1.851562 2.164062 -2.210938 2.457031 -2.503906 C 2.75 -2.796875 3.125 -2.945312 3.578125 -2.945312 C 3.804688 -2.945312 4.011719 -2.902344 4.203125 -2.816406 C 4.390625 -2.730469 4.636719 -2.585938 4.941406 -2.371094 C 5.261719 -2.15625 5.492188 -2.007812 5.636719 -1.933594 C 5.78125 -1.855469 5.960938 -1.816406 6.171875 -1.816406 C 6.53125 -1.816406 6.804688 -1.914062 6.996094 -2.109375 C 7.183594 -2.304688 7.304688 -2.566406 7.363281 -2.894531 Z M 7.878906 -2.730469 "/>
</symbol>
<symbol overflow="visible" id="glyph3-5">
<path style="stroke:none;" d="M 5.269531 3.054688 L 2.570312 3.054688 L 2.570312 2.5 L 4.664062 2.5 L 4.664062 -9.554688 L 2.570312 -9.554688 L 2.570312 -10.109375 L 5.269531 -10.109375 Z M 5.269531 3.054688 "/>
</symbol>
<symbol overflow="visible" id="glyph3-6">
<path style="stroke:none;" d="M 8.125 -3.285156 L 5.164062 -3.285156 L 5.164062 -0.324219 L 4.5625 -0.324219 L 4.5625 -3.285156 L 1.625 -3.285156 L 1.625 -3.878906 L 4.5625 -3.878906 L 4.5625 -6.824219 L 5.164062 -6.824219 L 5.164062 -3.878906 L 8.125 -3.878906 Z M 8.125 -3.285156 "/>
</symbol>
<symbol overflow="visible" id="glyph3-7">
<path style="stroke:none;" d="M 7.347656 6.15625 L 4.484375 6.15625 L 4.484375 -14.511719 L 7.347656 -14.511719 L 7.347656 -13.957031 L 5.085938 -13.957031 L 5.085938 5.609375 L 7.347656 5.609375 Z M 7.347656 6.15625 "/>
</symbol>
<symbol overflow="visible" id="glyph3-8">
<path style="stroke:none;" d="M 5.269531 6.15625 L 2.402344 6.15625 L 2.402344 5.609375 L 4.664062 5.609375 L 4.664062 -13.957031 L 2.402344 -13.957031 L 2.402344 -14.511719 L 5.269531 -14.511719 Z M 5.269531 6.15625 "/>
</symbol>
<symbol overflow="visible" id="glyph4-0">
<path style="stroke:none;" d="M 0.753906 -8.042969 L 6.558594 -8.042969 L 6.558594 0 L 0.753906 0 Z M 3.109375 -4.144531 L 1.546875 -6.972656 L 1.546875 -1.339844 Z M 5.753906 -1.339844 L 5.753906 -6.972656 L 4.203125 -4.144531 Z M 5.203125 -0.707031 L 4.3125 -2.316406 L 3.679688 -3.570312 L 3.632812 -3.570312 L 2.972656 -2.316406 L 2.070312 -0.707031 Z M 3.679688 -4.714844 L 4.277344 -5.863281 L 5.082031 -7.3125 L 2.21875 -7.3125 L 3.023438 -5.863281 L 3.632812 -4.714844 Z M 3.679688 -4.714844 "/>
</symbol>
<symbol overflow="visible" id="glyph4-1">
<path style="stroke:none;" d="M 0.988281 -1.535156 C 0.988281 -1.867188 1.066406 -2.160156 1.226562 -2.40625 C 1.382812 -2.65625 1.636719 -2.867188 1.980469 -3.046875 C 2.324219 -3.226562 2.769531 -3.371094 3.316406 -3.484375 C 3.859375 -3.597656 4.511719 -3.6875 5.277344 -3.753906 C 5.269531 -3.957031 5.238281 -4.148438 5.179688 -4.328125 C 5.121094 -4.503906 5.035156 -4.660156 4.910156 -4.796875 C 4.789062 -4.929688 4.628906 -5.039062 4.429688 -5.117188 C 4.230469 -5.199219 3.988281 -5.242188 3.703125 -5.242188 C 3.3125 -5.242188 2.941406 -5.164062 2.582031 -5.015625 C 2.226562 -4.863281 1.910156 -4.703125 1.632812 -4.535156 L 1.242188 -5.214844 C 1.390625 -5.3125 1.5625 -5.414062 1.761719 -5.515625 C 1.960938 -5.617188 2.171875 -5.707031 2.394531 -5.789062 C 2.617188 -5.871094 2.855469 -5.9375 3.109375 -5.988281 C 3.359375 -6.042969 3.617188 -6.070312 3.875 -6.070312 C 4.6875 -6.070312 5.292969 -5.847656 5.683594 -5.40625 C 6.078125 -4.960938 6.277344 -4.371094 6.277344 -3.632812 L 6.277344 0 L 5.460938 0 L 5.375 -0.804688 L 5.339844 -0.804688 C 5.003906 -0.542969 4.636719 -0.320312 4.234375 -0.132812 C 3.832031 0.0546875 3.421875 0.144531 3 0.144531 C 2.722656 0.144531 2.460938 0.109375 2.21875 0.03125 C 1.972656 -0.046875 1.761719 -0.15625 1.578125 -0.296875 C 1.394531 -0.441406 1.25 -0.617188 1.144531 -0.824219 C 1.039062 -1.03125 0.988281 -1.265625 0.988281 -1.535156 Z M 1.960938 -1.609375 C 1.960938 -1.4375 2 -1.292969 2.070312 -1.175781 C 2.144531 -1.058594 2.242188 -0.960938 2.359375 -0.882812 C 2.476562 -0.804688 2.613281 -0.75 2.773438 -0.714844 C 2.929688 -0.675781 3.09375 -0.65625 3.265625 -0.65625 C 3.605469 -0.65625 3.941406 -0.734375 4.273438 -0.882812 C 4.601562 -1.035156 4.9375 -1.25 5.277344 -1.535156 L 5.277344 -3.09375 C 4.644531 -3.046875 4.113281 -2.976562 3.6875 -2.886719 C 3.261719 -2.796875 2.917969 -2.691406 2.664062 -2.566406 C 2.40625 -2.441406 2.226562 -2.296875 2.121094 -2.140625 C 2.015625 -1.980469 1.960938 -1.804688 1.960938 -1.609375 Z M 1.960938 -1.609375 "/>
</symbol>
<symbol overflow="visible" id="glyph4-2">
<path style="stroke:none;" d="M 1.132812 -8.675781 L 2.132812 -8.675781 L 2.132812 -6.3125 L 2.109375 -5.167969 C 2.394531 -5.445312 2.710938 -5.664062 3.066406 -5.824219 C 3.417969 -5.988281 3.769531 -6.070312 4.121094 -6.070312 C 4.519531 -6.070312 4.871094 -6 5.179688 -5.855469 C 5.488281 -5.714844 5.746094 -5.511719 5.953125 -5.246094 C 6.160156 -4.984375 6.316406 -4.664062 6.421875 -4.296875 C 6.527344 -3.925781 6.582031 -3.515625 6.582031 -3.058594 C 6.582031 -2.554688 6.507812 -2.105469 6.363281 -1.707031 C 6.214844 -1.308594 6.019531 -0.972656 5.769531 -0.695312 C 5.523438 -0.417969 5.238281 -0.210938 4.910156 -0.0664062 C 4.585938 0.0742188 4.25 0.144531 3.898438 0.144531 C 3.613281 0.144531 3.308594 0.0742188 2.980469 -0.0664062 C 2.652344 -0.210938 2.34375 -0.40625 2.058594 -0.65625 L 2.023438 -0.65625 L 1.9375 0 L 1.132812 0 Z M 2.132812 -1.390625 C 2.417969 -1.136719 2.703125 -0.957031 2.992188 -0.851562 C 3.28125 -0.746094 3.53125 -0.695312 3.742188 -0.695312 C 4 -0.695312 4.242188 -0.75 4.460938 -0.859375 C 4.679688 -0.96875 4.871094 -1.125 5.035156 -1.324219 C 5.195312 -1.523438 5.320312 -1.765625 5.410156 -2.058594 C 5.5 -2.351562 5.546875 -2.679688 5.546875 -3.046875 C 5.546875 -3.371094 5.511719 -3.667969 5.449219 -3.9375 C 5.382812 -4.203125 5.285156 -4.433594 5.148438 -4.625 C 5.015625 -4.816406 4.84375 -4.964844 4.632812 -5.070312 C 4.421875 -5.175781 4.167969 -5.226562 3.875 -5.226562 C 3.617188 -5.226562 3.335938 -5.15625 3.039062 -5.015625 C 2.742188 -4.875 2.441406 -4.648438 2.132812 -4.339844 Z M 2.132812 -1.390625 "/>
</symbol>
</g>
</defs>
<g id="surface7">
<g style="fill:rgb(59.999084%,59.999084%,59.999084%);fill-opacity:1;">
  <use xlink:href="#glyph0-1" x="0" y="35.323425"/>
  <use xlink:href="#glyph0-2" x="8.75061" y="35.323425"/>
  <use xlink:href="#glyph0-3" x="15.007324" y="35.323425"/>
  <use xlink:href="#glyph0-4" x="18.132935" y="35.323425"/>
</g>
<g style="fill:rgb(59.999084%,59.999084%,59.999084%);fill-opacity:0.32;">
  <use xlink:href="#glyph1-1" x="21.258545" y="35.323425"/>
</g>
<g style="fill:rgb(59.999084%,59.999084%,59.999084%);fill-opacity:1;">
  <use xlink:href="#glyph0-5" x="29.050903" y="35.323425"/>
  <use xlink:href="#glyph0-6" x="32.176514" y="35.323425"/>
</g>
<path style="fill:none;stroke-width:0.595093;stroke-linecap:square;stroke-linejoin:miter;stroke:rgb(0%,0%,0%);stroke-opacity:1;stroke-miterlimit:10;" d="M 85.796997 35.917969 L 95.203247 35.917969 " transform="matrix(1,0,0,1,-35.132935,-6)"/>
<g style="fill:rgb(0%,0%,0%);fill-opacity:1;">
  <use xlink:href="#glyph2-1" x="50.867065" y="22"/>
</g>
<g style="fill:rgb(0%,0%,0%);fill-opacity:1;">
  <use xlink:href="#glyph2-2" x="50.867065" y="47"/>
</g>
<path style=" stroke:none;fill-rule:evenodd;fill:rgb(0%,0%,0%);fill-opacity:1;" d="M 73.566406 16.632812 L 73.566406 15.820312 C 73.566406 12.546875 73.75 10.0625 74.121094 8.363281 C 74.539062 6.449219 75.28125 4.660156 76.351562 3 L 75.828125 3 C 74.722656 4.761719 73.953125 6.554688 73.519531 8.382812 C 73.082031 10.210938 72.867188 12.691406 72.867188 15.820312 L 72.867188 46.179688 C 72.867188 49.316406 73.082031 51.796875 73.519531 53.625 C 73.953125 55.453125 74.722656 57.242188 75.828125 59 L 76.351562 59 C 75.28125 57.339844 74.539062 55.550781 74.121094 53.636719 C 73.75 51.933594 73.566406 49.445312 73.566406 46.179688 Z M 73.566406 16.632812 "/>
<g style="fill:rgb(0%,0%,0%);fill-opacity:1;">
  <use xlink:href="#glyph3-1" x="77.867065" y="34"/>
</g>
<path style="fill:none;stroke-width:0.595093;stroke-linecap:square;stroke-linejoin:miter;stroke:rgb(0%,0%,0%);stroke-opacity:1;stroke-miterlimit:10;" d="M 126.796997 35.917969 L 240.203247 35.917969 " transform="matrix(1,0,0,1,-35.132935,-6)"/>
<g style="fill:rgb(0%,0%,0%);fill-opacity:1;">
  <use xlink:href="#glyph2-3" x="95.867065" y="20"/>
</g>
<g style="fill:rgb(0%,0%,0%);fill-opacity:1;">
  <use xlink:href="#glyph4-1" x="106.867065" y="23"/>
</g>
<g style="fill:rgb(0%,0%,0%);fill-opacity:1;">
  <use xlink:href="#glyph4-2" x="113.867065" y="23"/>
</g>
<g style="fill:rgb(0%,0%,0%);fill-opacity:1;">
  <use xlink:href="#glyph2-3" x="132.867065" y="20"/>
</g>
<g style="fill:rgb(0%,0%,0%);fill-opacity:1;">
  <use xlink:href="#glyph4-1" x="143.867065" y="11"/>
</g>
<g style="fill:rgb(0%,0%,0%);fill-opacity:1;">
  <use xlink:href="#glyph4-2" x="150.867065" y="11"/>
</g>
<g style="fill:rgb(0%,0%,0%);fill-opacity:1;">
  <use xlink:href="#glyph3-2" x="165.867065" y="18"/>
</g>
<g style="fill:rgb(0%,0%,0%);fill-opacity:1;">
  <use xlink:href="#glyph3-3" x="175.867065" y="18"/>
</g>
<g style="fill:rgb(0%,0%,0%);fill-opacity:1;">
  <use xlink:href="#glyph2-4" x="185.867065" y="18"/>
</g>
<g style="fill:rgb(0%,0%,0%);fill-opacity:1;">
  <use xlink:href="#glyph3-4" x="185.867065" y="10"/>
</g>
<g style="fill:rgb(0%,0%,0%);fill-opacity:1;">
  <use xlink:href="#glyph3-4" x="185.867065" y="7.294067"/>
</g>
<g style="fill:rgb(0%,0%,0%);fill-opacity:1;">
  <use xlink:href="#glyph3-5" x="195.867065" y="18"/>
</g>
<g style="fill:rgb(0%,0%,0%);fill-opacity:1;">
  <use xlink:href="#glyph2-5" x="122.15374" y="54.894302"/>
</g>
<path style=" stroke:none;fill-rule:evenodd;fill:rgb(0%,0%,0%);fill-opacity:1;" d="M 137.867188 49.246094 L 140.34375 47.96875 L 144.816406 57.417969 L 149.621094 34 L 172.304688 34 L 172.304688 34.476562 L 150.007812 34.476562 L 144.957031 59.105469 L 140.070312 48.78125 L 138.140625 49.777344 L 137.867188 49.246094 "/>
<g style="fill:rgb(0%,0%,0%);fill-opacity:1;">
  <use xlink:href="#glyph3-1" x="151.352798" y="54.894302"/>
</g>
<g style="fill:rgb(0%,0%,0%);fill-opacity:1;">
  <use xlink:href="#glyph2-4" x="162.352798" y="54.894302"/>
</g>
<g style="fill:rgb(0%,0%,0%);fill-opacity:1;">
  <use xlink:href="#glyph3-4" x="162.352798" y="46.894302"/>
</g>
<g style="fill:rgb(0%,0%,0%);fill-opacity:1;">
  <use xlink:href="#glyph3-4" x="162.352798" y="44.188369"/>
</g>
<g style="fill:rgb(0%,0%,0%);fill-opacity:1;">
  <use xlink:href="#glyph3-6" x="212.867065" y="34"/>
</g>
<path style=" stroke:none;fill-rule:evenodd;fill:rgb(0%,0%,0%);fill-opacity:1;" d="M 228.867188 29.246094 L 231.34375 27.96875 L 235.816406 37.417969 L 240.621094 14 L 263.304688 14 L 263.304688 14.476562 L 241.007812 14.476562 L 235.957031 39.105469 L 231.070312 28.78125 L 229.140625 29.777344 L 228.867188 29.246094 "/>
<g style="fill:rgb(0%,0%,0%);fill-opacity:1;">
  <use xlink:href="#glyph3-1" x="242.066124" y="34"/>
</g>
<g style="fill:rgb(0%,0%,0%);fill-opacity:1;">
  <use xlink:href="#glyph2-4" x="253.066124" y="34"/>
</g>
<g style="fill:rgb(0%,0%,0%);fill-opacity:1;">
  <use xlink:href="#glyph3-4" x="253.066124" y="26"/>
</g>
<g style="fill:rgb(0%,0%,0%);fill-opacity:1;">
  <use xlink:href="#glyph3-4" x="253.066124" y="23.294067"/>
</g>
<g style="fill:rgb(0%,0%,0%);fill-opacity:1;">
  <use xlink:href="#glyph2-3" x="274.293717" y="36"/>
</g>
<g style="fill:rgb(0%,0%,0%);fill-opacity:1;">
  <use xlink:href="#glyph4-1" x="285.293717" y="27"/>
</g>
<g style="fill:rgb(0%,0%,0%);fill-opacity:1;">
  <use xlink:href="#glyph4-2" x="292.293717" y="27"/>
</g>
<g style="fill:rgb(0%,0%,0%);fill-opacity:1;">
  <use xlink:href="#glyph3-2" x="307.293717" y="34"/>
</g>
<g style="fill:rgb(0%,0%,0%);fill-opacity:1;">
  <use xlink:href="#glyph3-7" x="317.293717" y="34"/>
</g>
<g style="fill:rgb(0%,0%,0%);fill-opacity:1;">
  <use xlink:href="#glyph2-3" x="327.293717" y="36"/>
</g>
<g style="fill:rgb(0%,0%,0%);fill-opacity:1;">
  <use xlink:href="#glyph4-1" x="338.293717" y="39"/>
</g>
<g style="fill:rgb(0%,0%,0%);fill-opacity:1;">
  <use xlink:href="#glyph4-2" x="345.293717" y="39"/>
</g>
<g style="fill:rgb(0%,0%,0%);fill-opacity:1;">
  <use xlink:href="#glyph3-8" x="352.293717" y="34"/>
</g>
<g style="fill:rgb(0%,0%,0%);fill-opacity:1;">
  <use xlink:href="#glyph3-6" x="366.293717" y="34"/>
</g>
<path style=" stroke:none;fill-rule:evenodd;fill:rgb(0%,0%,0%);fill-opacity:1;" d="M 381.867188 29.246094 L 384.34375 27.96875 L 388.816406 37.417969 L 393.621094 14 L 416.304688 14 L 416.304688 14.476562 L 394.007812 14.476562 L 388.957031 39.105469 L 384.070312 28.78125 L 382.140625 29.777344 L 381.867188 29.246094 "/>
<g style="fill:rgb(0%,0%,0%);fill-opacity:1;">
  <use xlink:href="#glyph3-1" x="395.492775" y="34"/>
</g>
<g style="fill:rgb(0%,0%,0%);fill-opacity:1;">
  <use xlink:href="#glyph2-4" x="406.492775" y="34"/>
</g>
<g style="fill:rgb(0%,0%,0%);fill-opacity:1;">
  <use xlink:href="#glyph3-4" x="406.492775" y="26"/>
</g>
<g style="fill:rgb(0%,0%,0%);fill-opacity:1;">
  <use xlink:href="#glyph3-4" x="406.492775" y="23.294067"/>
</g>
<g style="fill:rgb(0%,0%,0%);fill-opacity:1;">
  <use xlink:href="#glyph2-3" x="427.720368" y="36"/>
</g>
<g style="fill:rgb(0%,0%,0%);fill-opacity:1;">
  <use xlink:href="#glyph4-1" x="438.720368" y="39"/>
</g>
<g style="fill:rgb(0%,0%,0%);fill-opacity:1;">
  <use xlink:href="#glyph4-2" x="445.720368" y="39"/>
</g>
<g style="fill:rgb(0%,0%,0%);fill-opacity:1;">
  <use xlink:href="#glyph3-2" x="460.720368" y="34"/>
</g>
<g style="fill:rgb(0%,0%,0%);fill-opacity:1;">
  <use xlink:href="#glyph3-7" x="470.720368" y="34"/>
</g>
<g style="fill:rgb(0%,0%,0%);fill-opacity:1;">
  <use xlink:href="#glyph2-3" x="480.720368" y="36"/>
</g>
<g style="fill:rgb(0%,0%,0%);fill-opacity:1;">
  <use xlink:href="#glyph4-1" x="491.720368" y="27"/>
</g>
<g style="fill:rgb(0%,0%,0%);fill-opacity:1;">
  <use xlink:href="#glyph4-2" x="498.720368" y="27"/>
</g>
<g style="fill:rgb(0%,0%,0%);fill-opacity:1;">
  <use xlink:href="#glyph3-8" x="505.720368" y="34"/>
</g>
<path style=" stroke:none;fill-rule:evenodd;fill:rgb(0%,0%,0%);fill-opacity:1;" d="M 521.34375 16.632812 L 521.34375 15.820312 C 521.34375 12.652344 521.128906 10.171875 520.699219 8.378906 C 520.261719 6.542969 519.492188 4.75 518.390625 3 L 517.867188 3 C 518.957031 4.734375 519.699219 6.523438 520.097656 8.363281 C 520.460938 10.054688 520.644531 12.542969 520.644531 15.820312 L 520.644531 46.179688 C 520.644531 49.457031 520.460938 51.945312 520.097656 53.636719 C 519.695312 55.492188 518.953125 57.28125 517.867188 59 L 518.390625 59 C 519.492188 57.25 520.261719 55.457031 520.699219 53.621094 C 521.128906 51.828125 521.34375 49.347656 521.34375 46.179688 Z M 521.34375 16.632812 "/>
</g>
</svg>
