<?xml version="1.0" encoding="UTF-8"?>
<svg xmlns="http://www.w3.org/2000/svg" xmlns:xlink="http://www.w3.org/1999/xlink" viewBox="0 0 100 42" version="1.1">
<defs>
<g>
<symbol overflow="visible" id="glyph0-0">
<path style="stroke:none;" d="M 0.804688 -8.578125 L 6.992188 -8.578125 L 6.992188 0 L 0.804688 0 Z M 3.316406 -4.421875 L 1.652344 -7.4375 L 1.652344 -1.429688 Z M 6.136719 -1.429688 L 6.136719 -7.4375 L 4.484375 -4.421875 Z M 5.550781 -0.753906 L 4.601562 -2.46875 L 3.925781 -3.808594 L 3.875 -3.808594 L 3.171875 -2.46875 L 2.210938 -0.753906 Z M 3.925781 -5.03125 L 4.5625 -6.253906 L 5.421875 -7.800781 L 2.367188 -7.800781 L 3.222656 -6.253906 L 3.875 -5.03125 Z M 3.925781 -5.03125 "/>
</symbol>
<symbol overflow="visible" id="glyph0-1">
<path style="stroke:none;" d="M 1.039062 -3.144531 C 1.039062 -3.675781 1.132812 -4.144531 1.320312 -4.554688 C 1.507812 -4.96875 1.757812 -5.316406 2.078125 -5.601562 C 2.398438 -5.886719 2.777344 -6.105469 3.203125 -6.253906 C 3.632812 -6.402344 4.085938 -6.472656 4.5625 -6.472656 C 5.082031 -6.472656 5.53125 -6.382812 5.910156 -6.199219 C 6.285156 -6.019531 6.605469 -5.800781 6.863281 -5.550781 L 6.332031 -4.863281 C 6.070312 -5.085938 5.800781 -5.265625 5.519531 -5.394531 C 5.238281 -5.523438 4.929688 -5.589844 4.601562 -5.589844 C 4.238281 -5.589844 3.90625 -5.53125 3.601562 -5.414062 C 3.296875 -5.296875 3.039062 -5.128906 2.828125 -4.914062 C 2.617188 -4.699219 2.449219 -4.441406 2.328125 -4.140625 C 2.207031 -3.839844 2.144531 -3.511719 2.144531 -3.144531 C 2.144531 -2.78125 2.203125 -2.453125 2.320312 -2.15625 C 2.4375 -1.863281 2.601562 -1.609375 2.816406 -1.398438 C 3.027344 -1.183594 3.28125 -1.019531 3.582031 -0.902344 C 3.878906 -0.785156 4.210938 -0.726562 4.574219 -0.726562 C 4.964844 -0.726562 5.324219 -0.804688 5.648438 -0.957031 C 5.972656 -1.109375 6.269531 -1.296875 6.539062 -1.519531 L 7.007812 -0.832031 C 6.660156 -0.519531 6.273438 -0.277344 5.84375 -0.105469 C 5.414062 0.0703125 4.964844 0.15625 4.496094 0.15625 C 4.003906 0.15625 3.546875 0.0820312 3.125 -0.0664062 C 2.707031 -0.210938 2.339844 -0.425781 2.027344 -0.707031 C 1.714844 -0.988281 1.472656 -1.335938 1.300781 -1.75 C 1.125 -2.160156 1.039062 -2.625 1.039062 -3.144531 Z M 1.039062 -3.144531 "/>
</symbol>
<symbol overflow="visible" id="glyph0-2">
<path style="stroke:none;" d="M 2.378906 -4.484375 L 3.796875 -4.484375 C 4.464844 -4.484375 4.972656 -4.621094 5.324219 -4.894531 C 5.675781 -5.167969 5.851562 -5.582031 5.851562 -6.136719 C 5.851562 -6.699219 5.675781 -7.09375 5.324219 -7.320312 C 4.972656 -7.542969 4.464844 -7.65625 3.796875 -7.65625 L 2.378906 -7.65625 Z M 5.953125 0 L 3.898438 -3.601562 L 2.378906 -3.601562 L 2.378906 0 L 1.300781 0 L 1.300781 -8.527344 L 3.953125 -8.527344 C 4.386719 -8.527344 4.785156 -8.488281 5.148438 -8.40625 C 5.511719 -8.324219 5.824219 -8.1875 6.089844 -7.996094 C 6.355469 -7.804688 6.5625 -7.558594 6.707031 -7.253906 C 6.855469 -6.949219 6.929688 -6.578125 6.929688 -6.136719 C 6.929688 -5.46875 6.753906 -4.9375 6.410156 -4.535156 C 6.0625 -4.136719 5.597656 -3.867188 5.019531 -3.71875 L 7.1875 0 Z M 5.953125 0 "/>
</symbol>
<symbol overflow="visible" id="glyph0-3">
<path style="stroke:none;" d="M 5.160156 -3.472656 L 4.757812 -4.769531 C 4.609375 -5.246094 4.46875 -5.722656 4.328125 -6.195312 C 4.191406 -6.667969 4.050781 -7.148438 3.914062 -7.644531 L 3.859375 -7.644531 C 3.722656 -7.148438 3.582031 -6.667969 3.445312 -6.195312 C 3.304688 -5.722656 3.164062 -5.246094 3.015625 -4.769531 L 2.613281 -3.472656 Z M 5.433594 -2.601562 L 2.339844 -2.601562 L 1.519531 0 L 0.414062 0 L 3.289062 -8.527344 L 4.511719 -8.527344 L 7.382812 0 L 6.238281 0 Z M 5.433594 -2.601562 "/>
</symbol>
<symbol overflow="visible" id="glyph1-0">
<path style="stroke:none;" d="M 0.8125 0 L 0.8125 -9.960938 L 5.6875 -9.960938 L 5.6875 0 Z M 1.625 -0.8125 L 4.875 -0.8125 L 4.875 -9.148438 L 1.625 -9.148438 Z M 1.625 -0.8125 "/>
</symbol>
<symbol overflow="visible" id="glyph1-1">
<path style="stroke:none;" d="M 7.121094 -3.429688 C 7.121094 -2.339844 6.773438 -1.476562 6.070312 -0.832031 C 5.371094 -0.1875 4.515625 0.148438 3.503906 0.179688 L 3.148438 1.847656 L 2.679688 1.847656 L 3.035156 0.171875 C 2.339844 0.117188 1.78125 -0.136719 1.351562 -0.585938 C 0.925781 -1.03125 0.710938 -1.644531 0.710938 -2.417969 C 0.710938 -3.367188 1.042969 -4.167969 1.703125 -4.828125 C 2.367188 -5.484375 3.242188 -5.839844 4.328125 -5.890625 L 4.8125 -8.175781 L 5.273438 -8.175781 L 4.792969 -5.890625 C 5.453125 -5.84375 6.007812 -5.605469 6.453125 -5.171875 C 6.898438 -4.742188 7.121094 -4.160156 7.121094 -3.429688 Z M 4.234375 -5.445312 C 3.316406 -5.398438 2.589844 -5.078125 2.058594 -4.480469 C 1.527344 -3.882812 1.261719 -3.203125 1.261719 -2.4375 C 1.261719 -1.789062 1.445312 -1.277344 1.8125 -0.898438 C 2.179688 -0.519531 2.617188 -0.308594 3.128906 -0.261719 Z M 6.5625 -3.332031 C 6.5625 -3.992188 6.386719 -4.496094 6.035156 -4.847656 C 5.683594 -5.195312 5.238281 -5.394531 4.695312 -5.441406 L 3.59375 -0.261719 C 4.503906 -0.308594 5.226562 -0.617188 5.761719 -1.191406 C 6.296875 -1.765625 6.5625 -2.476562 6.5625 -3.332031 Z M 6.5625 -3.332031 "/>
</symbol>
<symbol overflow="visible" id="glyph1-2">
<path style="stroke:none;" d="M 6.5 -2.628906 L 1.300781 -2.628906 L 1.300781 -3.105469 L 6.5 -3.105469 Z M 6.5 -2.628906 "/>
</symbol>
<symbol overflow="visible" id="glyph1-3">
<path style="stroke:none;" d="M 7.28125 -7.148438 L 3.898438 0.195312 L 0.519531 -7.148438 Z M 6.5625 -6.710938 L 1.238281 -6.710938 L 3.898438 -0.90625 Z M 6.5625 -6.710938 "/>
</symbol>
<symbol overflow="visible" id="glyph2-0">
<path style="stroke:none;" d="M 0.570312 -6.09375 L 4.964844 -6.09375 L 4.964844 0 L 0.570312 0 Z M 2.355469 -3.136719 L 1.171875 -5.28125 L 1.171875 -1.015625 Z M 4.355469 -1.015625 L 4.355469 -5.28125 L 3.183594 -3.136719 Z M 3.941406 -0.535156 L 3.265625 -1.753906 L 2.789062 -2.703125 L 2.75 -2.703125 L 2.253906 -1.753906 L 1.570312 -0.535156 Z M 2.789062 -3.570312 L 3.238281 -4.441406 L 3.847656 -5.539062 L 1.679688 -5.539062 L 2.289062 -4.441406 L 2.75 -3.570312 Z M 2.789062 -3.570312 "/>
</symbol>
<symbol overflow="visible" id="glyph2-1">
<path style="stroke:none;" d="M 0.746094 -1.164062 C 0.746094 -1.414062 0.808594 -1.636719 0.925781 -1.824219 C 1.046875 -2.011719 1.238281 -2.171875 1.5 -2.308594 C 1.761719 -2.441406 2.097656 -2.554688 2.511719 -2.640625 C 2.921875 -2.726562 3.417969 -2.792969 3.996094 -2.84375 C 3.992188 -2.996094 3.964844 -3.140625 3.921875 -3.277344 C 3.878906 -3.414062 3.8125 -3.53125 3.71875 -3.632812 C 3.628906 -3.734375 3.507812 -3.816406 3.355469 -3.875 C 3.203125 -3.9375 3.019531 -3.96875 2.804688 -3.96875 C 2.511719 -3.96875 2.226562 -3.910156 1.957031 -3.796875 C 1.6875 -3.683594 1.445312 -3.5625 1.238281 -3.433594 L 0.941406 -3.949219 C 1.050781 -4.023438 1.183594 -4.101562 1.332031 -4.175781 C 1.484375 -4.253906 1.644531 -4.324219 1.8125 -4.382812 C 1.984375 -4.445312 2.164062 -4.496094 2.355469 -4.535156 C 2.546875 -4.574219 2.738281 -4.597656 2.933594 -4.597656 C 3.550781 -4.597656 4.007812 -4.429688 4.304688 -4.09375 C 4.605469 -3.757812 4.753906 -3.308594 4.753906 -2.75 L 4.753906 0 L 4.136719 0 L 4.070312 -0.609375 L 4.042969 -0.609375 C 3.789062 -0.414062 3.511719 -0.242188 3.207031 -0.101562 C 2.902344 0.0390625 2.589844 0.109375 2.269531 0.109375 C 2.0625 0.109375 1.863281 0.0820312 1.679688 0.0234375 C 1.496094 -0.0351562 1.332031 -0.117188 1.195312 -0.226562 C 1.058594 -0.332031 0.949219 -0.464844 0.867188 -0.621094 C 0.789062 -0.777344 0.746094 -0.960938 0.746094 -1.164062 Z M 1.484375 -1.21875 C 1.484375 -1.089844 1.515625 -0.980469 1.570312 -0.890625 C 1.625 -0.800781 1.695312 -0.726562 1.785156 -0.667969 C 1.875 -0.609375 1.980469 -0.566406 2.101562 -0.539062 C 2.21875 -0.511719 2.34375 -0.5 2.472656 -0.5 C 2.730469 -0.5 2.984375 -0.554688 3.234375 -0.667969 C 3.484375 -0.78125 3.738281 -0.949219 3.996094 -1.164062 L 3.996094 -2.34375 C 3.515625 -2.308594 3.113281 -2.253906 2.792969 -2.1875 C 2.46875 -2.121094 2.210938 -2.039062 2.015625 -1.941406 C 1.824219 -1.847656 1.6875 -1.738281 1.605469 -1.621094 C 1.527344 -1.5 1.484375 -1.367188 1.484375 -1.21875 Z M 1.484375 -1.21875 "/>
</symbol>
<symbol overflow="visible" id="glyph2-2">
<path style="stroke:none;" d="M 0.859375 -6.570312 L 1.617188 -6.570312 L 1.617188 -4.78125 L 1.597656 -3.914062 C 1.8125 -4.121094 2.054688 -4.289062 2.320312 -4.410156 C 2.589844 -4.535156 2.855469 -4.597656 3.121094 -4.597656 C 3.421875 -4.597656 3.6875 -4.542969 3.921875 -4.433594 C 4.15625 -4.328125 4.351562 -4.171875 4.507812 -3.972656 C 4.664062 -3.773438 4.785156 -3.535156 4.863281 -3.253906 C 4.945312 -2.972656 4.984375 -2.660156 4.984375 -2.316406 C 4.984375 -1.933594 4.929688 -1.59375 4.816406 -1.292969 C 4.707031 -0.992188 4.558594 -0.734375 4.371094 -0.527344 C 4.183594 -0.316406 3.964844 -0.160156 3.71875 -0.0507812 C 3.472656 0.0585938 3.21875 0.109375 2.953125 0.109375 C 2.738281 0.109375 2.507812 0.0585938 2.257812 -0.0507812 C 2.007812 -0.160156 1.773438 -0.308594 1.558594 -0.5 L 1.53125 -0.5 L 1.46875 0 L 0.859375 0 Z M 1.617188 -1.050781 C 1.832031 -0.859375 2.046875 -0.726562 2.265625 -0.644531 C 2.484375 -0.566406 2.671875 -0.527344 2.832031 -0.527344 C 3.03125 -0.527344 3.210938 -0.566406 3.378906 -0.652344 C 3.542969 -0.734375 3.6875 -0.851562 3.8125 -1 C 3.933594 -1.152344 4.03125 -1.339844 4.097656 -1.558594 C 4.164062 -1.78125 4.199219 -2.03125 4.199219 -2.308594 C 4.199219 -2.554688 4.175781 -2.777344 4.125 -2.980469 C 4.078125 -3.183594 4 -3.359375 3.898438 -3.503906 C 3.796875 -3.648438 3.667969 -3.757812 3.507812 -3.839844 C 3.347656 -3.917969 3.15625 -3.960938 2.933594 -3.960938 C 2.738281 -3.960938 2.527344 -3.90625 2.304688 -3.796875 C 2.078125 -3.691406 1.847656 -3.519531 1.617188 -3.285156 Z M 1.617188 -1.050781 "/>
</symbol>
<symbol overflow="visible" id="glyph3-0">
<path style="stroke:none;" d="M 0.558594 -5.941406 L 4.84375 -5.941406 L 4.84375 0 L 0.558594 0 Z M 2.296875 -3.058594 L 1.144531 -5.148438 L 1.144531 -0.988281 Z M 4.246094 -0.988281 L 4.246094 -5.148438 L 3.105469 -3.058594 Z M 3.84375 -0.523438 L 3.1875 -1.710938 L 2.71875 -2.636719 L 2.683594 -2.636719 L 2.195312 -1.710938 L 1.53125 -0.523438 Z M 2.71875 -3.484375 L 3.160156 -4.328125 L 3.753906 -5.398438 L 1.636719 -5.398438 L 2.230469 -4.328125 L 2.683594 -3.484375 Z M 2.71875 -3.484375 "/>
</symbol>
<symbol overflow="visible" id="glyph3-1">
<path style="stroke:none;" d="M 0.835938 -6.40625 L 1.574219 -6.40625 L 1.574219 -4.660156 L 1.558594 -3.816406 C 1.765625 -4.019531 2.003906 -4.183594 2.261719 -4.300781 C 2.523438 -4.421875 2.785156 -4.480469 3.042969 -4.480469 C 3.335938 -4.480469 3.597656 -4.429688 3.824219 -4.324219 C 4.054688 -4.21875 4.242188 -4.070312 4.398438 -3.875 C 4.550781 -3.679688 4.664062 -3.445312 4.742188 -3.171875 C 4.820312 -2.898438 4.859375 -2.59375 4.859375 -2.257812 C 4.859375 -1.886719 4.804688 -1.554688 4.699219 -1.261719 C 4.589844 -0.964844 4.445312 -0.71875 4.261719 -0.511719 C 4.078125 -0.308594 3.867188 -0.15625 3.628906 -0.0507812 C 3.386719 0.0546875 3.136719 0.109375 2.878906 0.109375 C 2.667969 0.109375 2.445312 0.0546875 2.199219 -0.0507812 C 1.957031 -0.15625 1.730469 -0.300781 1.519531 -0.484375 L 1.492188 -0.484375 L 1.429688 0 L 0.835938 0 Z M 1.574219 -1.027344 C 1.785156 -0.839844 1.996094 -0.707031 2.210938 -0.628906 C 2.421875 -0.550781 2.605469 -0.511719 2.761719 -0.511719 C 2.953125 -0.511719 3.132812 -0.554688 3.292969 -0.632812 C 3.457031 -0.714844 3.597656 -0.828125 3.71875 -0.976562 C 3.835938 -1.125 3.929688 -1.304688 3.996094 -1.519531 C 4.0625 -1.738281 4.09375 -1.980469 4.09375 -2.25 C 4.09375 -2.488281 4.070312 -2.710938 4.023438 -2.90625 C 3.976562 -3.105469 3.902344 -3.273438 3.800781 -3.414062 C 3.703125 -3.554688 3.574219 -3.664062 3.421875 -3.742188 C 3.265625 -3.820312 3.078125 -3.859375 2.863281 -3.859375 C 2.671875 -3.859375 2.464844 -3.808594 2.246094 -3.703125 C 2.027344 -3.597656 1.804688 -3.433594 1.574219 -3.203125 Z M 1.574219 -1.027344 "/>
</symbol>
<symbol overflow="visible" id="glyph3-2">
<path style="stroke:none;" d="M 0.730469 -1.132812 C 0.730469 -1.378906 0.789062 -1.59375 0.90625 -1.777344 C 1.023438 -1.960938 1.207031 -2.117188 1.460938 -2.25 C 1.71875 -2.382812 2.046875 -2.488281 2.449219 -2.574219 C 2.851562 -2.65625 3.332031 -2.722656 3.898438 -2.773438 C 3.890625 -2.921875 3.867188 -3.0625 3.824219 -3.195312 C 3.78125 -3.328125 3.71875 -3.441406 3.628906 -3.542969 C 3.539062 -3.640625 3.417969 -3.71875 3.273438 -3.78125 C 3.125 -3.839844 2.945312 -3.871094 2.734375 -3.871094 C 2.449219 -3.871094 2.171875 -3.816406 1.90625 -3.703125 C 1.644531 -3.59375 1.410156 -3.472656 1.207031 -3.347656 L 0.917969 -3.851562 C 1.027344 -3.925781 1.152344 -3.996094 1.300781 -4.074219 C 1.449219 -4.148438 1.601562 -4.214844 1.769531 -4.273438 C 1.933594 -4.335938 2.109375 -4.382812 2.296875 -4.421875 C 2.480469 -4.460938 2.671875 -4.480469 2.863281 -4.480469 C 3.460938 -4.480469 3.90625 -4.320312 4.199219 -3.992188 C 4.488281 -3.664062 4.636719 -3.226562 4.636719 -2.683594 L 4.636719 0 L 4.03125 0 L 3.96875 -0.59375 L 3.941406 -0.59375 C 3.695312 -0.402344 3.425781 -0.238281 3.128906 -0.0976562 C 2.832031 0.0390625 2.527344 0.109375 2.214844 0.109375 C 2.011719 0.109375 1.816406 0.078125 1.636719 0.0234375 C 1.457031 -0.0351562 1.300781 -0.117188 1.164062 -0.21875 C 1.03125 -0.324219 0.925781 -0.453125 0.847656 -0.609375 C 0.769531 -0.761719 0.730469 -0.9375 0.730469 -1.132812 Z M 1.449219 -1.1875 C 1.449219 -1.0625 1.476562 -0.957031 1.53125 -0.867188 C 1.585938 -0.78125 1.65625 -0.710938 1.742188 -0.652344 C 1.828125 -0.59375 1.929688 -0.554688 2.046875 -0.527344 C 2.164062 -0.5 2.285156 -0.484375 2.410156 -0.484375 C 2.664062 -0.484375 2.910156 -0.542969 3.15625 -0.652344 C 3.398438 -0.761719 3.644531 -0.925781 3.898438 -1.132812 L 3.898438 -2.285156 C 3.429688 -2.25 3.039062 -2.199219 2.722656 -2.132812 C 2.40625 -2.066406 2.15625 -1.988281 1.964844 -1.894531 C 1.777344 -1.800781 1.644531 -1.695312 1.566406 -1.578125 C 1.488281 -1.460938 1.449219 -1.332031 1.449219 -1.1875 Z M 1.449219 -1.1875 "/>
</symbol>
</g>
</defs>
<g id="surface36">
<g style="fill:rgb(0%,0%,0%);fill-opacity:1;">
  <use xlink:href="#glyph0-1" x="0" y="12"/>
</g>
<g style="fill:rgb(0%,0%,0%);fill-opacity:1;">
  <use xlink:href="#glyph1-1" x="11" y="12"/>
</g>
<g style="fill:rgb(0%,0%,0%);fill-opacity:1;">
  <use xlink:href="#glyph0-2" x="22" y="12"/>
</g>
<g style="fill:rgb(0%,0%,0%);fill-opacity:1;">
  <use xlink:href="#glyph1-2" x="33" y="12"/>
</g>
<g style="fill:rgb(0%,0%,0%);fill-opacity:1;">
  <use xlink:href="#glyph1-3" x="44" y="12"/>
</g>
<g style="fill:rgb(0%,0%,0%);fill-opacity:1;">
  <use xlink:href="#glyph2-1" x="52" y="14.24289"/>
</g>
<g style="fill:rgb(0%,0%,0%);fill-opacity:1;">
  <use xlink:href="#glyph1-3" x="59" y="12"/>
</g>
<g style="fill:rgb(0%,0%,0%);fill-opacity:1;">
  <use xlink:href="#glyph2-1" x="67" y="6.9456"/>
</g>
<g style="fill:rgb(0%,0%,0%);fill-opacity:1;">
  <use xlink:href="#glyph1-1" x="74" y="12"/>
</g>
<g style="fill:rgb(0%,0%,0%);fill-opacity:1;">
  <use xlink:href="#glyph1-3" x="0" y="33"/>
</g>
<g style="fill:rgb(0%,0%,0%);fill-opacity:1;">
  <use xlink:href="#glyph2-2" x="8" y="35.24289"/>
</g>
<g style="fill:rgb(0%,0%,0%);fill-opacity:1;">
  <use xlink:href="#glyph1-3" x="15" y="33"/>
</g>
<g style="fill:rgb(0%,0%,0%);fill-opacity:1;">
  <use xlink:href="#glyph2-1" x="23" y="27.9456"/>
</g>
<g style="fill:rgb(0%,0%,0%);fill-opacity:1;">
  <use xlink:href="#glyph0-3" x="30" y="35"/>
</g>
<g style="fill:rgb(0%,0%,0%);fill-opacity:1;">
  <use xlink:href="#glyph3-1" x="38" y="28"/>
</g>
<g style="fill:rgb(0%,0%,0%);fill-opacity:1;">
  <use xlink:href="#glyph1-2" x="46" y="33"/>
</g>
<g style="fill:rgb(0%,0%,0%);fill-opacity:1;">
  <use xlink:href="#glyph1-3" x="57" y="33"/>
</g>
<g style="fill:rgb(0%,0%,0%);fill-opacity:1;">
  <use xlink:href="#glyph2-2" x="65" y="35.24289"/>
</g>
<g style="fill:rgb(0%,0%,0%);fill-opacity:1;">
  <use xlink:href="#glyph1-3" x="72" y="33"/>
</g>
<g style="fill:rgb(0%,0%,0%);fill-opacity:1;">
  <use xlink:href="#glyph2-2" x="80" y="27.9456"/>
</g>
<g style="fill:rgb(0%,0%,0%);fill-opacity:1;">
  <use xlink:href="#glyph0-3" x="87" y="35"/>
</g>
<g style="fill:rgb(0%,0%,0%);fill-opacity:1;">
  <use xlink:href="#glyph3-2" x="95" y="27.408"/>
</g>
</g>
</svg>
