<?xml version="1.0" encoding="UTF-8"?>
<svg xmlns="http://www.w3.org/2000/svg" xmlns:xlink="http://www.w3.org/1999/xlink" viewBox="0 0 480 74" version="1.1">
<defs>
<g>
<symbol overflow="visible" id="glyph0-0">
<path style="stroke:none;" d="M 0.804688 -8.578125 L 6.992188 -8.578125 L 6.992188 0 L 0.804688 0 Z M 3.316406 -4.421875 L 1.652344 -7.4375 L 1.652344 -1.429688 Z M 6.136719 -1.429688 L 6.136719 -7.4375 L 4.484375 -4.421875 Z M 5.550781 -0.753906 L 4.601562 -2.46875 L 3.925781 -3.808594 L 3.875 -3.808594 L 3.171875 -2.46875 L 2.210938 -0.753906 Z M 3.925781 -5.03125 L 4.5625 -6.253906 L 5.421875 -7.800781 L 2.367188 -7.800781 L 3.222656 -6.253906 L 3.875 -5.03125 Z M 3.925781 -5.03125 "/>
</symbol>
<symbol overflow="visible" id="glyph0-1">
<path style="stroke:none;" d="M 1.753906 -8.527344 L 6.96875 -8.527344 L 6.96875 -7.617188 L 2.835938 -7.617188 L 2.835938 -4.730469 L 6.332031 -4.730469 L 6.332031 -3.820312 L 2.835938 -3.820312 L 2.835938 0 L 1.753906 0 Z M 1.753906 -8.527344 "/>
</symbol>
<symbol overflow="visible" id="glyph0-2">
<path style="stroke:none;" d="M 1.859375 1.054688 C 1.859375 1.382812 2.035156 1.652344 2.386719 1.859375 C 2.738281 2.066406 3.25 2.171875 3.925781 2.171875 C 4.289062 2.171875 4.621094 2.132812 4.914062 2.058594 C 5.207031 1.984375 5.460938 1.890625 5.667969 1.769531 C 5.875 1.648438 6.035156 1.507812 6.140625 1.351562 C 6.25 1.195312 6.304688 1.035156 6.304688 0.871094 C 6.304688 0.566406 6.1875 0.363281 5.949219 0.261719 C 5.710938 0.15625 5.347656 0.105469 4.863281 0.105469 L 3.628906 0.105469 C 3.445312 0.105469 3.273438 0.0976562 3.113281 0.0859375 C 2.953125 0.0703125 2.804688 0.0429688 2.664062 0 C 2.363281 0.164062 2.152344 0.335938 2.035156 0.511719 C 1.917969 0.691406 1.859375 0.871094 1.859375 1.054688 Z M 0.9375 1.15625 C 0.9375 0.90625 1.023438 0.660156 1.203125 0.414062 C 1.378906 0.171875 1.636719 -0.046875 1.976562 -0.246094 L 1.976562 -0.300781 C 1.804688 -0.394531 1.652344 -0.523438 1.519531 -0.6875 C 1.390625 -0.851562 1.324219 -1.070312 1.324219 -1.339844 C 1.324219 -1.539062 1.390625 -1.746094 1.519531 -1.957031 C 1.652344 -2.167969 1.835938 -2.355469 2.078125 -2.523438 L 2.078125 -2.574219 C 1.863281 -2.738281 1.679688 -2.957031 1.527344 -3.230469 C 1.375 -3.503906 1.300781 -3.832031 1.300781 -4.210938 C 1.300781 -4.558594 1.367188 -4.871094 1.5 -5.148438 C 1.636719 -5.425781 1.816406 -5.660156 2.039062 -5.855469 C 2.265625 -6.050781 2.527344 -6.203125 2.828125 -6.3125 C 3.125 -6.421875 3.445312 -6.472656 3.78125 -6.472656 C 4.128906 -6.472656 4.441406 -6.421875 4.71875 -6.316406 L 7.332031 -6.316406 L 7.332031 -5.5 L 5.640625 -5.5 C 5.789062 -5.34375 5.921875 -5.152344 6.046875 -4.925781 C 6.167969 -4.703125 6.226562 -4.449219 6.226562 -4.171875 C 6.226562 -3.835938 6.164062 -3.53125 6.039062 -3.261719 C 5.914062 -2.992188 5.738281 -2.765625 5.519531 -2.582031 C 5.296875 -2.394531 5.039062 -2.25 4.738281 -2.152344 C 4.4375 -2.050781 4.121094 -2.003906 3.78125 -2.003906 C 3.617188 -2.003906 3.441406 -2.023438 3.257812 -2.058594 C 3.070312 -2.097656 2.890625 -2.15625 2.71875 -2.234375 C 2.386719 -2.027344 2.222656 -1.785156 2.222656 -1.507812 C 2.222656 -1.257812 2.335938 -1.074219 2.566406 -0.957031 C 2.796875 -0.839844 3.121094 -0.78125 3.535156 -0.78125 L 4.953125 -0.78125 C 5.769531 -0.78125 6.371094 -0.667969 6.765625 -0.441406 C 7.160156 -0.214844 7.359375 0.164062 7.359375 0.703125 C 7.359375 0.996094 7.277344 1.277344 7.109375 1.546875 C 6.945312 1.816406 6.710938 2.050781 6.410156 2.25 C 6.105469 2.449219 5.738281 2.609375 5.304688 2.730469 C 4.871094 2.851562 4.386719 2.910156 3.847656 2.910156 C 2.921875 2.910156 2.203125 2.761719 1.695312 2.457031 C 1.1875 2.152344 0.9375 1.71875 0.9375 1.15625 Z M 3.78125 -2.71875 C 4.191406 -2.71875 4.535156 -2.851562 4.816406 -3.121094 C 5.097656 -3.390625 5.238281 -3.753906 5.238281 -4.210938 C 5.238281 -4.429688 5.199219 -4.628906 5.121094 -4.808594 C 5.042969 -4.992188 4.941406 -5.148438 4.808594 -5.277344 C 4.679688 -5.40625 4.527344 -5.511719 4.347656 -5.582031 C 4.171875 -5.65625 3.980469 -5.695312 3.78125 -5.695312 C 3.582031 -5.695312 3.394531 -5.65625 3.21875 -5.582031 C 3.039062 -5.507812 2.886719 -5.40625 2.757812 -5.277344 C 2.625 -5.148438 2.523438 -4.992188 2.445312 -4.808594 C 2.367188 -4.628906 2.328125 -4.429688 2.328125 -4.210938 C 2.328125 -3.753906 2.46875 -3.386719 2.757812 -3.121094 C 3.042969 -2.851562 3.382812 -2.71875 3.78125 -2.71875 Z M 3.78125 -2.71875 "/>
</symbol>
<symbol overflow="visible" id="glyph0-3">
<path style="stroke:none;" d="M 4.785156 -3.144531 L 4.785156 -5.71875 C 4.792969 -5.945312 4.800781 -6.191406 4.808594 -6.453125 C 4.816406 -6.71875 4.832031 -6.964844 4.847656 -7.1875 L 4.785156 -7.1875 C 4.65625 -6.988281 4.515625 -6.789062 4.367188 -6.585938 C 4.21875 -6.382812 4.078125 -6.179688 3.9375 -5.980469 L 1.691406 -3.144531 Z M 7.085938 -2.289062 L 5.796875 -2.289062 L 5.796875 0 L 4.785156 0 L 4.785156 -2.289062 L 0.507812 -2.289062 L 0.507812 -3.003906 L 4.652344 -8.292969 L 5.796875 -8.292969 L 5.796875 -3.144531 L 7.085938 -3.144531 Z M 7.085938 -2.289062 "/>
</symbol>
<symbol overflow="visible" id="glyph0-4">
<path style="stroke:none;" d="M 0.78125 -3.144531 C 0.78125 -3.65625 0.859375 -4.117188 1.019531 -4.53125 C 1.179688 -4.941406 1.394531 -5.289062 1.65625 -5.578125 C 1.921875 -5.863281 2.226562 -6.085938 2.574219 -6.238281 C 2.921875 -6.394531 3.28125 -6.472656 3.652344 -6.472656 C 4.042969 -6.472656 4.386719 -6.398438 4.679688 -6.253906 C 4.972656 -6.105469 5.269531 -5.90625 5.5625 -5.65625 L 5.523438 -6.824219 L 5.523438 -9.257812 L 6.589844 -9.257812 L 6.589844 0 L 5.707031 0 L 5.617188 -0.832031 L 5.578125 -0.832031 C 5.316406 -0.5625 5.007812 -0.332031 4.648438 -0.136719 C 4.289062 0.0585938 3.914062 0.15625 3.523438 0.15625 C 3.105469 0.15625 2.730469 0.0820312 2.398438 -0.0664062 C 2.066406 -0.210938 1.777344 -0.425781 1.535156 -0.707031 C 1.292969 -0.988281 1.105469 -1.335938 0.976562 -1.742188 C 0.84375 -2.148438 0.78125 -2.617188 0.78125 -3.144531 Z M 1.886719 -3.160156 C 1.886719 -2.398438 2.046875 -1.800781 2.371094 -1.378906 C 2.695312 -0.953125 3.15625 -0.742188 3.742188 -0.742188 C 4.367188 -0.742188 4.960938 -1.058594 5.523438 -1.691406 L 5.523438 -4.835938 C 5.238281 -5.105469 4.960938 -5.296875 4.6875 -5.40625 C 4.414062 -5.519531 4.136719 -5.578125 3.859375 -5.578125 C 3.582031 -5.578125 3.324219 -5.519531 3.085938 -5.402344 C 2.847656 -5.285156 2.640625 -5.121094 2.464844 -4.90625 C 2.285156 -4.695312 2.144531 -4.441406 2.039062 -4.148438 C 1.9375 -3.851562 1.886719 -3.523438 1.886719 -3.160156 Z M 1.886719 -3.160156 "/>
</symbol>
<symbol overflow="visible" id="glyph0-5">
<path style="stroke:none;" d="M 1.039062 -3.144531 C 1.039062 -3.675781 1.132812 -4.144531 1.320312 -4.554688 C 1.507812 -4.96875 1.757812 -5.316406 2.078125 -5.601562 C 2.398438 -5.886719 2.777344 -6.105469 3.203125 -6.253906 C 3.632812 -6.402344 4.085938 -6.472656 4.5625 -6.472656 C 5.082031 -6.472656 5.53125 -6.382812 5.910156 -6.199219 C 6.285156 -6.019531 6.605469 -5.800781 6.863281 -5.550781 L 6.332031 -4.863281 C 6.070312 -5.085938 5.800781 -5.265625 5.519531 -5.394531 C 5.238281 -5.523438 4.929688 -5.589844 4.601562 -5.589844 C 4.238281 -5.589844 3.90625 -5.53125 3.601562 -5.414062 C 3.296875 -5.296875 3.039062 -5.128906 2.828125 -4.914062 C 2.617188 -4.699219 2.449219 -4.441406 2.328125 -4.140625 C 2.207031 -3.839844 2.144531 -3.511719 2.144531 -3.144531 C 2.144531 -2.78125 2.203125 -2.453125 2.320312 -2.15625 C 2.4375 -1.863281 2.601562 -1.609375 2.816406 -1.398438 C 3.027344 -1.183594 3.28125 -1.019531 3.582031 -0.902344 C 3.878906 -0.785156 4.210938 -0.726562 4.574219 -0.726562 C 4.964844 -0.726562 5.324219 -0.804688 5.648438 -0.957031 C 5.972656 -1.109375 6.269531 -1.296875 6.539062 -1.519531 L 7.007812 -0.832031 C 6.660156 -0.519531 6.273438 -0.277344 5.84375 -0.105469 C 5.414062 0.0703125 4.964844 0.15625 4.496094 0.15625 C 4.003906 0.15625 3.546875 0.0820312 3.125 -0.0664062 C 2.707031 -0.210938 2.339844 -0.425781 2.027344 -0.707031 C 1.714844 -0.988281 1.472656 -1.335938 1.300781 -1.75 C 1.125 -2.160156 1.039062 -2.625 1.039062 -3.144531 Z M 1.039062 -3.144531 "/>
</symbol>
<symbol overflow="visible" id="glyph0-6">
<path style="stroke:none;" d="M 0.949219 -0.636719 C 1.652344 -1.261719 2.273438 -1.824219 2.816406 -2.328125 C 3.355469 -2.828125 3.8125 -3.292969 4.179688 -3.710938 C 4.546875 -4.132812 4.828125 -4.523438 5.019531 -4.886719 C 5.210938 -5.25 5.304688 -5.605469 5.304688 -5.953125 C 5.304688 -6.429688 5.15625 -6.820312 4.863281 -7.125 C 4.566406 -7.425781 4.113281 -7.578125 3.496094 -7.578125 C 3.105469 -7.578125 2.746094 -7.480469 2.410156 -7.285156 C 2.078125 -7.089844 1.777344 -6.855469 1.507812 -6.578125 L 0.898438 -7.1875 C 1.269531 -7.570312 1.671875 -7.875 2.097656 -8.105469 C 2.527344 -8.335938 3.039062 -8.449219 3.628906 -8.449219 C 4.042969 -8.449219 4.417969 -8.390625 4.75 -8.273438 C 5.085938 -8.15625 5.367188 -7.992188 5.601562 -7.78125 C 5.835938 -7.570312 6.015625 -7.308594 6.140625 -7.007812 C 6.265625 -6.703125 6.332031 -6.371094 6.332031 -6.007812 C 6.332031 -5.617188 6.238281 -5.222656 6.050781 -4.828125 C 5.863281 -4.433594 5.601562 -4.027344 5.265625 -3.609375 C 4.925781 -3.1875 4.523438 -2.75 4.054688 -2.292969 C 3.585938 -1.839844 3.074219 -1.355469 2.507812 -0.84375 C 2.761719 -0.863281 3.019531 -0.878906 3.28125 -0.898438 C 3.546875 -0.914062 3.804688 -0.921875 4.054688 -0.921875 L 6.785156 -0.921875 L 6.785156 0 L 0.949219 0 Z M 0.949219 -0.636719 "/>
</symbol>
<symbol overflow="visible" id="glyph0-7">
<path style="stroke:none;" d="M 2.378906 -4.484375 L 3.796875 -4.484375 C 4.464844 -4.484375 4.972656 -4.621094 5.324219 -4.894531 C 5.675781 -5.167969 5.851562 -5.582031 5.851562 -6.136719 C 5.851562 -6.699219 5.675781 -7.09375 5.324219 -7.320312 C 4.972656 -7.542969 4.464844 -7.65625 3.796875 -7.65625 L 2.378906 -7.65625 Z M 5.953125 0 L 3.898438 -3.601562 L 2.378906 -3.601562 L 2.378906 0 L 1.300781 0 L 1.300781 -8.527344 L 3.953125 -8.527344 C 4.386719 -8.527344 4.785156 -8.488281 5.148438 -8.40625 C 5.511719 -8.324219 5.824219 -8.1875 6.089844 -7.996094 C 6.355469 -7.804688 6.5625 -7.558594 6.707031 -7.253906 C 6.855469 -6.949219 6.929688 -6.578125 6.929688 -6.136719 C 6.929688 -5.46875 6.753906 -4.9375 6.410156 -4.535156 C 6.0625 -4.136719 5.597656 -3.867188 5.019531 -3.71875 L 7.1875 0 Z M 5.953125 0 "/>
</symbol>
<symbol overflow="visible" id="glyph0-8">
<path style="stroke:none;" d="M 6.863281 -0.882812 L 6.863281 0 L 1.273438 0 L 1.273438 -0.882812 L 3.628906 -0.882812 L 3.628906 -6.992188 L 1.859375 -6.992188 L 1.859375 -7.683594 C 2.300781 -7.753906 2.6875 -7.835938 3.015625 -7.9375 C 3.34375 -8.035156 3.640625 -8.15625 3.898438 -8.292969 L 4.691406 -8.292969 L 4.691406 -0.882812 Z M 6.863281 -0.882812 "/>
</symbol>
<symbol overflow="visible" id="glyph1-0">
<path style="stroke:none;" d="M 0.558594 -5.941406 L 4.84375 -5.941406 L 4.84375 0 L 0.558594 0 Z M 2.296875 -3.058594 L 1.144531 -5.148438 L 1.144531 -0.988281 Z M 4.246094 -0.988281 L 4.246094 -5.148438 L 3.105469 -3.058594 Z M 3.84375 -0.523438 L 3.1875 -1.710938 L 2.71875 -2.636719 L 2.683594 -2.636719 L 2.195312 -1.710938 L 1.53125 -0.523438 Z M 2.71875 -3.484375 L 3.160156 -4.328125 L 3.753906 -5.398438 L 1.636719 -5.398438 L 2.230469 -4.328125 L 2.683594 -3.484375 Z M 2.71875 -3.484375 "/>
</symbol>
<symbol overflow="visible" id="glyph1-1">
<path style="stroke:none;" d="M 0.71875 -2.179688 C 0.71875 -2.542969 0.785156 -2.871094 0.914062 -3.15625 C 1.042969 -3.441406 1.21875 -3.679688 1.441406 -3.878906 C 1.664062 -4.078125 1.921875 -4.226562 2.21875 -4.328125 C 2.515625 -4.429688 2.828125 -4.480469 3.160156 -4.480469 C 3.519531 -4.480469 3.828125 -4.417969 4.089844 -4.292969 C 4.351562 -4.167969 4.570312 -4.015625 4.753906 -3.84375 L 4.382812 -3.367188 C 4.203125 -3.523438 4.015625 -3.644531 3.820312 -3.734375 C 3.625 -3.824219 3.414062 -3.871094 3.1875 -3.871094 C 2.933594 -3.871094 2.703125 -3.828125 2.492188 -3.75 C 2.28125 -3.667969 2.105469 -3.550781 1.957031 -3.402344 C 1.808594 -3.253906 1.695312 -3.074219 1.609375 -2.867188 C 1.527344 -2.660156 1.484375 -2.429688 1.484375 -2.179688 C 1.484375 -1.925781 1.527344 -1.699219 1.605469 -1.492188 C 1.6875 -1.289062 1.800781 -1.113281 1.949219 -0.96875 C 2.097656 -0.820312 2.273438 -0.707031 2.480469 -0.625 C 2.6875 -0.542969 2.914062 -0.503906 3.167969 -0.503906 C 3.4375 -0.503906 3.683594 -0.554688 3.910156 -0.660156 C 4.136719 -0.765625 4.339844 -0.898438 4.527344 -1.054688 L 4.851562 -0.574219 C 4.609375 -0.359375 4.34375 -0.191406 4.046875 -0.0703125 C 3.75 0.046875 3.4375 0.109375 3.113281 0.109375 C 2.773438 0.109375 2.457031 0.0585938 2.164062 -0.046875 C 1.875 -0.148438 1.621094 -0.296875 1.402344 -0.492188 C 1.1875 -0.6875 1.019531 -0.925781 0.898438 -1.210938 C 0.78125 -1.496094 0.71875 -1.816406 0.71875 -2.179688 Z M 0.71875 -2.179688 "/>
</symbol>
<symbol overflow="visible" id="glyph1-2">
<path style="stroke:none;" d="M 0.730469 -1.132812 C 0.730469 -1.378906 0.789062 -1.59375 0.90625 -1.777344 C 1.023438 -1.960938 1.207031 -2.117188 1.460938 -2.25 C 1.71875 -2.382812 2.046875 -2.488281 2.449219 -2.574219 C 2.851562 -2.65625 3.332031 -2.722656 3.898438 -2.773438 C 3.890625 -2.921875 3.867188 -3.0625 3.824219 -3.195312 C 3.78125 -3.328125 3.71875 -3.441406 3.628906 -3.542969 C 3.539062 -3.640625 3.417969 -3.71875 3.273438 -3.78125 C 3.125 -3.839844 2.945312 -3.871094 2.734375 -3.871094 C 2.449219 -3.871094 2.171875 -3.816406 1.90625 -3.703125 C 1.644531 -3.59375 1.410156 -3.472656 1.207031 -3.347656 L 0.917969 -3.851562 C 1.027344 -3.925781 1.152344 -3.996094 1.300781 -4.074219 C 1.449219 -4.148438 1.601562 -4.214844 1.769531 -4.273438 C 1.933594 -4.335938 2.109375 -4.382812 2.296875 -4.421875 C 2.480469 -4.460938 2.671875 -4.480469 2.863281 -4.480469 C 3.460938 -4.480469 3.90625 -4.320312 4.199219 -3.992188 C 4.488281 -3.664062 4.636719 -3.226562 4.636719 -2.683594 L 4.636719 0 L 4.03125 0 L 3.96875 -0.59375 L 3.941406 -0.59375 C 3.695312 -0.402344 3.425781 -0.238281 3.128906 -0.0976562 C 2.832031 0.0390625 2.527344 0.109375 2.214844 0.109375 C 2.011719 0.109375 1.816406 0.078125 1.636719 0.0234375 C 1.457031 -0.0351562 1.300781 -0.117188 1.164062 -0.21875 C 1.03125 -0.324219 0.925781 -0.453125 0.847656 -0.609375 C 0.769531 -0.761719 0.730469 -0.9375 0.730469 -1.132812 Z M 1.449219 -1.1875 C 1.449219 -1.0625 1.476562 -0.957031 1.53125 -0.867188 C 1.585938 -0.78125 1.65625 -0.710938 1.742188 -0.652344 C 1.828125 -0.59375 1.929688 -0.554688 2.046875 -0.527344 C 2.164062 -0.5 2.285156 -0.484375 2.410156 -0.484375 C 2.664062 -0.484375 2.910156 -0.542969 3.15625 -0.652344 C 3.398438 -0.761719 3.644531 -0.925781 3.898438 -1.132812 L 3.898438 -2.285156 C 3.429688 -2.25 3.039062 -2.199219 2.722656 -2.132812 C 2.40625 -2.066406 2.15625 -1.988281 1.964844 -1.894531 C 1.777344 -1.800781 1.644531 -1.695312 1.566406 -1.578125 C 1.488281 -1.460938 1.449219 -1.332031 1.449219 -1.1875 Z M 1.449219 -1.1875 "/>
</symbol>
<symbol overflow="visible" id="glyph1-3">
<path style="stroke:none;" d="M 0.835938 -6.40625 L 1.574219 -6.40625 L 1.574219 -4.660156 L 1.558594 -3.816406 C 1.765625 -4.019531 2.003906 -4.183594 2.261719 -4.300781 C 2.523438 -4.421875 2.785156 -4.480469 3.042969 -4.480469 C 3.335938 -4.480469 3.597656 -4.429688 3.824219 -4.324219 C 4.054688 -4.21875 4.242188 -4.070312 4.398438 -3.875 C 4.550781 -3.679688 4.664062 -3.445312 4.742188 -3.171875 C 4.820312 -2.898438 4.859375 -2.59375 4.859375 -2.257812 C 4.859375 -1.886719 4.804688 -1.554688 4.699219 -1.261719 C 4.589844 -0.964844 4.445312 -0.71875 4.261719 -0.511719 C 4.078125 -0.308594 3.867188 -0.15625 3.628906 -0.0507812 C 3.386719 0.0546875 3.136719 0.109375 2.878906 0.109375 C 2.667969 0.109375 2.445312 0.0546875 2.199219 -0.0507812 C 1.957031 -0.15625 1.730469 -0.300781 1.519531 -0.484375 L 1.492188 -0.484375 L 1.429688 0 L 0.835938 0 Z M 1.574219 -1.027344 C 1.785156 -0.839844 1.996094 -0.707031 2.210938 -0.628906 C 2.421875 -0.550781 2.605469 -0.511719 2.761719 -0.511719 C 2.953125 -0.511719 3.132812 -0.554688 3.292969 -0.632812 C 3.457031 -0.714844 3.597656 -0.828125 3.71875 -0.976562 C 3.835938 -1.125 3.929688 -1.304688 3.996094 -1.519531 C 4.0625 -1.738281 4.09375 -1.980469 4.09375 -2.25 C 4.09375 -2.488281 4.070312 -2.710938 4.023438 -2.90625 C 3.976562 -3.105469 3.902344 -3.273438 3.800781 -3.414062 C 3.703125 -3.554688 3.574219 -3.664062 3.421875 -3.742188 C 3.265625 -3.820312 3.078125 -3.859375 2.863281 -3.859375 C 2.671875 -3.859375 2.464844 -3.808594 2.246094 -3.703125 C 2.027344 -3.597656 1.804688 -3.433594 1.574219 -3.203125 Z M 1.574219 -1.027344 "/>
</symbol>
<symbol overflow="visible" id="glyph1-4">
<path style="stroke:none;" d="M 0.539062 -2.179688 C 0.539062 -2.53125 0.59375 -2.851562 0.707031 -3.136719 C 0.816406 -3.421875 0.964844 -3.664062 1.148438 -3.859375 C 1.332031 -4.058594 1.542969 -4.210938 1.78125 -4.320312 C 2.023438 -4.429688 2.269531 -4.480469 2.527344 -4.480469 C 2.796875 -4.480469 3.035156 -4.429688 3.238281 -4.328125 C 3.445312 -4.226562 3.648438 -4.089844 3.851562 -3.914062 L 3.824219 -4.726562 L 3.824219 -6.40625 L 4.5625 -6.40625 L 4.5625 0 L 3.949219 0 L 3.886719 -0.574219 L 3.859375 -0.574219 C 3.679688 -0.390625 3.464844 -0.230469 3.21875 -0.09375 C 2.96875 0.0390625 2.710938 0.109375 2.4375 0.109375 C 2.152344 0.109375 1.890625 0.0585938 1.660156 -0.046875 C 1.429688 -0.148438 1.230469 -0.296875 1.0625 -0.492188 C 0.894531 -0.6875 0.765625 -0.925781 0.675781 -1.207031 C 0.585938 -1.488281 0.539062 -1.8125 0.539062 -2.179688 Z M 1.304688 -2.1875 C 1.304688 -1.660156 1.417969 -1.246094 1.640625 -0.953125 C 1.867188 -0.660156 2.183594 -0.511719 2.59375 -0.511719 C 3.023438 -0.511719 3.433594 -0.730469 3.824219 -1.171875 L 3.824219 -3.347656 C 3.625 -3.535156 3.433594 -3.664062 3.246094 -3.742188 C 3.054688 -3.820312 2.863281 -3.859375 2.671875 -3.859375 C 2.480469 -3.859375 2.300781 -3.820312 2.136719 -3.738281 C 1.972656 -3.65625 1.828125 -3.542969 1.707031 -3.398438 C 1.582031 -3.25 1.484375 -3.074219 1.414062 -2.871094 C 1.339844 -2.667969 1.304688 -2.4375 1.304688 -2.1875 Z M 1.304688 -2.1875 "/>
</symbol>
<symbol overflow="visible" id="glyph2-0">
<path style="stroke:none;" d="M 0.8125 0 L 0.8125 -9.960938 L 5.6875 -9.960938 L 5.6875 0 Z M 1.625 -0.8125 L 4.875 -0.8125 L 4.875 -9.148438 L 1.625 -9.148438 Z M 1.625 -0.8125 "/>
</symbol>
<symbol overflow="visible" id="glyph2-1">
<path style="stroke:none;" d="M 6.5 -2.628906 L 1.300781 -2.628906 L 1.300781 -3.105469 L 6.5 -3.105469 Z M 6.5 -2.628906 "/>
</symbol>
<symbol overflow="visible" id="glyph2-2">
<path style="stroke:none;" d="M 5.941406 -8.125 C 5.578125 -7.4375 5.195312 -6.59375 4.789062 -5.582031 C 4.386719 -4.574219 4.183594 -3.667969 4.183594 -2.863281 C 4.183594 -1.933594 4.355469 -1.023438 4.703125 -0.136719 C 5.050781 0.75 5.4375 1.597656 5.867188 2.40625 L 5.445312 2.40625 C 4.949219 1.644531 4.523438 0.808594 4.164062 -0.101562 C 3.804688 -1.011719 3.625 -1.933594 3.625 -2.863281 C 3.625 -3.824219 3.8125 -4.742188 4.191406 -5.625 C 4.570312 -6.503906 5.015625 -7.335938 5.523438 -8.125 Z M 5.941406 -8.125 "/>
</symbol>
<symbol overflow="visible" id="glyph2-3">
<path style="stroke:none;" d="M 6.5 -2.628906 L 4.132812 -2.628906 L 4.132812 -0.261719 L 3.648438 -0.261719 L 3.648438 -2.628906 L 1.300781 -2.628906 L 1.300781 -3.105469 L 3.648438 -3.105469 L 3.648438 -5.460938 L 4.132812 -5.460938 L 4.132812 -3.105469 L 6.5 -3.105469 Z M 6.5 -2.628906 "/>
</symbol>
<symbol overflow="visible" id="glyph2-4">
<path style="stroke:none;" d="M 4.183594 -2.863281 C 4.183594 -1.921875 4 -0.996094 3.632812 -0.078125 C 3.261719 0.839844 2.839844 1.667969 2.367188 2.40625 L 1.949219 2.40625 C 2.402344 1.53125 2.792969 0.683594 3.125 -0.136719 C 3.457031 -0.957031 3.625 -1.863281 3.625 -2.863281 C 3.625 -3.824219 3.4375 -4.742188 3.058594 -5.625 C 2.683594 -6.503906 2.289062 -7.335938 1.871094 -8.125 L 2.285156 -8.125 C 2.796875 -7.347656 3.242188 -6.511719 3.617188 -5.625 C 3.996094 -4.734375 4.183594 -3.816406 4.183594 -2.863281 Z M 4.183594 -2.863281 "/>
</symbol>
<symbol overflow="visible" id="glyph2-5">
<path style="stroke:none;" d="M 5.992188 5.359375 L 5.578125 5.359375 C 4.921875 3.921875 4.433594 2.503906 4.105469 1.101562 C 3.777344 -0.300781 3.613281 -1.617188 3.613281 -2.851562 C 3.613281 -4.277344 3.777344 -5.632812 4.109375 -6.921875 C 4.441406 -8.210938 4.933594 -9.589844 5.578125 -11.0625 L 5.992188 -11.0625 C 5.492188 -9.894531 5.0625 -8.597656 4.707031 -7.167969 C 4.347656 -5.738281 4.171875 -4.300781 4.171875 -2.863281 C 4.171875 -1.617188 4.292969 -0.375 4.542969 0.871094 C 4.789062 2.117188 5.273438 3.613281 5.992188 5.359375 Z M 5.992188 5.359375 "/>
</symbol>
<symbol overflow="visible" id="glyph2-6">
<path style="stroke:none;" d="M 7.121094 -3.429688 C 7.121094 -2.339844 6.773438 -1.476562 6.070312 -0.832031 C 5.371094 -0.1875 4.515625 0.148438 3.503906 0.179688 L 3.148438 1.847656 L 2.679688 1.847656 L 3.035156 0.171875 C 2.339844 0.117188 1.78125 -0.136719 1.351562 -0.585938 C 0.925781 -1.03125 0.710938 -1.644531 0.710938 -2.417969 C 0.710938 -3.367188 1.042969 -4.167969 1.703125 -4.828125 C 2.367188 -5.484375 3.242188 -5.839844 4.328125 -5.890625 L 4.8125 -8.175781 L 5.273438 -8.175781 L 4.792969 -5.890625 C 5.453125 -5.84375 6.007812 -5.605469 6.453125 -5.171875 C 6.898438 -4.742188 7.121094 -4.160156 7.121094 -3.429688 Z M 4.234375 -5.445312 C 3.316406 -5.398438 2.589844 -5.078125 2.058594 -4.480469 C 1.527344 -3.882812 1.261719 -3.203125 1.261719 -2.4375 C 1.261719 -1.789062 1.445312 -1.277344 1.8125 -0.898438 C 2.179688 -0.519531 2.617188 -0.308594 3.128906 -0.261719 Z M 6.5625 -3.332031 C 6.5625 -3.992188 6.386719 -4.496094 6.035156 -4.847656 C 5.683594 -5.195312 5.238281 -5.394531 4.695312 -5.441406 L 3.59375 -0.261719 C 4.503906 -0.308594 5.226562 -0.617188 5.761719 -1.191406 C 6.296875 -1.765625 6.5625 -2.476562 6.5625 -3.332031 Z M 6.5625 -3.332031 "/>
</symbol>
<symbol overflow="visible" id="glyph2-7">
<path style="stroke:none;" d="M 7.28125 -7.148438 L 3.898438 0.195312 L 0.519531 -7.148438 Z M 6.5625 -6.710938 L 1.238281 -6.710938 L 3.898438 -0.90625 Z M 6.5625 -6.710938 "/>
</symbol>
<symbol overflow="visible" id="glyph2-8">
<path style="stroke:none;" d="M 4.183594 -2.851562 C 4.183594 -1.550781 4 -0.171875 3.636719 1.285156 C 3.273438 2.742188 2.800781 4.101562 2.222656 5.359375 L 1.808594 5.359375 C 2.402344 3.90625 2.851562 2.507812 3.160156 1.160156 C 3.46875 -0.1875 3.625 -1.53125 3.625 -2.863281 C 3.625 -4.082031 3.492188 -5.339844 3.226562 -6.644531 C 2.957031 -7.945312 2.484375 -9.417969 1.808594 -11.0625 L 2.222656 -11.0625 C 2.859375 -9.628906 3.347656 -8.238281 3.679688 -6.894531 C 4.015625 -5.546875 4.183594 -4.199219 4.183594 -2.851562 Z M 4.183594 -2.851562 "/>
</symbol>
<symbol overflow="visible" id="glyph3-0">
<path style="stroke:none;" d="M 0.570312 -6.09375 L 4.964844 -6.09375 L 4.964844 0 L 0.570312 0 Z M 2.355469 -3.136719 L 1.171875 -5.28125 L 1.171875 -1.015625 Z M 4.355469 -1.015625 L 4.355469 -5.28125 L 3.183594 -3.136719 Z M 3.941406 -0.535156 L 3.265625 -1.753906 L 2.789062 -2.703125 L 2.75 -2.703125 L 2.253906 -1.753906 L 1.570312 -0.535156 Z M 2.789062 -3.570312 L 3.238281 -4.441406 L 3.847656 -5.539062 L 1.679688 -5.539062 L 2.289062 -4.441406 L 2.75 -3.570312 Z M 2.789062 -3.570312 "/>
</symbol>
<symbol overflow="visible" id="glyph3-1">
<path style="stroke:none;" d="M 4.875 -0.628906 L 4.875 0 L 0.90625 0 L 0.90625 -0.628906 L 2.574219 -0.628906 L 2.574219 -4.964844 L 1.320312 -4.964844 L 1.320312 -5.453125 C 1.632812 -5.503906 1.90625 -5.5625 2.140625 -5.636719 C 2.375 -5.707031 2.585938 -5.789062 2.769531 -5.890625 L 3.332031 -5.890625 L 3.332031 -0.628906 Z M 4.875 -0.628906 "/>
</symbol>
<symbol overflow="visible" id="glyph3-2">
<path style="stroke:none;" d="M 3.398438 -2.234375 L 3.398438 -4.0625 C 3.402344 -4.222656 3.410156 -4.394531 3.414062 -4.582031 C 3.421875 -4.769531 3.429688 -4.945312 3.441406 -5.105469 L 3.398438 -5.105469 C 3.304688 -4.964844 3.207031 -4.820312 3.101562 -4.675781 C 2.996094 -4.53125 2.894531 -4.386719 2.796875 -4.246094 L 1.199219 -2.234375 Z M 5.03125 -1.625 L 4.117188 -1.625 L 4.117188 0 L 3.398438 0 L 3.398438 -1.625 L 0.359375 -1.625 L 0.359375 -2.132812 L 3.304688 -5.890625 L 4.117188 -5.890625 L 4.117188 -2.234375 L 5.03125 -2.234375 Z M 5.03125 -1.625 "/>
</symbol>
<symbol overflow="visible" id="glyph3-3">
<path style="stroke:none;" d="M 0.671875 -0.453125 C 1.171875 -0.894531 1.613281 -1.296875 2 -1.652344 C 2.382812 -2.007812 2.707031 -2.335938 2.96875 -2.636719 C 3.230469 -2.933594 3.425781 -3.210938 3.5625 -3.46875 C 3.699219 -3.726562 3.765625 -3.980469 3.765625 -4.226562 C 3.765625 -4.566406 3.660156 -4.84375 3.453125 -5.058594 C 3.242188 -5.273438 2.917969 -5.382812 2.484375 -5.382812 C 2.207031 -5.382812 1.949219 -5.3125 1.710938 -5.171875 C 1.476562 -5.035156 1.261719 -4.867188 1.070312 -4.671875 L 0.636719 -5.105469 C 0.902344 -5.375 1.1875 -5.59375 1.492188 -5.753906 C 1.796875 -5.917969 2.15625 -6 2.574219 -6 C 2.871094 -6 3.136719 -5.957031 3.375 -5.875 C 3.609375 -5.792969 3.8125 -5.675781 3.976562 -5.523438 C 4.144531 -5.375 4.273438 -5.191406 4.359375 -4.976562 C 4.449219 -4.761719 4.496094 -4.523438 4.496094 -4.265625 C 4.496094 -3.988281 4.429688 -3.707031 4.296875 -3.429688 C 4.164062 -3.148438 3.976562 -2.859375 3.738281 -2.5625 C 3.5 -2.261719 3.210938 -1.953125 2.878906 -1.628906 C 2.546875 -1.304688 2.179688 -0.964844 1.78125 -0.601562 C 1.960938 -0.613281 2.144531 -0.625 2.332031 -0.636719 C 2.519531 -0.648438 2.703125 -0.65625 2.878906 -0.65625 L 4.816406 -0.65625 L 4.816406 0 L 0.671875 0 Z M 0.671875 -0.453125 "/>
</symbol>
<symbol overflow="visible" id="glyph3-4">
<path style="stroke:none;" d="M 0.746094 -1.164062 C 0.746094 -1.414062 0.808594 -1.636719 0.925781 -1.824219 C 1.046875 -2.011719 1.238281 -2.171875 1.5 -2.308594 C 1.761719 -2.441406 2.097656 -2.554688 2.511719 -2.640625 C 2.921875 -2.726562 3.417969 -2.792969 3.996094 -2.84375 C 3.992188 -2.996094 3.964844 -3.140625 3.921875 -3.277344 C 3.878906 -3.414062 3.8125 -3.53125 3.71875 -3.632812 C 3.628906 -3.734375 3.507812 -3.816406 3.355469 -3.875 C 3.203125 -3.9375 3.019531 -3.96875 2.804688 -3.96875 C 2.511719 -3.96875 2.226562 -3.910156 1.957031 -3.796875 C 1.6875 -3.683594 1.445312 -3.5625 1.238281 -3.433594 L 0.941406 -3.949219 C 1.050781 -4.023438 1.183594 -4.101562 1.332031 -4.175781 C 1.484375 -4.253906 1.644531 -4.324219 1.8125 -4.382812 C 1.984375 -4.445312 2.164062 -4.496094 2.355469 -4.535156 C 2.546875 -4.574219 2.738281 -4.597656 2.933594 -4.597656 C 3.550781 -4.597656 4.007812 -4.429688 4.304688 -4.09375 C 4.605469 -3.757812 4.753906 -3.308594 4.753906 -2.75 L 4.753906 0 L 4.136719 0 L 4.070312 -0.609375 L 4.042969 -0.609375 C 3.789062 -0.414062 3.511719 -0.242188 3.207031 -0.101562 C 2.902344 0.0390625 2.589844 0.109375 2.269531 0.109375 C 2.0625 0.109375 1.863281 0.0820312 1.679688 0.0234375 C 1.496094 -0.0351562 1.332031 -0.117188 1.195312 -0.226562 C 1.058594 -0.332031 0.949219 -0.464844 0.867188 -0.621094 C 0.789062 -0.777344 0.746094 -0.960938 0.746094 -1.164062 Z M 1.484375 -1.21875 C 1.484375 -1.089844 1.515625 -0.980469 1.570312 -0.890625 C 1.625 -0.800781 1.695312 -0.726562 1.785156 -0.667969 C 1.875 -0.609375 1.980469 -0.566406 2.101562 -0.539062 C 2.21875 -0.511719 2.34375 -0.5 2.472656 -0.5 C 2.730469 -0.5 2.984375 -0.554688 3.234375 -0.667969 C 3.484375 -0.78125 3.738281 -0.949219 3.996094 -1.164062 L 3.996094 -2.34375 C 3.515625 -2.308594 3.113281 -2.253906 2.792969 -2.1875 C 2.46875 -2.121094 2.210938 -2.039062 2.015625 -1.941406 C 1.824219 -1.847656 1.6875 -1.738281 1.605469 -1.621094 C 1.527344 -1.5 1.484375 -1.367188 1.484375 -1.21875 Z M 1.484375 -1.21875 "/>
</symbol>
</g>
</defs>
<g id="surface21">
<g style="fill:rgb(0%,0%,0%);fill-opacity:1;">
  <use xlink:href="#glyph0-1" x="3" y="16"/>
</g>
<g style="fill:rgb(0%,0%,0%);fill-opacity:1;">
  <use xlink:href="#glyph1-1" x="16" y="8.408"/>
</g>
<g style="fill:rgb(0%,0%,0%);fill-opacity:1;">
  <use xlink:href="#glyph1-2" x="11" y="17.408"/>
</g>
<g style="fill:rgb(0%,0%,0%);fill-opacity:1;">
  <use xlink:href="#glyph0-1" x="30" y="16"/>
</g>
<g style="fill:rgb(0%,0%,0%);fill-opacity:1;">
  <use xlink:href="#glyph1-3" x="38" y="18"/>
</g>
<g style="fill:rgb(0%,0%,0%);fill-opacity:1;">
  <use xlink:href="#glyph1-1" x="43" y="18"/>
</g>
<g style="fill:rgb(0%,0%,0%);fill-opacity:1;">
  <use xlink:href="#glyph2-1" x="51" y="14"/>
</g>
<path style="fill:none;stroke-width:0.476074;stroke-linecap:square;stroke-linejoin:miter;stroke:rgb(0%,0%,0%);stroke-opacity:1;stroke-miterlimit:10;" d="M 64.238281 10.632812 L 69.761719 10.632812 "/>
<g style="fill:rgb(0%,0%,0%);fill-opacity:1;">
  <use xlink:href="#glyph3-1" x="64.5" y="8"/>
</g>
<g style="fill:rgb(0%,0%,0%);fill-opacity:1;">
  <use xlink:href="#glyph3-2" x="64.5" y="22"/>
</g>
<g style="fill:rgb(0%,0%,0%);fill-opacity:1;">
  <use xlink:href="#glyph0-1" x="79" y="16"/>
</g>
<g style="fill:rgb(0%,0%,0%);fill-opacity:1;">
  <use xlink:href="#glyph1-1" x="87" y="18"/>
</g>
<g style="fill:rgb(0%,0%,0%);fill-opacity:1;">
  <use xlink:href="#glyph1-4" x="92" y="18"/>
</g>
<g style="fill:rgb(0%,0%,0%);fill-opacity:1;">
  <use xlink:href="#glyph0-1" x="106" y="16"/>
</g>
<g style="fill:rgb(0%,0%,0%);fill-opacity:1;">
  <use xlink:href="#glyph1-1" x="114" y="9"/>
</g>
<g style="fill:rgb(0%,0%,0%);fill-opacity:1;">
  <use xlink:href="#glyph1-4" x="119" y="9"/>
</g>
<g style="fill:rgb(0%,0%,0%);fill-opacity:1;">
  <use xlink:href="#glyph0-2" x="133" y="13.5"/>
</g>
<g style="fill:rgb(0%,0%,0%);fill-opacity:1;">
  <use xlink:href="#glyph1-2" x="141" y="18"/>
</g>
<g style="fill:rgb(0%,0%,0%);fill-opacity:1;">
  <use xlink:href="#glyph1-3" x="146" y="18"/>
</g>
<g style="fill:rgb(0%,0%,0%);fill-opacity:1;">
  <use xlink:href="#glyph2-1" x="0" y="40"/>
</g>
<path style="fill:none;stroke-width:0.476074;stroke-linecap:square;stroke-linejoin:miter;stroke:rgb(0%,0%,0%);stroke-opacity:1;stroke-miterlimit:10;" d="M 11.238281 36.632812 L 16.761719 36.632812 "/>
<g style="fill:rgb(0%,0%,0%);fill-opacity:1;">
  <use xlink:href="#glyph3-1" x="11.5" y="34"/>
</g>
<g style="fill:rgb(0%,0%,0%);fill-opacity:1;">
  <use xlink:href="#glyph3-2" x="11.5" y="48"/>
</g>
<g style="fill:rgb(0%,0%,0%);fill-opacity:1;">
  <use xlink:href="#glyph2-2" x="23" y="40"/>
</g>
<g style="fill:rgb(0%,0%,0%);fill-opacity:1;">
  <use xlink:href="#glyph2-1" x="31" y="40"/>
</g>
<g style="fill:rgb(0%,0%,0%);fill-opacity:1;">
  <use xlink:href="#glyph0-3" x="40" y="40"/>
</g>
<g style="fill:rgb(0%,0%,0%);fill-opacity:1;">
  <use xlink:href="#glyph2-3" x="51" y="40"/>
</g>
<g style="fill:rgb(0%,0%,0%);fill-opacity:1;">
  <use xlink:href="#glyph0-4" x="62" y="40"/>
</g>
<g style="fill:rgb(0%,0%,0%);fill-opacity:1;">
  <use xlink:href="#glyph2-4" x="70" y="40"/>
</g>
<g style="fill:rgb(0%,0%,0%);fill-opacity:1;">
  <use xlink:href="#glyph0-1" x="84" y="42"/>
</g>
<g style="fill:rgb(0%,0%,0%);fill-opacity:1;">
  <use xlink:href="#glyph1-2" x="92" y="44"/>
</g>
<g style="fill:rgb(0%,0%,0%);fill-opacity:1;">
  <use xlink:href="#glyph1-3" x="97" y="44"/>
</g>
<g style="fill:rgb(0%,0%,0%);fill-opacity:1;">
  <use xlink:href="#glyph0-1" x="111" y="42"/>
</g>
<g style="fill:rgb(0%,0%,0%);fill-opacity:1;">
  <use xlink:href="#glyph1-2" x="119" y="35"/>
</g>
<g style="fill:rgb(0%,0%,0%);fill-opacity:1;">
  <use xlink:href="#glyph1-3" x="124" y="35"/>
</g>
<path style="fill:none;stroke-width:0.476074;stroke-linecap:square;stroke-linejoin:miter;stroke:rgb(0%,0%,0%);stroke-opacity:1;stroke-miterlimit:10;" d="M 2.238281 61.632812 L 7.761719 61.632812 "/>
<g style="fill:rgb(0%,0%,0%);fill-opacity:1;">
  <use xlink:href="#glyph3-1" x="2.5" y="59"/>
</g>
<g style="fill:rgb(0%,0%,0%);fill-opacity:1;">
  <use xlink:href="#glyph3-3" x="2.5" y="73"/>
</g>
<g style="fill:rgb(0%,0%,0%);fill-opacity:1;">
  <use xlink:href="#glyph2-5" x="14" y="65"/>
</g>
<g style="fill:rgb(0%,0%,0%);fill-opacity:1;">
  <use xlink:href="#glyph2-1" x="22" y="65"/>
</g>
<g style="fill:rgb(0%,0%,0%);fill-opacity:1;">
  <use xlink:href="#glyph0-5" x="31" y="65"/>
</g>
<g style="fill:rgb(0%,0%,0%);fill-opacity:1;">
  <use xlink:href="#glyph2-2" x="42" y="65"/>
</g>
<g style="fill:rgb(0%,0%,0%);fill-opacity:1;">
  <use xlink:href="#glyph2-1" x="50" y="65"/>
</g>
<g style="fill:rgb(0%,0%,0%);fill-opacity:1;">
  <use xlink:href="#glyph0-6" x="59" y="65"/>
</g>
<g style="fill:rgb(0%,0%,0%);fill-opacity:1;">
  <use xlink:href="#glyph2-3" x="70" y="65"/>
</g>
<g style="fill:rgb(0%,0%,0%);fill-opacity:1;">
  <use xlink:href="#glyph0-4" x="81" y="65"/>
</g>
<g style="fill:rgb(0%,0%,0%);fill-opacity:1;">
  <use xlink:href="#glyph2-4" x="89" y="65"/>
</g>
<g style="fill:rgb(0%,0%,0%);fill-opacity:1;">
  <use xlink:href="#glyph2-6" x="100" y="65"/>
</g>
<g style="fill:rgb(0%,0%,0%);fill-opacity:1;">
  <use xlink:href="#glyph3-3" x="108" y="59.9456"/>
</g>
<g style="fill:rgb(0%,0%,0%);fill-opacity:1;">
  <use xlink:href="#glyph0-7" x="118" y="65"/>
</g>
<g style="fill:rgb(0%,0%,0%);fill-opacity:1;">
  <use xlink:href="#glyph2-3" x="129" y="65"/>
</g>
<g style="fill:rgb(0%,0%,0%);fill-opacity:1;">
  <use xlink:href="#glyph0-3" x="140" y="65"/>
</g>
<g style="fill:rgb(0%,0%,0%);fill-opacity:1;">
  <use xlink:href="#glyph0-5" x="151" y="65"/>
</g>
<g style="fill:rgb(0%,0%,0%);fill-opacity:1;">
  <use xlink:href="#glyph2-2" x="162" y="65"/>
</g>
<g style="fill:rgb(0%,0%,0%);fill-opacity:1;">
  <use xlink:href="#glyph2-1" x="170" y="65"/>
</g>
<g style="fill:rgb(0%,0%,0%);fill-opacity:1;">
  <use xlink:href="#glyph0-8" x="179" y="65"/>
</g>
<g style="fill:rgb(0%,0%,0%);fill-opacity:1;">
  <use xlink:href="#glyph2-3" x="190" y="65"/>
</g>
<g style="fill:rgb(0%,0%,0%);fill-opacity:1;">
  <use xlink:href="#glyph0-4" x="201" y="65"/>
</g>
<g style="fill:rgb(0%,0%,0%);fill-opacity:1;">
  <use xlink:href="#glyph2-4" x="209" y="65"/>
</g>
<g style="fill:rgb(0%,0%,0%);fill-opacity:1;">
  <use xlink:href="#glyph2-6" x="220" y="65"/>
</g>
<g style="fill:rgb(0%,0%,0%);fill-opacity:1;">
  <use xlink:href="#glyph2-7" x="231" y="65"/>
</g>
<g style="fill:rgb(0%,0%,0%);fill-opacity:1;">
  <use xlink:href="#glyph3-4" x="239" y="67.24289"/>
</g>
<g style="fill:rgb(0%,0%,0%);fill-opacity:1;">
  <use xlink:href="#glyph2-7" x="246" y="65"/>
</g>
<g style="fill:rgb(0%,0%,0%);fill-opacity:1;">
  <use xlink:href="#glyph3-4" x="254" y="59.9456"/>
</g>
<g style="fill:rgb(0%,0%,0%);fill-opacity:1;">
  <use xlink:href="#glyph2-6" x="261" y="65"/>
</g>
<g style="fill:rgb(0%,0%,0%);fill-opacity:1;">
  <use xlink:href="#glyph2-3" x="272" y="65"/>
</g>
<g style="fill:rgb(0%,0%,0%);fill-opacity:1;">
  <use xlink:href="#glyph2-2" x="283" y="65"/>
</g>
<g style="fill:rgb(0%,0%,0%);fill-opacity:1;">
  <use xlink:href="#glyph0-6" x="291" y="65"/>
</g>
<g style="fill:rgb(0%,0%,0%);fill-opacity:1;">
  <use xlink:href="#glyph2-3" x="302" y="65"/>
</g>
<g style="fill:rgb(0%,0%,0%);fill-opacity:1;">
  <use xlink:href="#glyph0-3" x="313" y="65"/>
</g>
<g style="fill:rgb(0%,0%,0%);fill-opacity:1;">
  <use xlink:href="#glyph0-5" x="324" y="65"/>
</g>
<g style="fill:rgb(0%,0%,0%);fill-opacity:1;">
  <use xlink:href="#glyph2-2" x="335" y="65"/>
</g>
<g style="fill:rgb(0%,0%,0%);fill-opacity:1;">
  <use xlink:href="#glyph2-1" x="343" y="65"/>
</g>
<g style="fill:rgb(0%,0%,0%);fill-opacity:1;">
  <use xlink:href="#glyph0-8" x="352" y="65"/>
</g>
<g style="fill:rgb(0%,0%,0%);fill-opacity:1;">
  <use xlink:href="#glyph2-3" x="363" y="65"/>
</g>
<g style="fill:rgb(0%,0%,0%);fill-opacity:1;">
  <use xlink:href="#glyph0-4" x="374" y="65"/>
</g>
<g style="fill:rgb(0%,0%,0%);fill-opacity:1;">
  <use xlink:href="#glyph2-4" x="382" y="65"/>
</g>
<g style="fill:rgb(0%,0%,0%);fill-opacity:1;">
  <use xlink:href="#glyph2-1" x="393" y="65"/>
</g>
<g style="fill:rgb(0%,0%,0%);fill-opacity:1;">
  <use xlink:href="#glyph0-4" x="404" y="65"/>
</g>
<g style="fill:rgb(0%,0%,0%);fill-opacity:1;">
  <use xlink:href="#glyph2-4" x="412" y="65"/>
</g>
<g style="fill:rgb(0%,0%,0%);fill-opacity:1;">
  <use xlink:href="#glyph2-7" x="423" y="65"/>
</g>
<g style="fill:rgb(0%,0%,0%);fill-opacity:1;">
  <use xlink:href="#glyph3-4" x="431" y="67.24289"/>
</g>
<g style="fill:rgb(0%,0%,0%);fill-opacity:1;">
  <use xlink:href="#glyph2-6" x="438" y="65"/>
</g>
<g style="fill:rgb(0%,0%,0%);fill-opacity:1;">
  <use xlink:href="#glyph2-7" x="449" y="65"/>
</g>
<g style="fill:rgb(0%,0%,0%);fill-opacity:1;">
  <use xlink:href="#glyph3-4" x="457" y="59.9456"/>
</g>
<g style="fill:rgb(0%,0%,0%);fill-opacity:1;">
  <use xlink:href="#glyph2-6" x="464" y="65"/>
</g>
<g style="fill:rgb(0%,0%,0%);fill-opacity:1;">
  <use xlink:href="#glyph2-8" x="472" y="65"/>
</g>
</g>
</svg>
