<?xml version="1.0" encoding="UTF-8"?>
<svg xmlns="http://www.w3.org/2000/svg" xmlns:xlink="http://www.w3.org/1999/xlink" viewBox="0 0 526 32" version="1.1">
<defs>
<g>
<symbol overflow="visible" id="glyph0-0">
<path style="stroke:none;" d="M 0.8125 0 L 0.8125 -9.960938 L 5.6875 -9.960938 L 5.6875 0 Z M 1.625 -0.8125 L 4.875 -0.8125 L 4.875 -9.148438 L 1.625 -9.148438 Z M 1.625 -0.8125 "/>
</symbol>
<symbol overflow="visible" id="glyph0-1">
<path style="stroke:none;" d="M 6.375 8.148438 C 5.921875 8.140625 5.527344 8.085938 5.191406 7.980469 C 4.859375 7.878906 4.566406 7.722656 4.316406 7.515625 C 4.070312 7.3125 3.886719 7.066406 3.765625 6.777344 C 3.644531 6.488281 3.585938 6.148438 3.585938 5.757812 L 3.585938 -0.347656 C 3.585938 -1.039062 3.4375 -1.570312 3.140625 -1.945312 C 2.84375 -2.320312 2.402344 -2.542969 1.808594 -2.617188 L 1.808594 -3.105469 C 2.390625 -3.175781 2.828125 -3.394531 3.132812 -3.753906 C 3.433594 -4.117188 3.585938 -4.65625 3.585938 -5.371094 L 3.585938 -11.476562 C 3.585938 -11.878906 3.640625 -12.214844 3.753906 -12.488281 C 3.867188 -12.761719 4.054688 -13.011719 4.316406 -13.234375 C 4.554688 -13.4375 4.84375 -13.59375 5.1875 -13.699219 C 5.535156 -13.804688 5.929688 -13.859375 6.375 -13.871094 L 6.375 -13.429688 C 5.972656 -13.429688 5.636719 -13.386719 5.375 -13.296875 C 5.109375 -13.203125 4.878906 -13.082031 4.679688 -12.921875 C 4.484375 -12.769531 4.332031 -12.578125 4.226562 -12.339844 C 4.121094 -12.101562 4.070312 -11.828125 4.070312 -11.519531 L 4.070312 -5.382812 C 4.070312 -4.710938 3.933594 -4.164062 3.664062 -3.742188 C 3.390625 -3.320312 3.003906 -3.027344 2.496094 -2.863281 C 3.027344 -2.683594 3.421875 -2.378906 3.679688 -1.949219 C 3.9375 -1.515625 4.070312 -0.980469 4.070312 -0.335938 L 4.070312 5.796875 C 4.070312 6.101562 4.117188 6.367188 4.21875 6.597656 C 4.316406 6.828125 4.472656 7.03125 4.679688 7.203125 C 4.886719 7.378906 5.121094 7.503906 5.386719 7.585938 C 5.652344 7.664062 5.980469 7.707031 6.375 7.707031 Z M 6.375 8.148438 "/>
</symbol>
<symbol overflow="visible" id="glyph0-2">
<path style="stroke:none;" d="M 7.28125 -7.148438 L 3.898438 0.195312 L 0.519531 -7.148438 Z M 6.5625 -6.710938 L 1.238281 -6.710938 L 3.898438 -0.90625 Z M 6.5625 -6.710938 "/>
</symbol>
<symbol overflow="visible" id="glyph0-3">
<path style="stroke:none;" d="M 6.5 -2.628906 L 1.300781 -2.628906 L 1.300781 -3.105469 L 6.5 -3.105469 Z M 6.5 -2.628906 "/>
</symbol>
<symbol overflow="visible" id="glyph0-4">
<path style="stroke:none;" d="M 6.5 -2.628906 L 4.132812 -2.628906 L 4.132812 -0.261719 L 3.648438 -0.261719 L 3.648438 -2.628906 L 1.300781 -2.628906 L 1.300781 -3.105469 L 3.648438 -3.105469 L 3.648438 -5.460938 L 4.132812 -5.460938 L 4.132812 -3.105469 L 6.5 -3.105469 Z M 6.5 -2.628906 "/>
</symbol>
<symbol overflow="visible" id="glyph0-5">
<path style="stroke:none;" d="M 5.992188 -2.617188 C 5.449219 -2.574219 5.019531 -2.359375 4.695312 -1.976562 C 4.375 -1.59375 4.214844 -1.050781 4.214844 -0.347656 L 4.214844 5.757812 C 4.214844 6.121094 4.152344 6.457031 4.03125 6.761719 C 3.90625 7.070312 3.730469 7.320312 3.496094 7.515625 C 3.246094 7.722656 2.949219 7.878906 2.597656 7.988281 C 2.246094 8.097656 1.855469 8.148438 1.429688 8.148438 L 1.429688 7.707031 C 1.765625 7.707031 2.089844 7.664062 2.394531 7.574219 C 2.699219 7.488281 2.941406 7.367188 3.125 7.203125 C 3.332031 7.023438 3.484375 6.820312 3.582031 6.59375 C 3.683594 6.367188 3.734375 6.101562 3.734375 5.796875 L 3.734375 -0.335938 C 3.734375 -1.054688 3.875 -1.613281 4.15625 -2.007812 C 4.4375 -2.40625 4.820312 -2.6875 5.304688 -2.863281 C 4.78125 -3.046875 4.386719 -3.339844 4.125 -3.75 C 3.863281 -4.15625 3.734375 -4.703125 3.734375 -5.382812 L 3.734375 -11.519531 C 3.734375 -11.804688 3.683594 -12.070312 3.585938 -12.3125 C 3.488281 -12.558594 3.339844 -12.761719 3.136719 -12.921875 C 2.914062 -13.097656 2.671875 -13.222656 2.410156 -13.300781 C 2.144531 -13.378906 1.816406 -13.421875 1.429688 -13.429688 L 1.429688 -13.871094 C 1.863281 -13.871094 2.257812 -13.8125 2.605469 -13.699219 C 2.953125 -13.585938 3.246094 -13.429688 3.484375 -13.234375 C 3.742188 -13.019531 3.929688 -12.761719 4.042969 -12.460938 C 4.15625 -12.160156 4.214844 -11.832031 4.214844 -11.476562 L 4.214844 -5.371094 C 4.214844 -4.652344 4.378906 -4.105469 4.703125 -3.730469 C 5.03125 -3.355469 5.460938 -3.144531 5.992188 -3.105469 Z M 5.992188 -2.617188 "/>
</symbol>
<symbol overflow="visible" id="glyph1-0">
<path style="stroke:none;" d="M 0.570312 -6.09375 L 4.964844 -6.09375 L 4.964844 0 L 0.570312 0 Z M 2.355469 -3.136719 L 1.171875 -5.28125 L 1.171875 -1.015625 Z M 4.355469 -1.015625 L 4.355469 -5.28125 L 3.183594 -3.136719 Z M 3.941406 -0.535156 L 3.265625 -1.753906 L 2.789062 -2.703125 L 2.75 -2.703125 L 2.253906 -1.753906 L 1.570312 -0.535156 Z M 2.789062 -3.570312 L 3.238281 -4.441406 L 3.847656 -5.539062 L 1.679688 -5.539062 L 2.289062 -4.441406 L 2.75 -3.570312 Z M 2.789062 -3.570312 "/>
</symbol>
<symbol overflow="visible" id="glyph1-1">
<path style="stroke:none;" d="M 0.746094 -1.164062 C 0.746094 -1.414062 0.808594 -1.636719 0.925781 -1.824219 C 1.046875 -2.011719 1.238281 -2.171875 1.5 -2.308594 C 1.761719 -2.441406 2.097656 -2.554688 2.511719 -2.640625 C 2.921875 -2.726562 3.417969 -2.792969 3.996094 -2.84375 C 3.992188 -2.996094 3.964844 -3.140625 3.921875 -3.277344 C 3.878906 -3.414062 3.8125 -3.53125 3.71875 -3.632812 C 3.628906 -3.734375 3.507812 -3.816406 3.355469 -3.875 C 3.203125 -3.9375 3.019531 -3.96875 2.804688 -3.96875 C 2.511719 -3.96875 2.226562 -3.910156 1.957031 -3.796875 C 1.6875 -3.683594 1.445312 -3.5625 1.238281 -3.433594 L 0.941406 -3.949219 C 1.050781 -4.023438 1.183594 -4.101562 1.332031 -4.175781 C 1.484375 -4.253906 1.644531 -4.324219 1.8125 -4.382812 C 1.984375 -4.445312 2.164062 -4.496094 2.355469 -4.535156 C 2.546875 -4.574219 2.738281 -4.597656 2.933594 -4.597656 C 3.550781 -4.597656 4.007812 -4.429688 4.304688 -4.09375 C 4.605469 -3.757812 4.753906 -3.308594 4.753906 -2.75 L 4.753906 0 L 4.136719 0 L 4.070312 -0.609375 L 4.042969 -0.609375 C 3.789062 -0.414062 3.511719 -0.242188 3.207031 -0.101562 C 2.902344 0.0390625 2.589844 0.109375 2.269531 0.109375 C 2.0625 0.109375 1.863281 0.0820312 1.679688 0.0234375 C 1.496094 -0.0351562 1.332031 -0.117188 1.195312 -0.226562 C 1.058594 -0.332031 0.949219 -0.464844 0.867188 -0.621094 C 0.789062 -0.777344 0.746094 -0.960938 0.746094 -1.164062 Z M 1.484375 -1.21875 C 1.484375 -1.089844 1.515625 -0.980469 1.570312 -0.890625 C 1.625 -0.800781 1.695312 -0.726562 1.785156 -0.667969 C 1.875 -0.609375 1.980469 -0.566406 2.101562 -0.539062 C 2.21875 -0.511719 2.34375 -0.5 2.472656 -0.5 C 2.730469 -0.5 2.984375 -0.554688 3.234375 -0.667969 C 3.484375 -0.78125 3.738281 -0.949219 3.996094 -1.164062 L 3.996094 -2.34375 C 3.515625 -2.308594 3.113281 -2.253906 2.792969 -2.1875 C 2.46875 -2.121094 2.210938 -2.039062 2.015625 -1.941406 C 1.824219 -1.847656 1.6875 -1.738281 1.605469 -1.621094 C 1.527344 -1.5 1.484375 -1.367188 1.484375 -1.21875 Z M 1.484375 -1.21875 "/>
</symbol>
<symbol overflow="visible" id="glyph1-2">
<path style="stroke:none;" d="M 0.859375 -6.570312 L 1.617188 -6.570312 L 1.617188 -4.78125 L 1.597656 -3.914062 C 1.8125 -4.121094 2.054688 -4.289062 2.320312 -4.410156 C 2.589844 -4.535156 2.855469 -4.597656 3.121094 -4.597656 C 3.421875 -4.597656 3.6875 -4.542969 3.921875 -4.433594 C 4.15625 -4.328125 4.351562 -4.171875 4.507812 -3.972656 C 4.664062 -3.773438 4.785156 -3.535156 4.863281 -3.253906 C 4.945312 -2.972656 4.984375 -2.660156 4.984375 -2.316406 C 4.984375 -1.933594 4.929688 -1.59375 4.816406 -1.292969 C 4.707031 -0.992188 4.558594 -0.734375 4.371094 -0.527344 C 4.183594 -0.316406 3.964844 -0.160156 3.71875 -0.0507812 C 3.472656 0.0585938 3.21875 0.109375 2.953125 0.109375 C 2.738281 0.109375 2.507812 0.0585938 2.257812 -0.0507812 C 2.007812 -0.160156 1.773438 -0.308594 1.558594 -0.5 L 1.53125 -0.5 L 1.46875 0 L 0.859375 0 Z M 1.617188 -1.050781 C 1.832031 -0.859375 2.046875 -0.726562 2.265625 -0.644531 C 2.484375 -0.566406 2.671875 -0.527344 2.832031 -0.527344 C 3.03125 -0.527344 3.210938 -0.566406 3.378906 -0.652344 C 3.542969 -0.734375 3.6875 -0.851562 3.8125 -1 C 3.933594 -1.152344 4.03125 -1.339844 4.097656 -1.558594 C 4.164062 -1.78125 4.199219 -2.03125 4.199219 -2.308594 C 4.199219 -2.554688 4.175781 -2.777344 4.125 -2.980469 C 4.078125 -3.183594 4 -3.359375 3.898438 -3.503906 C 3.796875 -3.648438 3.667969 -3.757812 3.507812 -3.839844 C 3.347656 -3.917969 3.15625 -3.960938 2.933594 -3.960938 C 2.738281 -3.960938 2.527344 -3.90625 2.304688 -3.796875 C 2.078125 -3.691406 1.847656 -3.519531 1.617188 -3.285156 Z M 1.617188 -1.050781 "/>
</symbol>
<symbol overflow="visible" id="glyph1-3">
<path style="stroke:none;" d="M 0.738281 -2.234375 C 0.738281 -2.609375 0.804688 -2.941406 0.9375 -3.234375 C 1.070312 -3.527344 1.25 -3.773438 1.476562 -3.976562 C 1.703125 -4.179688 1.96875 -4.335938 2.273438 -4.441406 C 2.578125 -4.542969 2.902344 -4.597656 3.238281 -4.597656 C 3.609375 -4.597656 3.925781 -4.53125 4.195312 -4.402344 C 4.460938 -4.273438 4.6875 -4.121094 4.875 -3.941406 L 4.496094 -3.453125 C 4.3125 -3.613281 4.117188 -3.738281 3.917969 -3.832031 C 3.71875 -3.921875 3.5 -3.96875 3.265625 -3.96875 C 3.007812 -3.96875 2.773438 -3.925781 2.558594 -3.84375 C 2.34375 -3.761719 2.160156 -3.644531 2.007812 -3.488281 C 1.855469 -3.335938 1.738281 -3.152344 1.652344 -2.941406 C 1.566406 -2.726562 1.523438 -2.492188 1.523438 -2.234375 C 1.523438 -1.976562 1.566406 -1.742188 1.648438 -1.53125 C 1.730469 -1.324219 1.847656 -1.144531 2 -0.992188 C 2.148438 -0.839844 2.332031 -0.722656 2.542969 -0.640625 C 2.753906 -0.558594 2.992188 -0.515625 3.25 -0.515625 C 3.527344 -0.515625 3.78125 -0.570312 4.011719 -0.679688 C 4.242188 -0.785156 4.453125 -0.921875 4.644531 -1.078125 L 4.976562 -0.589844 C 4.730469 -0.367188 4.453125 -0.195312 4.148438 -0.0742188 C 3.84375 0.0507812 3.527344 0.109375 3.195312 0.109375 C 2.84375 0.109375 2.519531 0.0585938 2.21875 -0.046875 C 1.921875 -0.152344 1.660156 -0.304688 1.441406 -0.503906 C 1.21875 -0.703125 1.046875 -0.949219 0.921875 -1.242188 C 0.800781 -1.535156 0.738281 -1.863281 0.738281 -2.234375 Z M 0.738281 -2.234375 "/>
</symbol>
<symbol overflow="visible" id="glyph1-4">
<path style="stroke:none;" d="M 0.554688 -2.234375 C 0.554688 -2.597656 0.609375 -2.925781 0.722656 -3.214844 C 0.835938 -3.507812 0.988281 -3.757812 1.175781 -3.960938 C 1.363281 -4.164062 1.582031 -4.320312 1.828125 -4.429688 C 2.074219 -4.539062 2.328125 -4.597656 2.59375 -4.597656 C 2.871094 -4.597656 3.113281 -4.542969 3.324219 -4.441406 C 3.53125 -4.335938 3.742188 -4.195312 3.949219 -4.015625 L 3.921875 -4.847656 L 3.921875 -6.570312 L 4.679688 -6.570312 L 4.679688 0 L 4.050781 0 L 3.988281 -0.589844 L 3.960938 -0.589844 C 3.777344 -0.398438 3.554688 -0.234375 3.300781 -0.0976562 C 3.042969 0.0429688 2.777344 0.109375 2.5 0.109375 C 2.207031 0.109375 1.941406 0.0585938 1.703125 -0.046875 C 1.464844 -0.152344 1.261719 -0.304688 1.089844 -0.503906 C 0.917969 -0.703125 0.785156 -0.949219 0.691406 -1.238281 C 0.601562 -1.527344 0.554688 -1.859375 0.554688 -2.234375 Z M 1.339844 -2.242188 C 1.339844 -1.699219 1.453125 -1.28125 1.683594 -0.976562 C 1.914062 -0.675781 2.238281 -0.527344 2.660156 -0.527344 C 3.101562 -0.527344 3.523438 -0.75 3.921875 -1.199219 L 3.921875 -3.433594 C 3.71875 -3.625 3.519531 -3.757812 3.328125 -3.839844 C 3.132812 -3.917969 2.9375 -3.960938 2.742188 -3.960938 C 2.542969 -3.960938 2.363281 -3.917969 2.191406 -3.835938 C 2.023438 -3.753906 1.875 -3.636719 1.75 -3.484375 C 1.625 -3.332031 1.523438 -3.152344 1.449219 -2.945312 C 1.375 -2.734375 1.339844 -2.5 1.339844 -2.242188 Z M 1.339844 -2.242188 "/>
</symbol>
<symbol overflow="visible" id="glyph2-0">
<path style="stroke:none;" d="M 0.804688 -8.578125 L 6.992188 -8.578125 L 6.992188 0 L 0.804688 0 Z M 3.316406 -4.421875 L 1.652344 -7.4375 L 1.652344 -1.429688 Z M 6.136719 -1.429688 L 6.136719 -7.4375 L 4.484375 -4.421875 Z M 5.550781 -0.753906 L 4.601562 -2.46875 L 3.925781 -3.808594 L 3.875 -3.808594 L 3.171875 -2.46875 L 2.210938 -0.753906 Z M 3.925781 -5.03125 L 4.5625 -6.253906 L 5.421875 -7.800781 L 2.367188 -7.800781 L 3.222656 -6.253906 L 3.875 -5.03125 Z M 3.925781 -5.03125 "/>
</symbol>
<symbol overflow="visible" id="glyph2-1">
<path style="stroke:none;" d="M 5.160156 -3.472656 L 4.757812 -4.769531 C 4.609375 -5.246094 4.46875 -5.722656 4.328125 -6.195312 C 4.191406 -6.667969 4.050781 -7.148438 3.914062 -7.644531 L 3.859375 -7.644531 C 3.722656 -7.148438 3.582031 -6.667969 3.445312 -6.195312 C 3.304688 -5.722656 3.164062 -5.246094 3.015625 -4.769531 L 2.613281 -3.472656 Z M 5.433594 -2.601562 L 2.339844 -2.601562 L 1.519531 0 L 0.414062 0 L 3.289062 -8.527344 L 4.511719 -8.527344 L 7.382812 0 L 6.238281 0 Z M 5.433594 -2.601562 "/>
</symbol>
<symbol overflow="visible" id="glyph2-2">
<path style="stroke:none;" d="M 6.863281 -0.882812 L 6.863281 0 L 1.273438 0 L 1.273438 -0.882812 L 3.628906 -0.882812 L 3.628906 -6.992188 L 1.859375 -6.992188 L 1.859375 -7.683594 C 2.300781 -7.753906 2.6875 -7.835938 3.015625 -7.9375 C 3.34375 -8.035156 3.640625 -8.15625 3.898438 -8.292969 L 4.691406 -8.292969 L 4.691406 -0.882812 Z M 6.863281 -0.882812 "/>
</symbol>
<symbol overflow="visible" id="glyph2-3">
<path style="stroke:none;" d="M 0.949219 -0.636719 C 1.652344 -1.261719 2.273438 -1.824219 2.816406 -2.328125 C 3.355469 -2.828125 3.8125 -3.292969 4.179688 -3.710938 C 4.546875 -4.132812 4.828125 -4.523438 5.019531 -4.886719 C 5.210938 -5.25 5.304688 -5.605469 5.304688 -5.953125 C 5.304688 -6.429688 5.15625 -6.820312 4.863281 -7.125 C 4.566406 -7.425781 4.113281 -7.578125 3.496094 -7.578125 C 3.105469 -7.578125 2.746094 -7.480469 2.410156 -7.285156 C 2.078125 -7.089844 1.777344 -6.855469 1.507812 -6.578125 L 0.898438 -7.1875 C 1.269531 -7.570312 1.671875 -7.875 2.097656 -8.105469 C 2.527344 -8.335938 3.039062 -8.449219 3.628906 -8.449219 C 4.042969 -8.449219 4.417969 -8.390625 4.75 -8.273438 C 5.085938 -8.15625 5.367188 -7.992188 5.601562 -7.78125 C 5.835938 -7.570312 6.015625 -7.308594 6.140625 -7.007812 C 6.265625 -6.703125 6.332031 -6.371094 6.332031 -6.007812 C 6.332031 -5.617188 6.238281 -5.222656 6.050781 -4.828125 C 5.863281 -4.433594 5.601562 -4.027344 5.265625 -3.609375 C 4.925781 -3.1875 4.523438 -2.75 4.054688 -2.292969 C 3.585938 -1.839844 3.074219 -1.355469 2.507812 -0.84375 C 2.761719 -0.863281 3.019531 -0.878906 3.28125 -0.898438 C 3.546875 -0.914062 3.804688 -0.921875 4.054688 -0.921875 L 6.785156 -0.921875 L 6.785156 0 L 0.949219 0 Z M 0.949219 -0.636719 "/>
</symbol>
<symbol overflow="visible" id="glyph2-4">
<path style="stroke:none;" d="M 1.859375 1.054688 C 1.859375 1.382812 2.035156 1.652344 2.386719 1.859375 C 2.738281 2.066406 3.25 2.171875 3.925781 2.171875 C 4.289062 2.171875 4.621094 2.132812 4.914062 2.058594 C 5.207031 1.984375 5.460938 1.890625 5.667969 1.769531 C 5.875 1.648438 6.035156 1.507812 6.140625 1.351562 C 6.25 1.195312 6.304688 1.035156 6.304688 0.871094 C 6.304688 0.566406 6.1875 0.363281 5.949219 0.261719 C 5.710938 0.15625 5.347656 0.105469 4.863281 0.105469 L 3.628906 0.105469 C 3.445312 0.105469 3.273438 0.0976562 3.113281 0.0859375 C 2.953125 0.0703125 2.804688 0.0429688 2.664062 0 C 2.363281 0.164062 2.152344 0.335938 2.035156 0.511719 C 1.917969 0.691406 1.859375 0.871094 1.859375 1.054688 Z M 0.9375 1.15625 C 0.9375 0.90625 1.023438 0.660156 1.203125 0.414062 C 1.378906 0.171875 1.636719 -0.046875 1.976562 -0.246094 L 1.976562 -0.300781 C 1.804688 -0.394531 1.652344 -0.523438 1.519531 -0.6875 C 1.390625 -0.851562 1.324219 -1.070312 1.324219 -1.339844 C 1.324219 -1.539062 1.390625 -1.746094 1.519531 -1.957031 C 1.652344 -2.167969 1.835938 -2.355469 2.078125 -2.523438 L 2.078125 -2.574219 C 1.863281 -2.738281 1.679688 -2.957031 1.527344 -3.230469 C 1.375 -3.503906 1.300781 -3.832031 1.300781 -4.210938 C 1.300781 -4.558594 1.367188 -4.871094 1.5 -5.148438 C 1.636719 -5.425781 1.816406 -5.660156 2.039062 -5.855469 C 2.265625 -6.050781 2.527344 -6.203125 2.828125 -6.3125 C 3.125 -6.421875 3.445312 -6.472656 3.78125 -6.472656 C 4.128906 -6.472656 4.441406 -6.421875 4.71875 -6.316406 L 7.332031 -6.316406 L 7.332031 -5.5 L 5.640625 -5.5 C 5.789062 -5.34375 5.921875 -5.152344 6.046875 -4.925781 C 6.167969 -4.703125 6.226562 -4.449219 6.226562 -4.171875 C 6.226562 -3.835938 6.164062 -3.53125 6.039062 -3.261719 C 5.914062 -2.992188 5.738281 -2.765625 5.519531 -2.582031 C 5.296875 -2.394531 5.039062 -2.25 4.738281 -2.152344 C 4.4375 -2.050781 4.121094 -2.003906 3.78125 -2.003906 C 3.617188 -2.003906 3.441406 -2.023438 3.257812 -2.058594 C 3.070312 -2.097656 2.890625 -2.15625 2.71875 -2.234375 C 2.386719 -2.027344 2.222656 -1.785156 2.222656 -1.507812 C 2.222656 -1.257812 2.335938 -1.074219 2.566406 -0.957031 C 2.796875 -0.839844 3.121094 -0.78125 3.535156 -0.78125 L 4.953125 -0.78125 C 5.769531 -0.78125 6.371094 -0.667969 6.765625 -0.441406 C 7.160156 -0.214844 7.359375 0.164062 7.359375 0.703125 C 7.359375 0.996094 7.277344 1.277344 7.109375 1.546875 C 6.945312 1.816406 6.710938 2.050781 6.410156 2.25 C 6.105469 2.449219 5.738281 2.609375 5.304688 2.730469 C 4.871094 2.851562 4.386719 2.910156 3.847656 2.910156 C 2.921875 2.910156 2.203125 2.761719 1.695312 2.457031 C 1.1875 2.152344 0.9375 1.71875 0.9375 1.15625 Z M 3.78125 -2.71875 C 4.191406 -2.71875 4.535156 -2.851562 4.816406 -3.121094 C 5.097656 -3.390625 5.238281 -3.753906 5.238281 -4.210938 C 5.238281 -4.429688 5.199219 -4.628906 5.121094 -4.808594 C 5.042969 -4.992188 4.941406 -5.148438 4.808594 -5.277344 C 4.679688 -5.40625 4.527344 -5.511719 4.347656 -5.582031 C 4.171875 -5.65625 3.980469 -5.695312 3.78125 -5.695312 C 3.582031 -5.695312 3.394531 -5.65625 3.21875 -5.582031 C 3.039062 -5.507812 2.886719 -5.40625 2.757812 -5.277344 C 2.625 -5.148438 2.523438 -4.992188 2.445312 -4.808594 C 2.367188 -4.628906 2.328125 -4.429688 2.328125 -4.210938 C 2.328125 -3.753906 2.46875 -3.386719 2.757812 -3.121094 C 3.042969 -2.851562 3.382812 -2.71875 3.78125 -2.71875 Z M 3.78125 -2.71875 "/>
</symbol>
<symbol overflow="visible" id="glyph3-0">
<path style="stroke:none;" d="M 0.558594 -5.941406 L 4.84375 -5.941406 L 4.84375 0 L 0.558594 0 Z M 2.296875 -3.058594 L 1.144531 -5.148438 L 1.144531 -0.988281 Z M 4.246094 -0.988281 L 4.246094 -5.148438 L 3.105469 -3.058594 Z M 3.84375 -0.523438 L 3.1875 -1.710938 L 2.71875 -2.636719 L 2.683594 -2.636719 L 2.195312 -1.710938 L 1.53125 -0.523438 Z M 2.71875 -3.484375 L 3.160156 -4.328125 L 3.753906 -5.398438 L 1.636719 -5.398438 L 2.230469 -4.328125 L 2.683594 -3.484375 Z M 2.71875 -3.484375 "/>
</symbol>
<symbol overflow="visible" id="glyph3-1">
<path style="stroke:none;" d="M 0.71875 -2.179688 C 0.71875 -2.542969 0.785156 -2.871094 0.914062 -3.15625 C 1.042969 -3.441406 1.21875 -3.679688 1.441406 -3.878906 C 1.664062 -4.078125 1.921875 -4.226562 2.21875 -4.328125 C 2.515625 -4.429688 2.828125 -4.480469 3.160156 -4.480469 C 3.519531 -4.480469 3.828125 -4.417969 4.089844 -4.292969 C 4.351562 -4.167969 4.570312 -4.015625 4.753906 -3.84375 L 4.382812 -3.367188 C 4.203125 -3.523438 4.015625 -3.644531 3.820312 -3.734375 C 3.625 -3.824219 3.414062 -3.871094 3.1875 -3.871094 C 2.933594 -3.871094 2.703125 -3.828125 2.492188 -3.75 C 2.28125 -3.667969 2.105469 -3.550781 1.957031 -3.402344 C 1.808594 -3.253906 1.695312 -3.074219 1.609375 -2.867188 C 1.527344 -2.660156 1.484375 -2.429688 1.484375 -2.179688 C 1.484375 -1.925781 1.527344 -1.699219 1.605469 -1.492188 C 1.6875 -1.289062 1.800781 -1.113281 1.949219 -0.96875 C 2.097656 -0.820312 2.273438 -0.707031 2.480469 -0.625 C 2.6875 -0.542969 2.914062 -0.503906 3.167969 -0.503906 C 3.4375 -0.503906 3.683594 -0.554688 3.910156 -0.660156 C 4.136719 -0.765625 4.339844 -0.898438 4.527344 -1.054688 L 4.851562 -0.574219 C 4.609375 -0.359375 4.34375 -0.191406 4.046875 -0.0703125 C 3.75 0.046875 3.4375 0.109375 3.113281 0.109375 C 2.773438 0.109375 2.457031 0.0585938 2.164062 -0.046875 C 1.875 -0.148438 1.621094 -0.296875 1.402344 -0.492188 C 1.1875 -0.6875 1.019531 -0.925781 0.898438 -1.210938 C 0.78125 -1.496094 0.71875 -1.816406 0.71875 -2.179688 Z M 0.71875 -2.179688 "/>
</symbol>
<symbol overflow="visible" id="glyph3-2">
<path style="stroke:none;" d="M 0.730469 -1.132812 C 0.730469 -1.378906 0.789062 -1.59375 0.90625 -1.777344 C 1.023438 -1.960938 1.207031 -2.117188 1.460938 -2.25 C 1.71875 -2.382812 2.046875 -2.488281 2.449219 -2.574219 C 2.851562 -2.65625 3.332031 -2.722656 3.898438 -2.773438 C 3.890625 -2.921875 3.867188 -3.0625 3.824219 -3.195312 C 3.78125 -3.328125 3.71875 -3.441406 3.628906 -3.542969 C 3.539062 -3.640625 3.417969 -3.71875 3.273438 -3.78125 C 3.125 -3.839844 2.945312 -3.871094 2.734375 -3.871094 C 2.449219 -3.871094 2.171875 -3.816406 1.90625 -3.703125 C 1.644531 -3.59375 1.410156 -3.472656 1.207031 -3.347656 L 0.917969 -3.851562 C 1.027344 -3.925781 1.152344 -3.996094 1.300781 -4.074219 C 1.449219 -4.148438 1.601562 -4.214844 1.769531 -4.273438 C 1.933594 -4.335938 2.109375 -4.382812 2.296875 -4.421875 C 2.480469 -4.460938 2.671875 -4.480469 2.863281 -4.480469 C 3.460938 -4.480469 3.90625 -4.320312 4.199219 -3.992188 C 4.488281 -3.664062 4.636719 -3.226562 4.636719 -2.683594 L 4.636719 0 L 4.03125 0 L 3.96875 -0.59375 L 3.941406 -0.59375 C 3.695312 -0.402344 3.425781 -0.238281 3.128906 -0.0976562 C 2.832031 0.0390625 2.527344 0.109375 2.214844 0.109375 C 2.011719 0.109375 1.816406 0.078125 1.636719 0.0234375 C 1.457031 -0.0351562 1.300781 -0.117188 1.164062 -0.21875 C 1.03125 -0.324219 0.925781 -0.453125 0.847656 -0.609375 C 0.769531 -0.761719 0.730469 -0.9375 0.730469 -1.132812 Z M 1.449219 -1.1875 C 1.449219 -1.0625 1.476562 -0.957031 1.53125 -0.867188 C 1.585938 -0.78125 1.65625 -0.710938 1.742188 -0.652344 C 1.828125 -0.59375 1.929688 -0.554688 2.046875 -0.527344 C 2.164062 -0.5 2.285156 -0.484375 2.410156 -0.484375 C 2.664062 -0.484375 2.910156 -0.542969 3.15625 -0.652344 C 3.398438 -0.761719 3.644531 -0.925781 3.898438 -1.132812 L 3.898438 -2.285156 C 3.429688 -2.25 3.039062 -2.199219 2.722656 -2.132812 C 2.40625 -2.066406 2.15625 -1.988281 1.964844 -1.894531 C 1.777344 -1.800781 1.644531 -1.695312 1.566406 -1.578125 C 1.488281 -1.460938 1.449219 -1.332031 1.449219 -1.1875 Z M 1.449219 -1.1875 "/>
</symbol>
<symbol overflow="visible" id="glyph3-3">
<path style="stroke:none;" d="M 0.835938 -6.40625 L 1.574219 -6.40625 L 1.574219 -4.660156 L 1.558594 -3.816406 C 1.765625 -4.019531 2.003906 -4.183594 2.261719 -4.300781 C 2.523438 -4.421875 2.785156 -4.480469 3.042969 -4.480469 C 3.335938 -4.480469 3.597656 -4.429688 3.824219 -4.324219 C 4.054688 -4.21875 4.242188 -4.070312 4.398438 -3.875 C 4.550781 -3.679688 4.664062 -3.445312 4.742188 -3.171875 C 4.820312 -2.898438 4.859375 -2.59375 4.859375 -2.257812 C 4.859375 -1.886719 4.804688 -1.554688 4.699219 -1.261719 C 4.589844 -0.964844 4.445312 -0.71875 4.261719 -0.511719 C 4.078125 -0.308594 3.867188 -0.15625 3.628906 -0.0507812 C 3.386719 0.0546875 3.136719 0.109375 2.878906 0.109375 C 2.667969 0.109375 2.445312 0.0546875 2.199219 -0.0507812 C 1.957031 -0.15625 1.730469 -0.300781 1.519531 -0.484375 L 1.492188 -0.484375 L 1.429688 0 L 0.835938 0 Z M 1.574219 -1.027344 C 1.785156 -0.839844 1.996094 -0.707031 2.210938 -0.628906 C 2.421875 -0.550781 2.605469 -0.511719 2.761719 -0.511719 C 2.953125 -0.511719 3.132812 -0.554688 3.292969 -0.632812 C 3.457031 -0.714844 3.597656 -0.828125 3.71875 -0.976562 C 3.835938 -1.125 3.929688 -1.304688 3.996094 -1.519531 C 4.0625 -1.738281 4.09375 -1.980469 4.09375 -2.25 C 4.09375 -2.488281 4.070312 -2.710938 4.023438 -2.90625 C 3.976562 -3.105469 3.902344 -3.273438 3.800781 -3.414062 C 3.703125 -3.554688 3.574219 -3.664062 3.421875 -3.742188 C 3.265625 -3.820312 3.078125 -3.859375 2.863281 -3.859375 C 2.671875 -3.859375 2.464844 -3.808594 2.246094 -3.703125 C 2.027344 -3.597656 1.804688 -3.433594 1.574219 -3.203125 Z M 1.574219 -1.027344 "/>
</symbol>
<symbol overflow="visible" id="glyph3-4">
<path style="stroke:none;" d="M 0.539062 -2.179688 C 0.539062 -2.53125 0.59375 -2.851562 0.707031 -3.136719 C 0.816406 -3.421875 0.964844 -3.664062 1.148438 -3.859375 C 1.332031 -4.058594 1.542969 -4.210938 1.78125 -4.320312 C 2.023438 -4.429688 2.269531 -4.480469 2.527344 -4.480469 C 2.796875 -4.480469 3.035156 -4.429688 3.238281 -4.328125 C 3.445312 -4.226562 3.648438 -4.089844 3.851562 -3.914062 L 3.824219 -4.726562 L 3.824219 -6.40625 L 4.5625 -6.40625 L 4.5625 0 L 3.949219 0 L 3.886719 -0.574219 L 3.859375 -0.574219 C 3.679688 -0.390625 3.464844 -0.230469 3.21875 -0.09375 C 2.96875 0.0390625 2.710938 0.109375 2.4375 0.109375 C 2.152344 0.109375 1.890625 0.0585938 1.660156 -0.046875 C 1.429688 -0.148438 1.230469 -0.296875 1.0625 -0.492188 C 0.894531 -0.6875 0.765625 -0.925781 0.675781 -1.207031 C 0.585938 -1.488281 0.539062 -1.8125 0.539062 -2.179688 Z M 1.304688 -2.1875 C 1.304688 -1.660156 1.417969 -1.246094 1.640625 -0.953125 C 1.867188 -0.660156 2.183594 -0.511719 2.59375 -0.511719 C 3.023438 -0.511719 3.433594 -0.730469 3.824219 -1.171875 L 3.824219 -3.347656 C 3.625 -3.535156 3.433594 -3.664062 3.246094 -3.742188 C 3.054688 -3.820312 2.863281 -3.859375 2.671875 -3.859375 C 2.480469 -3.859375 2.300781 -3.820312 2.136719 -3.738281 C 1.972656 -3.65625 1.828125 -3.542969 1.707031 -3.398438 C 1.582031 -3.25 1.484375 -3.074219 1.414062 -2.871094 C 1.339844 -2.667969 1.304688 -2.4375 1.304688 -2.1875 Z M 1.304688 -2.1875 "/>
</symbol>
</g>
</defs>
<g id="surface41">
<g style="fill:rgb(0%,0%,0%);fill-opacity:1;">
  <use xlink:href="#glyph0-1" x="0" y="20"/>
</g>
<g style="fill:rgb(0%,0%,0%);fill-opacity:1;">
  <use xlink:href="#glyph0-2" x="8" y="20"/>
</g>
<g style="fill:rgb(0%,0%,0%);fill-opacity:1;">
  <use xlink:href="#glyph1-1" x="16" y="22.24289"/>
</g>
<g style="fill:rgb(0%,0%,0%);fill-opacity:1;">
  <use xlink:href="#glyph2-1" x="23" y="22"/>
</g>
<g style="fill:rgb(0%,0%,0%);fill-opacity:1;">
  <use xlink:href="#glyph3-1" x="31" y="14.408"/>
</g>
<g style="fill:rgb(0%,0%,0%);fill-opacity:1;">
  <use xlink:href="#glyph0-2" x="39" y="20"/>
</g>
<g style="fill:rgb(0%,0%,0%);fill-opacity:1;">
  <use xlink:href="#glyph1-2" x="47" y="22.24289"/>
</g>
<g style="fill:rgb(0%,0%,0%);fill-opacity:1;">
  <use xlink:href="#glyph2-1" x="54" y="22"/>
</g>
<g style="fill:rgb(0%,0%,0%);fill-opacity:1;">
  <use xlink:href="#glyph3-1" x="62" y="23.408"/>
</g>
<g style="fill:rgb(0%,0%,0%);fill-opacity:1;">
  <use xlink:href="#glyph0-3" x="70" y="20"/>
</g>
<g style="fill:rgb(0%,0%,0%);fill-opacity:1;">
  <use xlink:href="#glyph0-2" x="81" y="20"/>
</g>
<g style="fill:rgb(0%,0%,0%);fill-opacity:1;">
  <use xlink:href="#glyph1-2" x="89" y="22.24289"/>
</g>
<g style="fill:rgb(0%,0%,0%);fill-opacity:1;">
  <use xlink:href="#glyph2-1" x="96" y="22"/>
</g>
<g style="fill:rgb(0%,0%,0%);fill-opacity:1;">
  <use xlink:href="#glyph3-1" x="104" y="23.408"/>
</g>
<g style="fill:rgb(0%,0%,0%);fill-opacity:1;">
  <use xlink:href="#glyph0-2" x="112" y="20"/>
</g>
<g style="fill:rgb(0%,0%,0%);fill-opacity:1;">
  <use xlink:href="#glyph1-3" x="120" y="14.3138"/>
</g>
<g style="fill:rgb(0%,0%,0%);fill-opacity:1;">
  <use xlink:href="#glyph2-1" x="127" y="22"/>
</g>
<g style="fill:rgb(0%,0%,0%);fill-opacity:1;">
  <use xlink:href="#glyph3-2" x="135" y="23.408"/>
</g>
<g style="fill:rgb(0%,0%,0%);fill-opacity:1;">
  <use xlink:href="#glyph0-4" x="143" y="20"/>
</g>
<g style="fill:rgb(0%,0%,0%);fill-opacity:1;">
  <use xlink:href="#glyph0-2" x="154" y="20"/>
</g>
<g style="fill:rgb(0%,0%,0%);fill-opacity:1;">
  <use xlink:href="#glyph1-3" x="162" y="22.24289"/>
</g>
<g style="fill:rgb(0%,0%,0%);fill-opacity:1;">
  <use xlink:href="#glyph2-1" x="169" y="22"/>
</g>
<g style="fill:rgb(0%,0%,0%);fill-opacity:1;">
  <use xlink:href="#glyph3-3" x="177" y="24"/>
</g>
<g style="fill:rgb(0%,0%,0%);fill-opacity:1;">
  <use xlink:href="#glyph0-2" x="185" y="20"/>
</g>
<g style="fill:rgb(0%,0%,0%);fill-opacity:1;">
  <use xlink:href="#glyph1-3" x="193" y="14.3138"/>
</g>
<g style="fill:rgb(0%,0%,0%);fill-opacity:1;">
  <use xlink:href="#glyph2-1" x="200" y="22"/>
</g>
<g style="fill:rgb(0%,0%,0%);fill-opacity:1;">
  <use xlink:href="#glyph3-2" x="208" y="23.408"/>
</g>
<g style="fill:rgb(0%,0%,0%);fill-opacity:1;">
  <use xlink:href="#glyph0-3" x="216" y="20"/>
</g>
<g style="fill:rgb(0%,0%,0%);fill-opacity:1;">
  <use xlink:href="#glyph0-2" x="227" y="20"/>
</g>
<g style="fill:rgb(0%,0%,0%);fill-opacity:1;">
  <use xlink:href="#glyph1-1" x="235" y="22.24289"/>
</g>
<g style="fill:rgb(0%,0%,0%);fill-opacity:1;">
  <use xlink:href="#glyph2-1" x="242" y="22"/>
</g>
<g style="fill:rgb(0%,0%,0%);fill-opacity:1;">
  <use xlink:href="#glyph3-1" x="250" y="23.408"/>
</g>
<g style="fill:rgb(0%,0%,0%);fill-opacity:1;">
  <use xlink:href="#glyph0-2" x="258" y="20"/>
</g>
<g style="fill:rgb(0%,0%,0%);fill-opacity:1;">
  <use xlink:href="#glyph1-3" x="266" y="14.3138"/>
</g>
<g style="fill:rgb(0%,0%,0%);fill-opacity:1;">
  <use xlink:href="#glyph2-1" x="273" y="22"/>
</g>
<g style="fill:rgb(0%,0%,0%);fill-opacity:1;">
  <use xlink:href="#glyph3-3" x="281" y="24"/>
</g>
<g style="fill:rgb(0%,0%,0%);fill-opacity:1;">
  <use xlink:href="#glyph0-4" x="289" y="20"/>
</g>
<path style="fill:none;stroke-width:0.476074;stroke-linecap:square;stroke-linejoin:miter;stroke:rgb(0%,0%,0%);stroke-opacity:1;stroke-miterlimit:10;" d="M 302.238281 16.632812 L 309.761719 16.632812 "/>
<g style="fill:rgb(0%,0%,0%);fill-opacity:1;">
  <use xlink:href="#glyph2-2" x="302.5" y="10"/>
</g>
<g style="fill:rgb(0%,0%,0%);fill-opacity:1;">
  <use xlink:href="#glyph2-3" x="302.5" y="31"/>
</g>
<g style="fill:rgb(0%,0%,0%);fill-opacity:1;">
  <use xlink:href="#glyph2-4" x="319" y="19.5"/>
</g>
<g style="fill:rgb(0%,0%,0%);fill-opacity:1;">
  <use xlink:href="#glyph3-2" x="327" y="24"/>
</g>
<g style="fill:rgb(0%,0%,0%);fill-opacity:1;">
  <use xlink:href="#glyph3-3" x="332" y="24"/>
</g>
<g style="fill:rgb(0%,0%,0%);fill-opacity:1;">
  <use xlink:href="#glyph0-2" x="343" y="20"/>
</g>
<g style="fill:rgb(0%,0%,0%);fill-opacity:1;">
  <use xlink:href="#glyph1-3" x="351" y="22.24289"/>
</g>
<g style="fill:rgb(0%,0%,0%);fill-opacity:1;">
  <use xlink:href="#glyph2-1" x="358" y="22"/>
</g>
<g style="fill:rgb(0%,0%,0%);fill-opacity:1;">
  <use xlink:href="#glyph3-4" x="366" y="24"/>
</g>
<g style="fill:rgb(0%,0%,0%);fill-opacity:1;">
  <use xlink:href="#glyph0-2" x="374" y="20"/>
</g>
<g style="fill:rgb(0%,0%,0%);fill-opacity:1;">
  <use xlink:href="#glyph1-4" x="382" y="14.3138"/>
</g>
<g style="fill:rgb(0%,0%,0%);fill-opacity:1;">
  <use xlink:href="#glyph2-1" x="389" y="22"/>
</g>
<g style="fill:rgb(0%,0%,0%);fill-opacity:1;">
  <use xlink:href="#glyph3-1" x="397" y="14.408"/>
</g>
<g style="fill:rgb(0%,0%,0%);fill-opacity:1;">
  <use xlink:href="#glyph0-3" x="405" y="20"/>
</g>
<path style="fill:none;stroke-width:0.476074;stroke-linecap:square;stroke-linejoin:miter;stroke:rgb(0%,0%,0%);stroke-opacity:1;stroke-miterlimit:10;" d="M 418.238281 16.632812 L 425.761719 16.632812 "/>
<g style="fill:rgb(0%,0%,0%);fill-opacity:1;">
  <use xlink:href="#glyph2-2" x="418.5" y="10"/>
</g>
<g style="fill:rgb(0%,0%,0%);fill-opacity:1;">
  <use xlink:href="#glyph2-3" x="418.5" y="31"/>
</g>
<g style="fill:rgb(0%,0%,0%);fill-opacity:1;">
  <use xlink:href="#glyph2-4" x="435" y="19.5"/>
</g>
<g style="fill:rgb(0%,0%,0%);fill-opacity:1;">
  <use xlink:href="#glyph3-2" x="443" y="24"/>
</g>
<g style="fill:rgb(0%,0%,0%);fill-opacity:1;">
  <use xlink:href="#glyph3-3" x="448" y="24"/>
</g>
<g style="fill:rgb(0%,0%,0%);fill-opacity:1;">
  <use xlink:href="#glyph0-2" x="459" y="20"/>
</g>
<g style="fill:rgb(0%,0%,0%);fill-opacity:1;">
  <use xlink:href="#glyph1-4" x="467" y="22.24289"/>
</g>
<g style="fill:rgb(0%,0%,0%);fill-opacity:1;">
  <use xlink:href="#glyph2-1" x="474" y="22"/>
</g>
<g style="fill:rgb(0%,0%,0%);fill-opacity:1;">
  <use xlink:href="#glyph3-1" x="482" y="23.408"/>
</g>
<g style="fill:rgb(0%,0%,0%);fill-opacity:1;">
  <use xlink:href="#glyph0-2" x="490" y="20"/>
</g>
<g style="fill:rgb(0%,0%,0%);fill-opacity:1;">
  <use xlink:href="#glyph1-4" x="498" y="14.3138"/>
</g>
<g style="fill:rgb(0%,0%,0%);fill-opacity:1;">
  <use xlink:href="#glyph2-1" x="505" y="22"/>
</g>
<g style="fill:rgb(0%,0%,0%);fill-opacity:1;">
  <use xlink:href="#glyph3-1" x="513" y="14.408"/>
</g>
<g style="fill:rgb(0%,0%,0%);fill-opacity:1;">
  <use xlink:href="#glyph0-5" x="518" y="20"/>
</g>
</g>
</svg>
