<?xml version="1.0" encoding="UTF-8"?>
<svg xmlns="http://www.w3.org/2000/svg" xmlns:xlink="http://www.w3.org/1999/xlink" viewBox="0 0 258 39" version="1.1">
<defs>
<g>
<symbol overflow="visible" id="glyph0-0">
<path style="stroke:none;" d="M 0.804688 -8.578125 L 6.992188 -8.578125 L 6.992188 0 L 0.804688 0 Z M 3.316406 -4.421875 L 1.652344 -7.4375 L 1.652344 -1.429688 Z M 6.136719 -1.429688 L 6.136719 -7.4375 L 4.484375 -4.421875 Z M 5.550781 -0.753906 L 4.601562 -2.46875 L 3.925781 -3.808594 L 3.875 -3.808594 L 3.171875 -2.46875 L 2.210938 -0.753906 Z M 3.925781 -5.03125 L 4.5625 -6.253906 L 5.421875 -7.800781 L 2.367188 -7.800781 L 3.222656 -6.253906 L 3.875 -5.03125 Z M 3.925781 -5.03125 "/>
</symbol>
<symbol overflow="visible" id="glyph0-1">
<path style="stroke:none;" d="M 6.863281 -0.882812 L 6.863281 0 L 1.273438 0 L 1.273438 -0.882812 L 3.628906 -0.882812 L 3.628906 -6.992188 L 1.859375 -6.992188 L 1.859375 -7.683594 C 2.300781 -7.753906 2.6875 -7.835938 3.015625 -7.9375 C 3.34375 -8.035156 3.640625 -8.15625 3.898438 -8.292969 L 4.691406 -8.292969 L 4.691406 -0.882812 Z M 6.863281 -0.882812 "/>
</symbol>
<symbol overflow="visible" id="glyph0-2">
<path style="stroke:none;" d="M 0.949219 -0.636719 C 1.652344 -1.261719 2.273438 -1.824219 2.816406 -2.328125 C 3.355469 -2.828125 3.8125 -3.292969 4.179688 -3.710938 C 4.546875 -4.132812 4.828125 -4.523438 5.019531 -4.886719 C 5.210938 -5.25 5.304688 -5.605469 5.304688 -5.953125 C 5.304688 -6.429688 5.15625 -6.820312 4.863281 -7.125 C 4.566406 -7.425781 4.113281 -7.578125 3.496094 -7.578125 C 3.105469 -7.578125 2.746094 -7.480469 2.410156 -7.285156 C 2.078125 -7.089844 1.777344 -6.855469 1.507812 -6.578125 L 0.898438 -7.1875 C 1.269531 -7.570312 1.671875 -7.875 2.097656 -8.105469 C 2.527344 -8.335938 3.039062 -8.449219 3.628906 -8.449219 C 4.042969 -8.449219 4.417969 -8.390625 4.75 -8.273438 C 5.085938 -8.15625 5.367188 -7.992188 5.601562 -7.78125 C 5.835938 -7.570312 6.015625 -7.308594 6.140625 -7.007812 C 6.265625 -6.703125 6.332031 -6.371094 6.332031 -6.007812 C 6.332031 -5.617188 6.238281 -5.222656 6.050781 -4.828125 C 5.863281 -4.433594 5.601562 -4.027344 5.265625 -3.609375 C 4.925781 -3.1875 4.523438 -2.75 4.054688 -2.292969 C 3.585938 -1.839844 3.074219 -1.355469 2.507812 -0.84375 C 2.761719 -0.863281 3.019531 -0.878906 3.28125 -0.898438 C 3.546875 -0.914062 3.804688 -0.921875 4.054688 -0.921875 L 6.785156 -0.921875 L 6.785156 0 L 0.949219 0 Z M 0.949219 -0.636719 "/>
</symbol>
<symbol overflow="visible" id="glyph0-3">
<path style="stroke:none;" d="M 0.78125 -3.144531 C 0.78125 -3.65625 0.859375 -4.117188 1.019531 -4.53125 C 1.179688 -4.941406 1.394531 -5.289062 1.65625 -5.578125 C 1.921875 -5.863281 2.226562 -6.085938 2.574219 -6.238281 C 2.921875 -6.394531 3.28125 -6.472656 3.652344 -6.472656 C 4.042969 -6.472656 4.386719 -6.398438 4.679688 -6.253906 C 4.972656 -6.105469 5.269531 -5.90625 5.5625 -5.65625 L 5.523438 -6.824219 L 5.523438 -9.257812 L 6.589844 -9.257812 L 6.589844 0 L 5.707031 0 L 5.617188 -0.832031 L 5.578125 -0.832031 C 5.316406 -0.5625 5.007812 -0.332031 4.648438 -0.136719 C 4.289062 0.0585938 3.914062 0.15625 3.523438 0.15625 C 3.105469 0.15625 2.730469 0.0820312 2.398438 -0.0664062 C 2.066406 -0.210938 1.777344 -0.425781 1.535156 -0.707031 C 1.292969 -0.988281 1.105469 -1.335938 0.976562 -1.742188 C 0.84375 -2.148438 0.78125 -2.617188 0.78125 -3.144531 Z M 1.886719 -3.160156 C 1.886719 -2.398438 2.046875 -1.800781 2.371094 -1.378906 C 2.695312 -0.953125 3.15625 -0.742188 3.742188 -0.742188 C 4.367188 -0.742188 4.960938 -1.058594 5.523438 -1.691406 L 5.523438 -4.835938 C 5.238281 -5.105469 4.960938 -5.296875 4.6875 -5.40625 C 4.414062 -5.519531 4.136719 -5.578125 3.859375 -5.578125 C 3.582031 -5.578125 3.324219 -5.519531 3.085938 -5.402344 C 2.847656 -5.285156 2.640625 -5.121094 2.464844 -4.90625 C 2.285156 -4.695312 2.144531 -4.441406 2.039062 -4.148438 C 1.9375 -3.851562 1.886719 -3.523438 1.886719 -3.160156 Z M 1.886719 -3.160156 "/>
</symbol>
<symbol overflow="visible" id="glyph0-4">
<path style="stroke:none;" d="M 2.378906 -4.484375 L 3.796875 -4.484375 C 4.464844 -4.484375 4.972656 -4.621094 5.324219 -4.894531 C 5.675781 -5.167969 5.851562 -5.582031 5.851562 -6.136719 C 5.851562 -6.699219 5.675781 -7.09375 5.324219 -7.320312 C 4.972656 -7.542969 4.464844 -7.65625 3.796875 -7.65625 L 2.378906 -7.65625 Z M 5.953125 0 L 3.898438 -3.601562 L 2.378906 -3.601562 L 2.378906 0 L 1.300781 0 L 1.300781 -8.527344 L 3.953125 -8.527344 C 4.386719 -8.527344 4.785156 -8.488281 5.148438 -8.40625 C 5.511719 -8.324219 5.824219 -8.1875 6.089844 -7.996094 C 6.355469 -7.804688 6.5625 -7.558594 6.707031 -7.253906 C 6.855469 -6.949219 6.929688 -6.578125 6.929688 -6.136719 C 6.929688 -5.46875 6.753906 -4.9375 6.410156 -4.535156 C 6.0625 -4.136719 5.597656 -3.867188 5.019531 -3.71875 L 7.1875 0 Z M 5.953125 0 "/>
</symbol>
<symbol overflow="visible" id="glyph0-5">
<path style="stroke:none;" d="M 4.785156 -3.144531 L 4.785156 -5.71875 C 4.792969 -5.945312 4.800781 -6.191406 4.808594 -6.453125 C 4.816406 -6.71875 4.832031 -6.964844 4.847656 -7.1875 L 4.785156 -7.1875 C 4.65625 -6.988281 4.515625 -6.789062 4.367188 -6.585938 C 4.21875 -6.382812 4.078125 -6.179688 3.9375 -5.980469 L 1.691406 -3.144531 Z M 7.085938 -2.289062 L 5.796875 -2.289062 L 5.796875 0 L 4.785156 0 L 4.785156 -2.289062 L 0.507812 -2.289062 L 0.507812 -3.003906 L 4.652344 -8.292969 L 5.796875 -8.292969 L 5.796875 -3.144531 L 7.085938 -3.144531 Z M 7.085938 -2.289062 "/>
</symbol>
<symbol overflow="visible" id="glyph1-0">
<path style="stroke:none;" d="M 0.8125 0 L 0.8125 -9.960938 L 5.6875 -9.960938 L 5.6875 0 Z M 1.625 -0.8125 L 4.875 -0.8125 L 4.875 -9.148438 L 1.625 -9.148438 Z M 1.625 -0.8125 "/>
</symbol>
<symbol overflow="visible" id="glyph1-1">
<path style="stroke:none;" d="M 6.5 -2.628906 L 1.300781 -2.628906 L 1.300781 -3.105469 L 6.5 -3.105469 Z M 6.5 -2.628906 "/>
</symbol>
<symbol overflow="visible" id="glyph1-2">
<path style="stroke:none;" d="M 5.941406 -8.125 C 5.578125 -7.4375 5.195312 -6.59375 4.789062 -5.582031 C 4.386719 -4.574219 4.183594 -3.667969 4.183594 -2.863281 C 4.183594 -1.933594 4.355469 -1.023438 4.703125 -0.136719 C 5.050781 0.75 5.4375 1.597656 5.867188 2.40625 L 5.445312 2.40625 C 4.949219 1.644531 4.523438 0.808594 4.164062 -0.101562 C 3.804688 -1.011719 3.625 -1.933594 3.625 -2.863281 C 3.625 -3.824219 3.8125 -4.742188 4.191406 -5.625 C 4.570312 -6.503906 5.015625 -7.335938 5.523438 -8.125 Z M 5.941406 -8.125 "/>
</symbol>
<symbol overflow="visible" id="glyph1-3">
<path style="stroke:none;" d="M 6.5 -2.628906 L 4.132812 -2.628906 L 4.132812 -0.261719 L 3.648438 -0.261719 L 3.648438 -2.628906 L 1.300781 -2.628906 L 1.300781 -3.105469 L 3.648438 -3.105469 L 3.648438 -5.460938 L 4.132812 -5.460938 L 4.132812 -3.105469 L 6.5 -3.105469 Z M 6.5 -2.628906 "/>
</symbol>
<symbol overflow="visible" id="glyph1-4">
<path style="stroke:none;" d="M 4.183594 -2.863281 C 4.183594 -1.921875 4 -0.996094 3.632812 -0.078125 C 3.261719 0.839844 2.839844 1.667969 2.367188 2.40625 L 1.949219 2.40625 C 2.402344 1.53125 2.792969 0.683594 3.125 -0.136719 C 3.457031 -0.957031 3.625 -1.863281 3.625 -2.863281 C 3.625 -3.824219 3.4375 -4.742188 3.058594 -5.625 C 2.683594 -6.503906 2.289062 -7.335938 1.871094 -8.125 L 2.285156 -8.125 C 2.796875 -7.347656 3.242188 -6.511719 3.617188 -5.625 C 3.996094 -4.734375 4.183594 -3.816406 4.183594 -2.863281 Z M 4.183594 -2.863281 "/>
</symbol>
<symbol overflow="visible" id="glyph1-5">
<path style="stroke:none;" d="M 7.121094 -3.429688 C 7.121094 -2.339844 6.773438 -1.476562 6.070312 -0.832031 C 5.371094 -0.1875 4.515625 0.148438 3.503906 0.179688 L 3.148438 1.847656 L 2.679688 1.847656 L 3.035156 0.171875 C 2.339844 0.117188 1.78125 -0.136719 1.351562 -0.585938 C 0.925781 -1.03125 0.710938 -1.644531 0.710938 -2.417969 C 0.710938 -3.367188 1.042969 -4.167969 1.703125 -4.828125 C 2.367188 -5.484375 3.242188 -5.839844 4.328125 -5.890625 L 4.8125 -8.175781 L 5.273438 -8.175781 L 4.792969 -5.890625 C 5.453125 -5.84375 6.007812 -5.605469 6.453125 -5.171875 C 6.898438 -4.742188 7.121094 -4.160156 7.121094 -3.429688 Z M 4.234375 -5.445312 C 3.316406 -5.398438 2.589844 -5.078125 2.058594 -4.480469 C 1.527344 -3.882812 1.261719 -3.203125 1.261719 -2.4375 C 1.261719 -1.789062 1.445312 -1.277344 1.8125 -0.898438 C 2.179688 -0.519531 2.617188 -0.308594 3.128906 -0.261719 Z M 6.5625 -3.332031 C 6.5625 -3.992188 6.386719 -4.496094 6.035156 -4.847656 C 5.683594 -5.195312 5.238281 -5.394531 4.695312 -5.441406 L 3.59375 -0.261719 C 4.503906 -0.308594 5.226562 -0.617188 5.761719 -1.191406 C 6.296875 -1.765625 6.5625 -2.476562 6.5625 -3.332031 Z M 6.5625 -3.332031 "/>
</symbol>
<symbol overflow="visible" id="glyph1-6">
<path style="stroke:none;" d="M 7.28125 -7.148438 L 3.898438 0.195312 L 0.519531 -7.148438 Z M 6.5625 -6.710938 L 1.238281 -6.710938 L 3.898438 -0.90625 Z M 6.5625 -6.710938 "/>
</symbol>
<symbol overflow="visible" id="glyph2-0">
<path style="stroke:none;" d="M 0.570312 -6.09375 L 4.964844 -6.09375 L 4.964844 0 L 0.570312 0 Z M 2.355469 -3.136719 L 1.171875 -5.28125 L 1.171875 -1.015625 Z M 4.355469 -1.015625 L 4.355469 -5.28125 L 3.183594 -3.136719 Z M 3.941406 -0.535156 L 3.265625 -1.753906 L 2.789062 -2.703125 L 2.75 -2.703125 L 2.253906 -1.753906 L 1.570312 -0.535156 Z M 2.789062 -3.570312 L 3.238281 -4.441406 L 3.847656 -5.539062 L 1.679688 -5.539062 L 2.289062 -4.441406 L 2.75 -3.570312 Z M 2.789062 -3.570312 "/>
</symbol>
<symbol overflow="visible" id="glyph2-1">
<path style="stroke:none;" d="M 0.671875 -0.453125 C 1.171875 -0.894531 1.613281 -1.296875 2 -1.652344 C 2.382812 -2.007812 2.707031 -2.335938 2.96875 -2.636719 C 3.230469 -2.933594 3.425781 -3.210938 3.5625 -3.46875 C 3.699219 -3.726562 3.765625 -3.980469 3.765625 -4.226562 C 3.765625 -4.566406 3.660156 -4.84375 3.453125 -5.058594 C 3.242188 -5.273438 2.917969 -5.382812 2.484375 -5.382812 C 2.207031 -5.382812 1.949219 -5.3125 1.710938 -5.171875 C 1.476562 -5.035156 1.261719 -4.867188 1.070312 -4.671875 L 0.636719 -5.105469 C 0.902344 -5.375 1.1875 -5.59375 1.492188 -5.753906 C 1.796875 -5.917969 2.15625 -6 2.574219 -6 C 2.871094 -6 3.136719 -5.957031 3.375 -5.875 C 3.609375 -5.792969 3.8125 -5.675781 3.976562 -5.523438 C 4.144531 -5.375 4.273438 -5.191406 4.359375 -4.976562 C 4.449219 -4.761719 4.496094 -4.523438 4.496094 -4.265625 C 4.496094 -3.988281 4.429688 -3.707031 4.296875 -3.429688 C 4.164062 -3.148438 3.976562 -2.859375 3.738281 -2.5625 C 3.5 -2.261719 3.210938 -1.953125 2.878906 -1.628906 C 2.546875 -1.304688 2.179688 -0.964844 1.78125 -0.601562 C 1.960938 -0.613281 2.144531 -0.625 2.332031 -0.636719 C 2.519531 -0.648438 2.703125 -0.65625 2.878906 -0.65625 L 4.816406 -0.65625 L 4.816406 0 L 0.671875 0 Z M 0.671875 -0.453125 "/>
</symbol>
<symbol overflow="visible" id="glyph2-2">
<path style="stroke:none;" d="M 0.746094 -1.164062 C 0.746094 -1.414062 0.808594 -1.636719 0.925781 -1.824219 C 1.046875 -2.011719 1.238281 -2.171875 1.5 -2.308594 C 1.761719 -2.441406 2.097656 -2.554688 2.511719 -2.640625 C 2.921875 -2.726562 3.417969 -2.792969 3.996094 -2.84375 C 3.992188 -2.996094 3.964844 -3.140625 3.921875 -3.277344 C 3.878906 -3.414062 3.8125 -3.53125 3.71875 -3.632812 C 3.628906 -3.734375 3.507812 -3.816406 3.355469 -3.875 C 3.203125 -3.9375 3.019531 -3.96875 2.804688 -3.96875 C 2.511719 -3.96875 2.226562 -3.910156 1.957031 -3.796875 C 1.6875 -3.683594 1.445312 -3.5625 1.238281 -3.433594 L 0.941406 -3.949219 C 1.050781 -4.023438 1.183594 -4.101562 1.332031 -4.175781 C 1.484375 -4.253906 1.644531 -4.324219 1.8125 -4.382812 C 1.984375 -4.445312 2.164062 -4.496094 2.355469 -4.535156 C 2.546875 -4.574219 2.738281 -4.597656 2.933594 -4.597656 C 3.550781 -4.597656 4.007812 -4.429688 4.304688 -4.09375 C 4.605469 -3.757812 4.753906 -3.308594 4.753906 -2.75 L 4.753906 0 L 4.136719 0 L 4.070312 -0.609375 L 4.042969 -0.609375 C 3.789062 -0.414062 3.511719 -0.242188 3.207031 -0.101562 C 2.902344 0.0390625 2.589844 0.109375 2.269531 0.109375 C 2.0625 0.109375 1.863281 0.0820312 1.679688 0.0234375 C 1.496094 -0.0351562 1.332031 -0.117188 1.195312 -0.226562 C 1.058594 -0.332031 0.949219 -0.464844 0.867188 -0.621094 C 0.789062 -0.777344 0.746094 -0.960938 0.746094 -1.164062 Z M 1.484375 -1.21875 C 1.484375 -1.089844 1.515625 -0.980469 1.570312 -0.890625 C 1.625 -0.800781 1.695312 -0.726562 1.785156 -0.667969 C 1.875 -0.609375 1.980469 -0.566406 2.101562 -0.539062 C 2.21875 -0.511719 2.34375 -0.5 2.472656 -0.5 C 2.730469 -0.5 2.984375 -0.554688 3.234375 -0.667969 C 3.484375 -0.78125 3.738281 -0.949219 3.996094 -1.164062 L 3.996094 -2.34375 C 3.515625 -2.308594 3.113281 -2.253906 2.792969 -2.1875 C 2.46875 -2.121094 2.210938 -2.039062 2.015625 -1.941406 C 1.824219 -1.847656 1.6875 -1.738281 1.605469 -1.621094 C 1.527344 -1.5 1.484375 -1.367188 1.484375 -1.21875 Z M 1.484375 -1.21875 "/>
</symbol>
</g>
</defs>
<g id="surface26">
<path style="fill:none;stroke-width:0.476074;stroke-linecap:square;stroke-linejoin:miter;stroke:rgb(0%,0%,0%);stroke-opacity:1;stroke-miterlimit:10;" d="M 2.238281 19.632812 L 9.761719 19.632812 "/>
<g style="fill:rgb(0%,0%,0%);fill-opacity:1;">
  <use xlink:href="#glyph0-1" x="2.5" y="13"/>
</g>
<g style="fill:rgb(0%,0%,0%);fill-opacity:1;">
  <use xlink:href="#glyph0-2" x="2.5" y="34"/>
</g>
<path style=" stroke:none;fill-rule:evenodd;fill:rgb(0%,0%,0%);fill-opacity:1;" d="M 20.558594 13.90625 L 20.558594 13.257812 C 20.558594 10.636719 20.707031 8.648438 21.003906 7.289062 C 21.335938 5.757812 21.933594 4.328125 22.785156 3 L 22.367188 3 C 21.484375 4.410156 20.867188 5.84375 20.519531 7.308594 C 20.171875 8.769531 20 10.753906 20 13.257812 L 20 28.085938 C 20 30.59375 20.171875 32.582031 20.519531 34.042969 C 20.867188 35.503906 21.484375 36.9375 22.367188 38.34375 L 22.785156 38.34375 C 21.933594 37.015625 21.335938 35.585938 21.003906 34.054688 C 20.707031 32.691406 20.558594 30.703125 20.558594 28.085938 Z M 20.558594 13.90625 "/>
<g style="fill:rgb(0%,0%,0%);fill-opacity:1;">
  <use xlink:href="#glyph1-1" x="24" y="23"/>
</g>
<path style="fill:none;stroke-width:0.476074;stroke-linecap:square;stroke-linejoin:miter;stroke:rgb(0%,0%,0%);stroke-opacity:1;stroke-miterlimit:10;" d="M 35.238281 19.632812 L 125.761719 19.632812 "/>
<g style="fill:rgb(0%,0%,0%);fill-opacity:1;">
  <use xlink:href="#glyph1-2" x="35.5" y="13"/>
</g>
<g style="fill:rgb(0%,0%,0%);fill-opacity:1;">
  <use xlink:href="#glyph1-1" x="43.5" y="13"/>
</g>
<g style="fill:rgb(0%,0%,0%);fill-opacity:1;">
  <use xlink:href="#glyph0-2" x="52.5" y="13"/>
</g>
<g style="fill:rgb(0%,0%,0%);fill-opacity:1;">
  <use xlink:href="#glyph1-3" x="63.5" y="13"/>
</g>
<g style="fill:rgb(0%,0%,0%);fill-opacity:1;">
  <use xlink:href="#glyph0-3" x="74.5" y="13"/>
</g>
<g style="fill:rgb(0%,0%,0%);fill-opacity:1;">
  <use xlink:href="#glyph1-4" x="82.5" y="13"/>
</g>
<g style="fill:rgb(0%,0%,0%);fill-opacity:1;">
  <use xlink:href="#glyph2-1" x="90.5" y="7.9456"/>
</g>
<g style="fill:rgb(0%,0%,0%);fill-opacity:1;">
  <use xlink:href="#glyph1-5" x="100.5" y="13"/>
</g>
<g style="fill:rgb(0%,0%,0%);fill-opacity:1;">
  <use xlink:href="#glyph2-1" x="108.5" y="7.9456"/>
</g>
<g style="fill:rgb(0%,0%,0%);fill-opacity:1;">
  <use xlink:href="#glyph0-4" x="118.5" y="13"/>
</g>
<g style="fill:rgb(0%,0%,0%);fill-opacity:1;">
  <use xlink:href="#glyph0-5" x="48" y="34.594238"/>
</g>
<g style="fill:rgb(0%,0%,0%);fill-opacity:1;">
  <use xlink:href="#glyph1-2" x="59" y="34.594238"/>
</g>
<g style="fill:rgb(0%,0%,0%);fill-opacity:1;">
  <use xlink:href="#glyph1-1" x="67" y="34.594238"/>
</g>
<g style="fill:rgb(0%,0%,0%);fill-opacity:1;">
  <use xlink:href="#glyph0-1" x="76" y="34.594238"/>
</g>
<g style="fill:rgb(0%,0%,0%);fill-opacity:1;">
  <use xlink:href="#glyph1-3" x="87" y="34.594238"/>
</g>
<g style="fill:rgb(0%,0%,0%);fill-opacity:1;">
  <use xlink:href="#glyph0-3" x="98" y="34.594238"/>
</g>
<g style="fill:rgb(0%,0%,0%);fill-opacity:1;">
  <use xlink:href="#glyph1-4" x="106" y="34.594238"/>
</g>
<g style="fill:rgb(0%,0%,0%);fill-opacity:1;">
  <use xlink:href="#glyph1-3" x="132" y="23"/>
</g>
<g style="fill:rgb(0%,0%,0%);fill-opacity:1;">
  <use xlink:href="#glyph1-2" x="143" y="23"/>
</g>
<g style="fill:rgb(0%,0%,0%);fill-opacity:1;">
  <use xlink:href="#glyph1-1" x="151" y="23"/>
</g>
<g style="fill:rgb(0%,0%,0%);fill-opacity:1;">
  <use xlink:href="#glyph0-2" x="160" y="23"/>
</g>
<g style="fill:rgb(0%,0%,0%);fill-opacity:1;">
  <use xlink:href="#glyph1-3" x="171" y="23"/>
</g>
<g style="fill:rgb(0%,0%,0%);fill-opacity:1;">
  <use xlink:href="#glyph0-3" x="182" y="23"/>
</g>
<g style="fill:rgb(0%,0%,0%);fill-opacity:1;">
  <use xlink:href="#glyph1-4" x="190" y="23"/>
</g>
<g style="fill:rgb(0%,0%,0%);fill-opacity:1;">
  <use xlink:href="#glyph1-5" x="201" y="23"/>
</g>
<g style="fill:rgb(0%,0%,0%);fill-opacity:1;">
  <use xlink:href="#glyph1-6" x="212" y="23"/>
</g>
<g style="fill:rgb(0%,0%,0%);fill-opacity:1;">
  <use xlink:href="#glyph2-2" x="220" y="25.24289"/>
</g>
<g style="fill:rgb(0%,0%,0%);fill-opacity:1;">
  <use xlink:href="#glyph1-6" x="227" y="23"/>
</g>
<g style="fill:rgb(0%,0%,0%);fill-opacity:1;">
  <use xlink:href="#glyph2-2" x="235" y="17.3138"/>
</g>
<g style="fill:rgb(0%,0%,0%);fill-opacity:1;">
  <use xlink:href="#glyph1-5" x="242" y="23"/>
</g>
<path style=" stroke:none;fill-rule:evenodd;fill:rgb(0%,0%,0%);fill-opacity:1;" d="M 253.78125 13.90625 L 253.78125 13.257812 C 253.78125 10.722656 253.609375 8.738281 253.265625 7.304688 C 252.914062 5.835938 252.300781 4.402344 251.417969 3 L 251 3 C 251.871094 4.386719 252.464844 5.820312 252.785156 7.289062 C 253.074219 8.644531 253.222656 10.632812 253.222656 13.257812 L 253.222656 28.085938 C 253.222656 30.710938 253.074219 32.699219 252.785156 34.054688 C 252.460938 35.539062 251.867188 36.96875 251 38.34375 L 251.417969 38.34375 C 252.300781 36.941406 252.914062 35.507812 253.265625 34.039062 C 253.609375 32.605469 253.78125 30.621094 253.78125 28.085938 Z M 253.78125 13.90625 "/>
</g>
</svg>
