<?xml version="1.0" encoding="UTF-8"?>
<svg xmlns="http://www.w3.org/2000/svg" xmlns:xlink="http://www.w3.org/1999/xlink" viewBox="0 0 331 432" version="1.1">
<defs>
<g>
<symbol overflow="visible" id="glyph0-0">
<path style="stroke:none;" d="M 0.621094 -6.601562 L 5.378906 -6.601562 L 5.378906 0 L 0.621094 0 Z M 2.550781 -3.398438 L 1.269531 -5.71875 L 1.269531 -1.101562 Z M 4.71875 -1.101562 L 4.71875 -5.71875 L 3.449219 -3.398438 Z M 4.269531 -0.578125 L 3.539062 -1.898438 L 3.019531 -2.929688 L 2.980469 -2.929688 L 2.441406 -1.898438 L 1.699219 -0.578125 Z M 3.019531 -3.871094 L 3.511719 -4.808594 L 4.171875 -6 L 1.820312 -6 L 2.480469 -4.808594 L 2.980469 -3.871094 Z M 3.019531 -3.871094 "/>
</symbol>
<symbol overflow="visible" id="glyph0-1">
<path style="stroke:none;" d="M 1.351562 -6.558594 L 5.359375 -6.558594 L 5.359375 -5.859375 L 2.179688 -5.859375 L 2.179688 -3.640625 L 4.871094 -3.640625 L 4.871094 -2.941406 L 2.179688 -2.941406 L 2.179688 0 L 1.351562 0 Z M 1.351562 -6.558594 "/>
</symbol>
<symbol overflow="visible" id="glyph0-2">
<path style="stroke:none;" d="M 5.050781 0 L 4.378906 0 L 4.308594 -0.851562 L 4.269531 -0.851562 C 4.023438 -0.5625 3.753906 -0.328125 3.464844 -0.148438 C 3.175781 0.03125 2.839844 0.121094 2.460938 0.121094 C 1.875 0.121094 1.445312 -0.046875 1.175781 -0.375 C 0.90625 -0.703125 0.769531 -1.191406 0.769531 -1.839844 L 0.769531 -4.859375 L 1.601562 -4.859375 L 1.601562 -1.949219 C 1.601562 -1.488281 1.683594 -1.148438 1.855469 -0.925781 C 2.023438 -0.703125 2.3125 -0.589844 2.71875 -0.589844 C 3 -0.589844 3.253906 -0.660156 3.480469 -0.804688 C 3.707031 -0.949219 3.957031 -1.175781 4.230469 -1.488281 L 4.230469 -4.859375 L 5.050781 -4.859375 Z M 5.050781 0 "/>
</symbol>
<symbol overflow="visible" id="glyph0-3">
<path style="stroke:none;" d="M 0.929688 -4.859375 L 1.609375 -4.859375 L 1.679688 -4.03125 L 1.71875 -4.03125 C 1.972656 -4.304688 2.246094 -4.53125 2.539062 -4.710938 C 2.832031 -4.890625 3.171875 -4.980469 3.550781 -4.980469 C 4.128906 -4.980469 4.554688 -4.816406 4.824219 -4.484375 C 5.09375 -4.15625 5.230469 -3.667969 5.230469 -3.019531 L 5.230469 0 L 4.410156 0 L 4.410156 -2.910156 C 4.410156 -3.371094 4.324219 -3.710938 4.148438 -3.933594 C 3.976562 -4.15625 3.691406 -4.269531 3.289062 -4.269531 C 3.144531 -4.269531 3.007812 -4.25 2.886719 -4.214844 C 2.761719 -4.179688 2.640625 -4.125 2.519531 -4.050781 C 2.398438 -3.976562 2.277344 -3.886719 2.148438 -3.773438 C 2.023438 -3.664062 1.890625 -3.535156 1.75 -3.390625 L 1.75 0 L 0.929688 0 Z M 0.929688 -4.859375 "/>
</symbol>
<symbol overflow="visible" id="glyph0-4">
<path style="stroke:none;" d="M 0.800781 -2.421875 C 0.800781 -2.828125 0.871094 -3.1875 1.015625 -3.503906 C 1.160156 -3.820312 1.351562 -4.089844 1.601562 -4.308594 C 1.847656 -4.53125 2.136719 -4.695312 2.464844 -4.808594 C 2.796875 -4.921875 3.144531 -4.980469 3.511719 -4.980469 C 3.910156 -4.980469 4.253906 -4.910156 4.546875 -4.769531 C 4.835938 -4.628906 5.078125 -4.464844 5.28125 -4.269531 L 4.871094 -3.738281 C 4.671875 -3.914062 4.460938 -4.050781 4.246094 -4.148438 C 4.027344 -4.25 3.792969 -4.300781 3.539062 -4.300781 C 3.257812 -4.300781 3.003906 -4.253906 2.769531 -4.164062 C 2.535156 -4.074219 2.339844 -3.945312 2.175781 -3.78125 C 2.011719 -3.613281 1.882812 -3.414062 1.789062 -3.183594 C 1.695312 -2.953125 1.648438 -2.699219 1.648438 -2.421875 C 1.648438 -2.140625 1.695312 -1.886719 1.785156 -1.660156 C 1.875 -1.433594 2 -1.238281 2.164062 -1.074219 C 2.328125 -0.910156 2.523438 -0.785156 2.753906 -0.695312 C 2.984375 -0.605469 3.238281 -0.558594 3.519531 -0.558594 C 3.820312 -0.558594 4.09375 -0.617188 4.34375 -0.734375 C 4.59375 -0.851562 4.824219 -0.996094 5.03125 -1.171875 L 5.390625 -0.640625 C 5.125 -0.398438 4.824219 -0.214844 4.496094 -0.078125 C 4.164062 0.0546875 3.820312 0.121094 3.460938 0.121094 C 3.082031 0.121094 2.726562 0.0625 2.40625 -0.0507812 C 2.082031 -0.164062 1.800781 -0.328125 1.558594 -0.546875 C 1.320312 -0.761719 1.132812 -1.027344 1 -1.34375 C 0.867188 -1.660156 0.800781 -2.019531 0.800781 -2.421875 Z M 0.800781 -2.421875 "/>
</symbol>
<symbol overflow="visible" id="glyph0-5">
<path style="stroke:none;" d="M 2.058594 -4.191406 L 0.691406 -4.191406 L 0.691406 -4.808594 L 2.089844 -4.859375 L 2.199219 -6.21875 L 2.878906 -6.21875 L 2.878906 -4.859375 L 5.269531 -4.859375 L 5.269531 -4.191406 L 2.878906 -4.191406 L 2.878906 -1.878906 C 2.878906 -1.660156 2.898438 -1.46875 2.941406 -1.304688 C 2.980469 -1.140625 3.046875 -1.003906 3.140625 -0.890625 C 3.234375 -0.777344 3.359375 -0.691406 3.519531 -0.636719 C 3.679688 -0.578125 3.875 -0.550781 4.109375 -0.550781 C 4.34375 -0.550781 4.554688 -0.570312 4.738281 -0.609375 C 4.925781 -0.648438 5.105469 -0.703125 5.28125 -0.769531 L 5.460938 -0.171875 C 5.242188 -0.0898438 4.996094 -0.0234375 4.730469 0.0351562 C 4.464844 0.0898438 4.195312 0.121094 3.929688 0.121094 C 3.578125 0.121094 3.28125 0.0703125 3.039062 -0.0234375 C 2.800781 -0.121094 2.609375 -0.257812 2.464844 -0.433594 C 2.320312 -0.609375 2.21875 -0.824219 2.15625 -1.070312 C 2.09375 -1.316406 2.058594 -1.589844 2.058594 -1.890625 Z M 2.058594 -4.191406 "/>
</symbol>
<symbol overflow="visible" id="glyph0-6">
<path style="stroke:none;" d="M 0.898438 -4.859375 L 3.980469 -4.859375 L 3.980469 0 L 3.160156 0 L 3.160156 -4.191406 L 0.898438 -4.191406 Z M 3.480469 -5.859375 C 3.285156 -5.859375 3.128906 -5.917969 3.003906 -6.03125 C 2.882812 -6.144531 2.820312 -6.296875 2.820312 -6.488281 C 2.820312 -6.683594 2.882812 -6.839844 3.003906 -6.953125 C 3.128906 -7.070312 3.285156 -7.128906 3.480469 -7.128906 C 3.667969 -7.128906 3.824219 -7.070312 3.949219 -6.953125 C 4.078125 -6.835938 4.140625 -6.683594 4.140625 -6.488281 C 4.140625 -6.296875 4.078125 -6.144531 3.949219 -6.03125 C 3.824219 -5.917969 3.667969 -5.859375 3.480469 -5.859375 Z M 3.480469 -5.859375 "/>
</symbol>
<symbol overflow="visible" id="glyph0-7">
<path style="stroke:none;" d="M 0.601562 -2.421875 C 0.601562 -2.828125 0.664062 -3.1875 0.796875 -3.503906 C 0.925781 -3.820312 1.101562 -4.089844 1.320312 -4.308594 C 1.539062 -4.53125 1.796875 -4.695312 2.085938 -4.808594 C 2.375 -4.921875 2.679688 -4.980469 3 -4.980469 C 3.320312 -4.980469 3.625 -4.921875 3.914062 -4.808594 C 4.203125 -4.695312 4.460938 -4.53125 4.679688 -4.308594 C 4.898438 -4.089844 5.074219 -3.820312 5.203125 -3.503906 C 5.335938 -3.1875 5.398438 -2.828125 5.398438 -2.421875 C 5.398438 -2.019531 5.335938 -1.660156 5.203125 -1.34375 C 5.074219 -1.027344 4.898438 -0.761719 4.679688 -0.546875 C 4.460938 -0.328125 4.203125 -0.164062 3.914062 -0.0507812 C 3.625 0.0625 3.320312 0.121094 3 0.121094 C 2.679688 0.121094 2.375 0.0625 2.085938 -0.0507812 C 1.796875 -0.164062 1.539062 -0.328125 1.320312 -0.546875 C 1.101562 -0.761719 0.925781 -1.027344 0.796875 -1.34375 C 0.664062 -1.660156 0.601562 -2.019531 0.601562 -2.421875 Z M 1.449219 -2.421875 C 1.449219 -2.140625 1.488281 -1.886719 1.558594 -1.660156 C 1.632812 -1.433594 1.738281 -1.238281 1.875 -1.074219 C 2.011719 -0.910156 2.175781 -0.785156 2.363281 -0.695312 C 2.554688 -0.605469 2.765625 -0.558594 3 -0.558594 C 3.234375 -0.558594 3.445312 -0.605469 3.636719 -0.695312 C 3.824219 -0.785156 3.988281 -0.910156 4.125 -1.074219 C 4.261719 -1.238281 4.367188 -1.433594 4.441406 -1.660156 C 4.515625 -1.886719 4.550781 -2.140625 4.550781 -2.421875 C 4.550781 -2.699219 4.511719 -2.953125 4.441406 -3.183594 C 4.367188 -3.414062 4.261719 -3.613281 4.125 -3.78125 C 3.988281 -3.945312 3.824219 -4.074219 3.636719 -4.164062 C 3.445312 -4.253906 3.234375 -4.300781 3 -4.300781 C 2.765625 -4.300781 2.554688 -4.253906 2.363281 -4.164062 C 2.175781 -4.074219 2.011719 -3.945312 1.875 -3.78125 C 1.738281 -3.613281 1.632812 -3.414062 1.558594 -3.183594 C 1.484375 -2.953125 1.449219 -2.699219 1.449219 -2.421875 Z M 1.449219 -2.421875 "/>
</symbol>
<symbol overflow="visible" id="glyph0-8">
<path style="stroke:none;" d="M 2.578125 -5.859375 L 0.421875 -5.859375 L 0.421875 -6.558594 L 5.578125 -6.558594 L 5.578125 -5.859375 L 3.421875 -5.859375 L 3.421875 0 L 2.578125 0 Z M 2.578125 -5.859375 "/>
</symbol>
<symbol overflow="visible" id="glyph0-9">
<path style="stroke:none;" d="M 0.601562 -4.859375 L 1.238281 -4.859375 L 1.308594 -4.21875 L 1.339844 -4.21875 C 1.460938 -4.445312 1.601562 -4.628906 1.765625 -4.769531 C 1.929688 -4.910156 2.148438 -4.980469 2.429688 -4.980469 C 2.921875 -4.980469 3.230469 -4.699219 3.351562 -4.140625 C 3.496094 -4.394531 3.65625 -4.597656 3.828125 -4.75 C 4.003906 -4.902344 4.226562 -4.980469 4.5 -4.980469 C 4.839844 -4.980469 5.101562 -4.851562 5.285156 -4.59375 C 5.46875 -4.339844 5.558594 -3.964844 5.558594 -3.480469 L 5.558594 0 L 4.769531 0 L 4.769531 -3.410156 C 4.769531 -3.984375 4.59375 -4.269531 4.238281 -4.269531 C 4.066406 -4.269531 3.917969 -4.207031 3.789062 -4.085938 C 3.664062 -3.960938 3.535156 -3.773438 3.410156 -3.519531 L 3.410156 0 L 2.75 0 L 2.75 -3.410156 C 2.75 -3.984375 2.566406 -4.269531 2.199219 -4.269531 C 2.027344 -4.269531 1.878906 -4.207031 1.761719 -4.085938 C 1.640625 -3.960938 1.515625 -3.773438 1.390625 -3.519531 L 1.390625 0 L 0.601562 0 Z M 0.601562 -4.859375 "/>
</symbol>
<symbol overflow="visible" id="glyph0-10">
<path style="stroke:none;" d="M 0.691406 -2.421875 C 0.691406 -2.820312 0.761719 -3.179688 0.898438 -3.496094 C 1.039062 -3.8125 1.226562 -4.078125 1.453125 -4.300781 C 1.683594 -4.519531 1.949219 -4.6875 2.246094 -4.804688 C 2.542969 -4.921875 2.847656 -4.980469 3.160156 -4.980469 C 3.507812 -4.980469 3.816406 -4.925781 4.089844 -4.816406 C 4.363281 -4.707031 4.59375 -4.550781 4.785156 -4.351562 C 4.976562 -4.152344 5.121094 -3.910156 5.21875 -3.628906 C 5.320312 -3.351562 5.371094 -3.039062 5.371094 -2.699219 C 5.371094 -2.613281 5.367188 -2.527344 5.363281 -2.445312 C 5.359375 -2.363281 5.351562 -2.289062 5.339844 -2.230469 L 1.539062 -2.230469 C 1.546875 -1.96875 1.597656 -1.738281 1.695312 -1.53125 C 1.792969 -1.324219 1.921875 -1.148438 2.085938 -1 C 2.25 -0.851562 2.441406 -0.738281 2.664062 -0.660156 C 2.886719 -0.578125 3.132812 -0.539062 3.398438 -0.539062 C 3.6875 -0.539062 3.949219 -0.578125 4.183594 -0.660156 C 4.421875 -0.738281 4.652344 -0.851562 4.878906 -0.988281 L 5.171875 -0.449219 C 4.929688 -0.296875 4.65625 -0.164062 4.351562 -0.0507812 C 4.042969 0.0625 3.691406 0.121094 3.300781 0.121094 C 2.941406 0.121094 2.601562 0.0625 2.285156 -0.0546875 C 1.96875 -0.171875 1.691406 -0.339844 1.453125 -0.554688 C 1.21875 -0.773438 1.03125 -1.035156 0.894531 -1.351562 C 0.757812 -1.664062 0.691406 -2.019531 0.691406 -2.421875 Z M 4.609375 -2.820312 C 4.609375 -3.308594 4.484375 -3.679688 4.230469 -3.941406 C 3.976562 -4.199219 3.625 -4.328125 3.171875 -4.328125 C 2.96875 -4.328125 2.777344 -4.296875 2.59375 -4.230469 C 2.410156 -4.164062 2.246094 -4.066406 2.101562 -3.933594 C 1.953125 -3.804688 1.828125 -3.648438 1.730469 -3.460938 C 1.628906 -3.273438 1.5625 -3.058594 1.53125 -2.820312 Z M 4.609375 -2.820312 "/>
</symbol>
<symbol overflow="visible" id="glyph0-11">
<path style="stroke:none;" d="M 1.121094 -1.179688 C 1.394531 -0.980469 1.6875 -0.820312 2 -0.699219 C 2.3125 -0.578125 2.691406 -0.519531 3.128906 -0.519531 C 3.570312 -0.519531 3.898438 -0.59375 4.109375 -0.738281 C 4.324219 -0.886719 4.429688 -1.066406 4.429688 -1.28125 C 4.429688 -1.46875 4.316406 -1.632812 4.085938 -1.78125 C 3.855469 -1.925781 3.441406 -2.074219 2.851562 -2.21875 C 2.597656 -2.28125 2.359375 -2.351562 2.136719 -2.441406 C 1.914062 -2.527344 1.714844 -2.628906 1.550781 -2.746094 C 1.382812 -2.863281 1.25 -2.988281 1.148438 -3.128906 C 1.050781 -3.269531 1 -3.425781 1 -3.601562 C 1 -3.792969 1.042969 -3.976562 1.128906 -4.144531 C 1.214844 -4.316406 1.34375 -4.460938 1.515625 -4.585938 C 1.683594 -4.707031 1.898438 -4.804688 2.15625 -4.875 C 2.410156 -4.945312 2.707031 -4.980469 3.039062 -4.980469 C 3.40625 -4.980469 3.761719 -4.917969 4.109375 -4.796875 C 4.457031 -4.671875 4.75 -4.527344 4.988281 -4.359375 L 4.589844 -3.828125 C 4.375 -3.984375 4.140625 -4.105469 3.878906 -4.199219 C 3.621094 -4.292969 3.339844 -4.339844 3.039062 -4.339844 C 2.8125 -4.339844 2.625 -4.320312 2.46875 -4.285156 C 2.316406 -4.25 2.191406 -4.199219 2.101562 -4.136719 C 2.007812 -4.070312 1.941406 -3.996094 1.898438 -3.910156 C 1.859375 -3.824219 1.839844 -3.734375 1.839844 -3.640625 C 1.839844 -3.441406 1.976562 -3.273438 2.25 -3.144531 C 2.523438 -3.015625 2.878906 -2.894531 3.320312 -2.78125 C 3.980469 -2.613281 4.46875 -2.421875 4.785156 -2.210938 C 5.101562 -1.996094 5.261719 -1.703125 5.261719 -1.328125 C 5.261719 -1.128906 5.214844 -0.941406 5.121094 -0.769531 C 5.027344 -0.597656 4.886719 -0.441406 4.703125 -0.308594 C 4.519531 -0.175781 4.296875 -0.0703125 4.023438 0.00390625 C 3.753906 0.0820312 3.445312 0.121094 3.101562 0.121094 C 2.621094 0.121094 2.179688 0.046875 1.773438 -0.105469 C 1.371094 -0.253906 1.019531 -0.433594 0.71875 -0.640625 Z M 1.121094 -1.179688 "/>
</symbol>
<symbol overflow="visible" id="glyph0-12">
<path style="stroke:none;" d="M 1.019531 -6.558594 L 3.03125 -6.558594 C 3.390625 -6.558594 3.71875 -6.527344 4.019531 -6.460938 C 4.320312 -6.394531 4.574219 -6.285156 4.785156 -6.136719 C 4.996094 -5.984375 5.160156 -5.785156 5.273438 -5.539062 C 5.390625 -5.292969 5.449219 -4.988281 5.449219 -4.628906 C 5.449219 -4.28125 5.390625 -3.984375 5.273438 -3.730469 C 5.15625 -3.476562 4.992188 -3.265625 4.78125 -3.101562 C 4.566406 -2.933594 4.3125 -2.808594 4.015625 -2.726562 C 3.71875 -2.640625 3.390625 -2.601562 3.03125 -2.601562 L 1.851562 -2.601562 L 1.851562 0 L 1.019531 0 Z M 2.921875 -3.28125 C 3.5 -3.28125 3.929688 -3.386719 4.203125 -3.605469 C 4.480469 -3.820312 4.621094 -4.164062 4.621094 -4.628906 C 4.621094 -5.101562 4.476562 -5.433594 4.195312 -5.613281 C 3.910156 -5.796875 3.488281 -5.890625 2.921875 -5.890625 L 1.851562 -5.890625 L 1.851562 -3.28125 Z M 2.921875 -3.28125 "/>
</symbol>
<symbol overflow="visible" id="glyph0-13">
<path style="stroke:none;" d="M 0.078125 -4.859375 L 0.921875 -4.859375 L 1.511719 -2.050781 C 1.558594 -1.816406 1.601562 -1.589844 1.640625 -1.371094 C 1.679688 -1.148438 1.714844 -0.925781 1.75 -0.699219 L 1.789062 -0.699219 C 1.835938 -0.925781 1.882812 -1.152344 1.929688 -1.375 C 1.976562 -1.597656 2.027344 -1.824219 2.078125 -2.050781 L 2.671875 -4.570312 L 3.371094 -4.570312 L 3.96875 -2.050781 C 4.023438 -1.816406 4.074219 -1.589844 4.121094 -1.371094 C 4.167969 -1.148438 4.214844 -0.925781 4.269531 -0.699219 L 4.308594 -0.699219 C 4.355469 -0.925781 4.398438 -1.148438 4.433594 -1.371094 C 4.472656 -1.589844 4.511719 -1.816406 4.550781 -2.050781 L 5.140625 -4.859375 L 5.921875 -4.859375 L 4.859375 0 L 3.871094 0 L 3.289062 -2.460938 C 3.242188 -2.695312 3.199219 -2.925781 3.160156 -3.15625 C 3.121094 -3.386719 3.074219 -3.625 3.019531 -3.871094 L 2.980469 -3.871094 C 2.941406 -3.65625 2.898438 -3.4375 2.859375 -3.210938 C 2.820312 -2.984375 2.769531 -2.730469 2.710938 -2.449219 L 2.148438 0 L 1.171875 0 Z M 0.078125 -4.859375 "/>
</symbol>
<symbol overflow="visible" id="glyph0-14">
<path style="stroke:none;" d="M 1.460938 -4.859375 L 2.140625 -4.859375 L 2.210938 -3.710938 L 2.238281 -3.710938 C 2.492188 -4.105469 2.804688 -4.414062 3.175781 -4.640625 C 3.546875 -4.867188 3.957031 -4.980469 4.410156 -4.980469 C 4.589844 -4.980469 4.757812 -4.964844 4.910156 -4.933594 C 5.0625 -4.90625 5.214844 -4.851562 5.371094 -4.78125 L 5.179688 -4.070312 C 5.007812 -4.128906 4.863281 -4.171875 4.746094 -4.199219 C 4.628906 -4.226562 4.472656 -4.238281 4.28125 -4.238281 C 3.914062 -4.238281 3.5625 -4.136719 3.226562 -3.925781 C 2.890625 -3.714844 2.574219 -3.355469 2.28125 -2.851562 L 2.28125 0 L 1.460938 0 Z M 1.460938 -4.859375 "/>
</symbol>
<symbol overflow="visible" id="glyph0-15">
<path style="stroke:none;" d="M 2.488281 -2.519531 L 0.78125 -4.859375 L 1.691406 -4.859375 L 2.460938 -3.789062 C 2.546875 -3.65625 2.636719 -3.519531 2.734375 -3.378906 C 2.832031 -3.238281 2.929688 -3.101562 3.03125 -2.96875 L 3.070312 -2.96875 C 3.164062 -3.101562 3.257812 -3.242188 3.351562 -3.390625 C 3.445312 -3.535156 3.535156 -3.675781 3.621094 -3.808594 L 4.351562 -4.859375 L 5.21875 -4.859375 L 3.488281 -2.449219 L 5.351562 0 L 4.449219 0 L 3.601562 -1.121094 C 3.5 -1.261719 3.394531 -1.40625 3.285156 -1.558594 C 3.175781 -1.710938 3.066406 -1.859375 2.960938 -2 L 2.921875 -2 C 2.820312 -1.851562 2.71875 -1.707031 2.621094 -1.566406 C 2.519531 -1.421875 2.421875 -1.273438 2.320312 -1.121094 L 1.519531 0 L 0.640625 0 Z M 2.488281 -2.519531 "/>
</symbol>
<symbol overflow="visible" id="glyph0-16">
<path style="stroke:none;" d="M 0.808594 -7.121094 L 3.289062 -7.121094 L 3.289062 -1.570312 C 3.289062 -1.210938 3.375 -0.953125 3.546875 -0.796875 C 3.714844 -0.640625 3.945312 -0.558594 4.238281 -0.558594 C 4.507812 -0.558594 4.8125 -0.636719 5.160156 -0.789062 L 5.371094 -0.171875 C 5.148438 -0.0898438 4.941406 -0.0234375 4.75 0.0351562 C 4.558594 0.0898438 4.328125 0.121094 4.058594 0.121094 C 3.539062 0.121094 3.144531 -0.0273438 2.875 -0.320312 C 2.605469 -0.613281 2.46875 -1.050781 2.46875 -1.628906 L 2.46875 -6.449219 L 0.808594 -6.449219 Z M 0.808594 -7.121094 "/>
</symbol>
<symbol overflow="visible" id="glyph0-17">
<path style="stroke:none;" d="M 5.28125 -0.679688 L 5.28125 0 L 0.980469 0 L 0.980469 -0.679688 L 2.789062 -0.679688 L 2.789062 -5.378906 L 1.429688 -5.378906 L 1.429688 -5.910156 C 1.769531 -5.964844 2.066406 -6.027344 2.320312 -6.105469 C 2.574219 -6.183594 2.800781 -6.273438 3 -6.378906 L 3.609375 -6.378906 L 3.609375 -0.679688 Z M 5.28125 -0.679688 "/>
</symbol>
<symbol overflow="visible" id="glyph0-18">
<path style="stroke:none;" d="M 0.851562 -6.558594 L 2.449219 -6.558594 C 3.441406 -6.558594 4.199219 -6.28125 4.714844 -5.71875 C 5.230469 -5.160156 5.488281 -4.355469 5.488281 -3.308594 C 5.488281 -2.789062 5.425781 -2.324219 5.296875 -1.914062 C 5.164062 -1.503906 4.972656 -1.160156 4.71875 -0.875 C 4.464844 -0.589844 4.152344 -0.375 3.78125 -0.226562 C 3.40625 -0.0742188 2.976562 0 2.488281 0 L 0.851562 0 Z M 2.398438 -0.679688 C 3.144531 -0.679688 3.703125 -0.910156 4.074219 -1.371094 C 4.445312 -1.832031 4.628906 -2.476562 4.628906 -3.308594 C 4.628906 -4.144531 4.445312 -4.78125 4.074219 -5.21875 C 3.703125 -5.660156 3.148438 -5.878906 2.398438 -5.878906 L 1.679688 -5.878906 L 1.679688 -0.679688 Z M 2.398438 -0.679688 "/>
</symbol>
<symbol overflow="visible" id="glyph0-19">
<path style="stroke:none;" d="M 1.171875 -1.429688 C 1.417969 -1.183594 1.703125 -0.984375 2.03125 -0.835938 C 2.355469 -0.683594 2.699219 -0.609375 3.058594 -0.609375 C 3.527344 -0.609375 3.886719 -0.707031 4.140625 -0.90625 C 4.394531 -1.101562 4.519531 -1.359375 4.519531 -1.679688 C 4.519531 -1.847656 4.488281 -1.988281 4.429688 -2.105469 C 4.371094 -2.222656 4.285156 -2.320312 4.179688 -2.40625 C 4.074219 -2.488281 3.949219 -2.5625 3.804688 -2.628906 C 3.660156 -2.695312 3.507812 -2.765625 3.339844 -2.839844 L 2.398438 -3.25 C 2.234375 -3.316406 2.066406 -3.398438 1.898438 -3.488281 C 1.734375 -3.582031 1.582031 -3.695312 1.445312 -3.828125 C 1.308594 -3.960938 1.195312 -4.121094 1.109375 -4.304688 C 1.023438 -4.488281 0.980469 -4.699219 0.980469 -4.941406 C 0.980469 -5.1875 1.035156 -5.417969 1.140625 -5.628906 C 1.246094 -5.84375 1.394531 -6.027344 1.585938 -6.183594 C 1.773438 -6.339844 2 -6.464844 2.265625 -6.550781 C 2.527344 -6.636719 2.816406 -6.679688 3.128906 -6.679688 C 3.542969 -6.679688 3.921875 -6.605469 4.269531 -6.453125 C 4.617188 -6.304688 4.910156 -6.109375 5.148438 -5.871094 L 4.710938 -5.328125 C 4.496094 -5.523438 4.261719 -5.675781 4.003906 -5.785156 C 3.746094 -5.894531 3.457031 -5.949219 3.128906 -5.949219 C 2.730469 -5.949219 2.414062 -5.863281 2.179688 -5.695312 C 1.945312 -5.523438 1.828125 -5.289062 1.828125 -4.988281 C 1.828125 -4.828125 1.863281 -4.695312 1.933594 -4.585938 C 2.003906 -4.476562 2.09375 -4.378906 2.203125 -4.296875 C 2.3125 -4.210938 2.441406 -4.140625 2.578125 -4.078125 C 2.71875 -4.019531 2.859375 -3.960938 3 -3.898438 L 3.921875 -3.5 C 4.121094 -3.421875 4.308594 -3.328125 4.484375 -3.226562 C 4.660156 -3.121094 4.816406 -3 4.945312 -2.863281 C 5.074219 -2.726562 5.179688 -2.566406 5.253906 -2.386719 C 5.332031 -2.203125 5.371094 -1.988281 5.371094 -1.75 C 5.371094 -1.488281 5.316406 -1.246094 5.210938 -1.019531 C 5.105469 -0.792969 4.949219 -0.59375 4.75 -0.425781 C 4.550781 -0.253906 4.308594 -0.121094 4.019531 -0.0234375 C 3.734375 0.0703125 3.410156 0.121094 3.050781 0.121094 C 2.570312 0.121094 2.128906 0.0351562 1.726562 -0.140625 C 1.320312 -0.3125 0.96875 -0.550781 0.671875 -0.851562 Z M 1.171875 -1.429688 "/>
</symbol>
</g>
</defs>
<g id="surface1">
<path style="fill:none;stroke-width:1;stroke-linecap:square;stroke-linejoin:miter;stroke:rgb(99.998474%,50%,50%);stroke-opacity:0.7;stroke-miterlimit:3.25;" d="M 217.199219 8.882812 L 217.199219 112.191406 "/>
<path style="fill:none;stroke-width:1;stroke-linecap:square;stroke-linejoin:miter;stroke:rgb(99.998474%,50%,50%);stroke-opacity:0.7;stroke-miterlimit:3.25;" d="M 217.199219 112.191406 L 113.890625 215.5 "/>
<path style="fill:none;stroke-width:1;stroke-linecap:square;stroke-linejoin:miter;stroke:rgb(99.998474%,50%,50%);stroke-opacity:0.7;stroke-miterlimit:3.25;" d="M 217.199219 112.191406 L 217.199219 215.5 "/>
<path style="fill:none;stroke-width:1;stroke-linecap:square;stroke-linejoin:miter;stroke:rgb(99.998474%,50%,50%);stroke-opacity:0.7;stroke-miterlimit:3.25;" d="M 113.890625 215.5 L 10.582031 318.808594 "/>
<path style="fill:none;stroke-width:1;stroke-linecap:square;stroke-linejoin:miter;stroke:rgb(99.998474%,50%,50%);stroke-opacity:0.7;stroke-miterlimit:3.25;" d="M 113.890625 215.5 L 113.890625 318.808594 "/>
<path style="fill:none;stroke-width:1;stroke-linecap:square;stroke-linejoin:miter;stroke:rgb(99.998474%,50%,50%);stroke-opacity:0.7;stroke-miterlimit:3.25;" d="M 113.890625 318.808594 L 10.582031 422.117188 "/>
<path style="fill:none;stroke-width:1;stroke-linecap:square;stroke-linejoin:miter;stroke:rgb(99.998474%,50%,50%);stroke-opacity:0.7;stroke-miterlimit:3.25;" d="M 113.890625 318.808594 L 113.890625 422.117188 "/>
<path style="fill:none;stroke-width:1;stroke-linecap:square;stroke-linejoin:miter;stroke:rgb(99.998474%,50%,50%);stroke-opacity:0.7;stroke-miterlimit:3.25;" d="M 217.199219 215.5 L 320.507812 318.808594 "/>
<path style="fill:none;stroke-width:1;stroke-linecap:square;stroke-linejoin:miter;stroke:rgb(99.998474%,50%,50%);stroke-opacity:0.7;stroke-miterlimit:3.25;" d="M 217.199219 215.5 L 217.199219 318.808594 "/>
<path style="fill:none;stroke-width:1;stroke-linecap:square;stroke-linejoin:miter;stroke:rgb(99.998474%,50%,50%);stroke-opacity:0.7;stroke-miterlimit:3.25;" d="M 320.507812 318.808594 L 320.507812 422.117188 "/>
<path style="fill-rule:evenodd;fill:rgb(86.997986%,93.998718%,99.998474%);fill-opacity:1;stroke-width:1;stroke-linecap:square;stroke-linejoin:miter;stroke:rgb(0%,0%,0%);stroke-opacity:0.7;stroke-miterlimit:3.25;" d="M 219.78125 8.882812 C 219.78125 8.199219 219.507812 7.542969 219.023438 7.058594 C 218.539062 6.574219 217.882812 6.300781 217.199219 6.300781 C 216.511719 6.300781 215.855469 6.574219 215.371094 7.058594 C 214.886719 7.542969 214.617188 8.199219 214.617188 8.882812 C 214.617188 9.570312 214.886719 10.226562 215.371094 10.710938 C 215.855469 11.195312 216.511719 11.46875 217.199219 11.46875 C 217.882812 11.46875 218.539062 11.195312 219.023438 10.710938 C 219.507812 10.226562 219.78125 9.570312 219.78125 8.882812 Z M 219.78125 8.882812 "/>
<g style="fill:rgb(50%,50%,99.998474%);fill-opacity:1;">
  <use xlink:href="#glyph0-1" x="164.615532" y="12.384468"/>
  <use xlink:href="#glyph0-2" x="170.615532" y="12.384468"/>
  <use xlink:href="#glyph0-3" x="176.615532" y="12.384468"/>
  <use xlink:href="#glyph0-4" x="182.615532" y="12.384468"/>
  <use xlink:href="#glyph0-5" x="188.615532" y="12.384468"/>
  <use xlink:href="#glyph0-6" x="194.615532" y="12.384468"/>
  <use xlink:href="#glyph0-7" x="200.615532" y="12.384468"/>
  <use xlink:href="#glyph0-3" x="206.615532" y="12.384468"/>
</g>
<path style="fill-rule:evenodd;fill:rgb(86.997986%,93.998718%,99.998474%);fill-opacity:1;stroke-width:1;stroke-linecap:square;stroke-linejoin:miter;stroke:rgb(0%,0%,0%);stroke-opacity:0.7;stroke-miterlimit:3.25;" d="M 219.78125 112.191406 C 219.78125 111.507812 219.507812 110.851562 219.023438 110.367188 C 218.539062 109.882812 217.882812 109.609375 217.199219 109.609375 C 216.511719 109.609375 215.855469 109.882812 215.371094 110.367188 C 214.886719 110.851562 214.617188 111.507812 214.617188 112.191406 C 214.617188 112.878906 214.886719 113.535156 215.371094 114.019531 C 215.855469 114.503906 216.511719 114.773438 217.199219 114.773438 C 217.882812 114.773438 218.539062 114.503906 219.023438 114.019531 C 219.507812 113.535156 219.78125 112.878906 219.78125 112.191406 Z M 219.78125 112.191406 "/>
<g style="fill:rgb(50%,50%,99.998474%);fill-opacity:1;">
  <use xlink:href="#glyph0-8" x="182.615532" y="115.692234"/>
  <use xlink:href="#glyph0-6" x="188.615532" y="115.692234"/>
  <use xlink:href="#glyph0-9" x="194.615532" y="115.692234"/>
  <use xlink:href="#glyph0-10" x="200.615532" y="115.692234"/>
  <use xlink:href="#glyph0-11" x="206.615532" y="115.692234"/>
</g>
<path style="fill-rule:evenodd;fill:rgb(86.997986%,93.998718%,99.998474%);fill-opacity:1;stroke-width:1;stroke-linecap:square;stroke-linejoin:miter;stroke:rgb(0%,0%,0%);stroke-opacity:0.7;stroke-miterlimit:3.25;" d="M 116.472656 215.5 C 116.472656 214.816406 116.199219 214.15625 115.714844 213.671875 C 115.230469 213.1875 114.574219 212.917969 113.890625 212.917969 C 113.207031 212.917969 112.546875 213.1875 112.0625 213.671875 C 111.578125 214.15625 111.308594 214.816406 111.308594 215.5 C 111.308594 216.183594 111.578125 216.84375 112.0625 217.328125 C 112.546875 217.8125 113.207031 218.082031 113.890625 218.082031 C 114.574219 218.082031 115.230469 217.8125 115.714844 217.328125 C 116.199219 216.84375 116.472656 216.183594 116.472656 215.5 Z M 116.472656 215.5 "/>
<g style="fill:rgb(50%,50%,99.998474%);fill-opacity:1;">
  <use xlink:href="#glyph0-12" x="79.307766" y="219"/>
  <use xlink:href="#glyph0-7" x="85.307766" y="219"/>
  <use xlink:href="#glyph0-13" x="91.307766" y="219"/>
  <use xlink:href="#glyph0-10" x="97.307766" y="219"/>
  <use xlink:href="#glyph0-14" x="103.307766" y="219"/>
</g>
<path style="fill-rule:evenodd;fill:rgb(86.997986%,93.998718%,99.998474%);fill-opacity:1;stroke-width:1;stroke-linecap:square;stroke-linejoin:miter;stroke:rgb(0%,0%,0%);stroke-opacity:0.7;stroke-miterlimit:3.25;" d="M 13.164062 318.808594 C 13.164062 318.121094 12.894531 317.464844 12.410156 316.980469 C 11.925781 316.496094 11.269531 316.226562 10.582031 316.226562 C 9.898438 316.226562 9.242188 316.496094 8.757812 316.980469 C 8.273438 317.464844 8 318.121094 8 318.808594 C 8 319.492188 8.273438 320.148438 8.757812 320.632812 C 9.242188 321.117188 9.898438 321.390625 10.582031 321.390625 C 11.269531 321.390625 11.925781 321.117188 12.410156 320.632812 C 12.894531 320.148438 13.164062 319.492188 13.164062 318.808594 Z M 13.164062 318.808594 "/>
<g style="fill:rgb(50%,50%,99.998474%);fill-opacity:1;">
  <use xlink:href="#glyph0-15" x="-0.000000000000028422" y="322.307766"/>
</g>
<path style="fill-rule:evenodd;fill:rgb(86.997986%,93.998718%,99.998474%);fill-opacity:1;stroke-width:1;stroke-linecap:square;stroke-linejoin:miter;stroke:rgb(0%,0%,0%);stroke-opacity:0.7;stroke-miterlimit:3.25;" d="M 116.472656 318.808594 C 116.472656 318.121094 116.199219 317.464844 115.714844 316.980469 C 115.230469 316.496094 114.574219 316.226562 113.890625 316.226562 C 113.207031 316.226562 112.546875 316.496094 112.0625 316.980469 C 111.578125 317.464844 111.308594 318.121094 111.308594 318.808594 C 111.308594 319.492188 111.578125 320.148438 112.0625 320.632812 C 112.546875 321.117188 113.207031 321.390625 113.890625 321.390625 C 114.574219 321.390625 115.230469 321.117188 115.714844 320.632812 C 116.199219 320.148438 116.472656 319.492188 116.472656 318.808594 Z M 116.472656 318.808594 "/>
<g style="fill:rgb(50%,50%,99.998474%);fill-opacity:1;">
  <use xlink:href="#glyph0-12" x="85.307766" y="322.307766"/>
  <use xlink:href="#glyph0-16" x="91.307766" y="322.307766"/>
  <use xlink:href="#glyph0-2" x="97.307766" y="322.307766"/>
  <use xlink:href="#glyph0-11" x="103.307766" y="322.307766"/>
</g>
<path style="fill-rule:evenodd;fill:rgb(86.997986%,93.998718%,99.998474%);fill-opacity:1;stroke-width:1;stroke-linecap:square;stroke-linejoin:miter;stroke:rgb(0%,0%,0%);stroke-opacity:0.7;stroke-miterlimit:3.25;" d="M 13.164062 422.117188 C 13.164062 421.429688 12.894531 420.773438 12.410156 420.289062 C 11.925781 419.804688 11.269531 419.53125 10.582031 419.53125 C 9.898438 419.53125 9.242188 419.804688 8.757812 420.289062 C 8.273438 420.773438 8 421.429688 8 422.117188 C 8 422.800781 8.273438 423.457031 8.757812 423.941406 C 9.242188 424.425781 9.898438 424.699219 10.582031 424.699219 C 11.269531 424.699219 11.925781 424.425781 12.410156 423.941406 C 12.894531 423.457031 13.164062 422.800781 13.164062 422.117188 Z M 13.164062 422.117188 "/>
<g style="fill:rgb(50%,50%,99.998474%);fill-opacity:1;">
  <use xlink:href="#glyph0-3" x="-0.000000000000028422" y="425.615532"/>
</g>
<path style="fill-rule:evenodd;fill:rgb(86.997986%,93.998718%,99.998474%);fill-opacity:1;stroke-width:1;stroke-linecap:square;stroke-linejoin:miter;stroke:rgb(0%,0%,0%);stroke-opacity:0.7;stroke-miterlimit:3.25;" d="M 116.472656 422.117188 C 116.472656 421.429688 116.199219 420.773438 115.714844 420.289062 C 115.230469 419.804688 114.574219 419.53125 113.890625 419.53125 C 113.207031 419.53125 112.546875 419.804688 112.0625 420.289062 C 111.578125 420.773438 111.308594 421.429688 111.308594 422.117188 C 111.308594 422.800781 111.578125 423.457031 112.0625 423.941406 C 112.546875 424.425781 113.207031 424.699219 113.890625 424.699219 C 114.574219 424.699219 115.230469 424.425781 115.714844 423.941406 C 116.199219 423.457031 116.472656 422.800781 116.472656 422.117188 Z M 116.472656 422.117188 "/>
<g style="fill:rgb(50%,50%,99.998474%);fill-opacity:1;">
  <use xlink:href="#glyph0-17" x="103.307766" y="425.615532"/>
</g>
<path style="fill-rule:evenodd;fill:rgb(86.997986%,93.998718%,99.998474%);fill-opacity:1;stroke-width:1;stroke-linecap:square;stroke-linejoin:miter;stroke:rgb(0%,0%,0%);stroke-opacity:0.7;stroke-miterlimit:3.25;" d="M 219.78125 215.5 C 219.78125 214.816406 219.507812 214.15625 219.023438 213.671875 C 218.539062 213.1875 217.882812 212.917969 217.199219 212.917969 C 216.511719 212.917969 215.855469 213.1875 215.371094 213.671875 C 214.886719 214.15625 214.617188 214.816406 214.617188 215.5 C 214.617188 216.183594 214.886719 216.84375 215.371094 217.328125 C 215.855469 217.8125 216.511719 218.082031 217.199219 218.082031 C 217.882812 218.082031 218.539062 217.8125 219.023438 217.328125 C 219.507812 216.84375 219.78125 216.183594 219.78125 215.5 Z M 219.78125 215.5 "/>
<g style="fill:rgb(50%,50%,99.998474%);fill-opacity:1;">
  <use xlink:href="#glyph0-18" x="206.615532" y="219"/>
</g>
<path style="fill-rule:evenodd;fill:rgb(86.997986%,93.998718%,99.998474%);fill-opacity:1;stroke-width:1;stroke-linecap:square;stroke-linejoin:miter;stroke:rgb(0%,0%,0%);stroke-opacity:0.7;stroke-miterlimit:3.25;" d="M 323.089844 318.808594 C 323.089844 318.121094 322.816406 317.464844 322.332031 316.980469 C 321.847656 316.496094 321.191406 316.226562 320.507812 316.226562 C 319.820312 316.226562 319.164062 316.496094 318.679688 316.980469 C 318.195312 317.464844 317.921875 318.121094 317.921875 318.808594 C 317.921875 319.492188 318.195312 320.148438 318.679688 320.632812 C 319.164062 321.117188 319.820312 321.390625 320.507812 321.390625 C 321.191406 321.390625 321.847656 321.117188 322.332031 320.632812 C 322.816406 320.148438 323.089844 319.492188 323.089844 318.808594 Z M 323.089844 318.808594 "/>
<g style="fill:rgb(50%,50%,99.998474%);fill-opacity:1;">
  <use xlink:href="#glyph0-19" x="291.923298" y="322.307766"/>
  <use xlink:href="#glyph0-16" x="297.923298" y="322.307766"/>
  <use xlink:href="#glyph0-7" x="303.923298" y="322.307766"/>
  <use xlink:href="#glyph0-5" x="309.923298" y="322.307766"/>
</g>
<path style="fill-rule:evenodd;fill:rgb(86.997986%,93.998718%,99.998474%);fill-opacity:1;stroke-width:1;stroke-linecap:square;stroke-linejoin:miter;stroke:rgb(0%,0%,0%);stroke-opacity:0.7;stroke-miterlimit:3.25;" d="M 323.089844 422.117188 C 323.089844 421.429688 322.816406 420.773438 322.332031 420.289062 C 321.847656 419.804688 321.191406 419.53125 320.507812 419.53125 C 319.820312 419.53125 319.164062 419.804688 318.679688 420.289062 C 318.195312 420.773438 317.921875 421.429688 317.921875 422.117188 C 317.921875 422.800781 318.195312 423.457031 318.679688 423.941406 C 319.164062 424.425781 319.820312 424.699219 320.507812 424.699219 C 321.191406 424.699219 321.847656 424.425781 322.332031 423.941406 C 322.816406 423.457031 323.089844 422.800781 323.089844 422.117188 Z M 323.089844 422.117188 "/>
<g style="fill:rgb(50%,50%,99.998474%);fill-opacity:1;">
  <use xlink:href="#glyph0-17" x="309.923298" y="425.615532"/>
</g>
<path style="fill-rule:evenodd;fill:rgb(86.997986%,93.998718%,99.998474%);fill-opacity:1;stroke-width:1;stroke-linecap:square;stroke-linejoin:miter;stroke:rgb(0%,0%,0%);stroke-opacity:0.7;stroke-miterlimit:3.25;" d="M 219.78125 318.808594 C 219.78125 318.121094 219.507812 317.464844 219.023438 316.980469 C 218.539062 316.496094 217.882812 316.226562 217.199219 316.226562 C 216.511719 316.226562 215.855469 316.496094 215.371094 316.980469 C 214.886719 317.464844 214.617188 318.121094 214.617188 318.808594 C 214.617188 319.492188 214.886719 320.148438 215.371094 320.632812 C 215.855469 321.117188 216.511719 321.390625 217.199219 321.390625 C 217.882812 321.390625 218.539062 321.117188 219.023438 320.632812 C 219.507812 320.148438 219.78125 319.492188 219.78125 318.808594 Z M 219.78125 318.808594 "/>
<g style="fill:rgb(50%,50%,99.998474%);fill-opacity:1;">
  <use xlink:href="#glyph0-15" x="206.615532" y="322.307766"/>
</g>
</g>
</svg>
